<svg xmlns="http://www.w3.org/2000/svg" width="1024" height="1024" viewBox="0 0 1024 1024" fill="none">
  <title>Fab Builder App Icon Light</title>
  <defs>
    <linearGradient id="icon-background-gradient" x1="132" y1="96" x2="892" y2="948" gradientUnits="userSpaceOnUse">
      <stop offset="0" stop-color="#faf8f3"/>
      <stop offset="1" stop-color="#dfdbd1"/>
    </linearGradient>
    <linearGradient id="icon-foreground-gradient" x1="308" y1="172" x2="728" y2="924" gradientUnits="userSpaceOnUse">
      <stop offset="0" stop-color="#050505"/>
      <stop offset="0.52" stop-color="#151515"/>
      <stop offset="1" stop-color="#3d3d3d"/>
    </linearGradient>
    <linearGradient id="icon-sheen-gradient" x1="280" y1="140" x2="612" y2="526" gradientUnits="userSpaceOnUse">
      <stop offset="0" stop-color="#ffffff" stop-opacity="0.18"/>
      <stop offset="1" stop-color="#ffffff" stop-opacity="0"/>
    </linearGradient>
    <radialGradient id="icon-inner-glow" cx="0" cy="0" r="1" gradientUnits="userSpaceOnUse" gradientTransform="translate(512 320) rotate(90) scale(520 420)">
      <stop offset="0" stop-color="#ffffff" stop-opacity="0.08"/>
      <stop offset="1" stop-color="#ffffff" stop-opacity="0"/>
    </radialGradient>
    <clipPath id="icon-shield-clip">
      <path d="M512 110C639 110 747 142 832 195V468C832 668 713 840 512 930C311 840 192 668 192 468V195C277 142 385 110 512 110Z"/>
    </clipPath>
  </defs>
  <rect width="1024" height="1024" fill="url(#icon-background-gradient)"/>
  <path d="M512 110C639 110 747 142 832 195V468C832 668 713 840 512 930C311 840 192 668 192 468V195C277 142 385 110 512 110Z" fill="#000000" opacity="0.12" transform="translate(0 18)"/>
  <path d="M512 110C639 110 747 142 832 195V468C832 668 713 840 512 930C311 840 192 668 192 468V195C277 142 385 110 512 110Z" fill="url(#icon-foreground-gradient)"/>
    <path d="M512 262L372 690H457L489 586H535L567 690H652L512 262ZM512 409L543 510H481L512 409Z" fill="url(#icon-background-gradient)"/>
    <path d="M512 166C608 166 690 186 758 223V276C695 240 614 220 512 220C410 220 329 240 266 276V223C334 186 416 166 512 166Z" fill="url(#icon-background-gradient)"/>
    <path d="M494 332H530L558 418H542L522 359H502L482 418H466L494 332Z" fill="url(#icon-foreground-gradient)"/>
    <g clip-path="url(#icon-shield-clip)">
      <ellipse cx="388" cy="244" rx="226" ry="156" fill="url(#icon-sheen-gradient)"/>
      <ellipse cx="536" cy="366" rx="268" ry="228" fill="url(#icon-inner-glow)"/>
    </g>
</svg>