<?xml version="1.0" encoding="UTF-8"?>
<svg xmlns="http://www.w3.org/2000/svg" xmlns:xlink="http://www.w3.org/1999/xlink" width="1236.78pt" height="508.431pt" viewBox="0 0 1236.78 508.431">
<defs>
<mask id="ornament-mask" maskUnits="userSpaceOnUse" x="0" y="0" width="1236.78" height="508.431">
<rect x="0" y="0" width="1236.78" height="508.431" fill="black"/>
<path fill-rule="evenodd" fill="white" fill-opacity="1" d="M 215.347656 142.863281 C 210.644531 126.902344 217.664062 106.121094 226.75 97.234375 C 195.644531 96.699219 121.8125 100.980469 96.292969 107.242188 C 130.425781 98.867188 197.71875 132.191406 215.347656 142.863281 M 101.378906 163.640625 C 83 147.925781 73.429688 126.394531 80.109375 91.382812 C 140.316406 78.902344 235.644531 78.371094 269.699219 78.371094 C 300.039062 78.371094 323.785156 99.335938 323.785156 130.554688 C 323.785156 158.382812 302.84375 184.503906 269.699219 184.503906 C 242.085938 184.503906 210.59375 160.46875 171.113281 141.425781 C 154.839844 133.578125 135.160156 127.246094 116.027344 122.664062 C 116.226562 126.902344 119.207031 130.941406 124.050781 134.882812 C 115.570312 143.382812 106.179688 155.425781 101.378906 163.640625 "/>
<path fill-rule="evenodd" fill="white" fill-opacity="1" d="M 322.660156 361.703125 C 316.617188 331.460938 286.507812 316.265625 259.210938 320.890625 C 263.992188 309.351562 268.308594 295.871094 268.398438 285.125 C 287.308594 282.617188 314.453125 268.167969 327.03125 247.828125 C 314.453125 268.167969 320.621094 284.191406 332.25 292.070312 C 338.832031 296.527344 359.738281 303.421875 372.34375 282.980469 C 352.625 314.957031 335.722656 342.152344 322.660156 361.703125 M 376.464844 243.964844 C 367.300781 258.84375 360.601562 269.625 359.050781 271.972656 C 354.804688 278.402344 349.105469 280.097656 343.832031 277.386719 C 338.589844 274.691406 335.628906 267.453125 339.617188 260.964844 C 344.773438 252.574219 382.21875 193.976562 400.476562 165.320312 C 392.59375 158.113281 384.507812 151.015625 375.597656 144.355469 C 360.992188 167.253906 331.328125 213.65625 323.75 223.707031 C 314.980469 235.34375 292.023438 267.757812 251.433594 268.527344 C 252.378906 282.886719 250.347656 297.0625 237.757812 321.636719 C 231.398438 334.046875 214.347656 352.816406 214.347656 376.347656 C 214.347656 399.882812 231.570312 429.496094 268.617188 429.496094 C 292.765625 429.496094 310.492188 416.984375 323.785156 397.300781 C 330.46875 387.40625 364.695312 330.996094 398.925781 274.300781 C 393.796875 266.824219 382.847656 252.339844 376.464844 243.964844 "/>
<path fill-rule="evenodd" fill="white" fill-opacity="1" d="M 195.371094 389.101562 C 184.957031 389.101562 176.5 380.707031 176.5 370.367188 C 176.5 360.027344 184.957031 351.632812 195.371094 351.632812 C 205.789062 351.632812 214.242188 360.027344 214.242188 370.367188 C 214.242188 380.707031 205.789062 389.101562 195.371094 389.101562 "/>
<path fill-rule="evenodd" fill="white" fill-opacity="1" d="M 344.945312 167.179688 C 334.527344 167.179688 326.074219 158.785156 326.074219 148.445312 C 326.074219 138.105469 334.527344 129.710938 344.945312 129.710938 C 355.359375 129.710938 363.816406 138.105469 363.816406 148.445312 C 363.816406 158.785156 355.359375 167.179688 344.945312 167.179688 "/>
<path fill-rule="evenodd" fill="white" fill-opacity="1" d="M 269.699219 166.953125 C 250.144531 166.953125 234.265625 151.078125 234.265625 131.519531 C 234.265625 111.964844 250.144531 96.085938 269.699219 96.085938 C 289.257812 96.085938 305.132812 111.964844 305.132812 131.519531 C 305.132812 151.078125 289.257812 166.953125 269.699219 166.953125 "/>
<path fill-rule="evenodd" fill="white" fill-opacity="1" d="M 416.953125 244.425781 C 445.484375 197.105469 470.460938 155.550781 474.679688 148.644531 C 494.027344 116.992188 510.304688 100.238281 540.242188 108.886719 C 537.597656 87.074219 520.746094 78.371094 508.046875 78.371094 C 485.644531 78.371094 469.515625 88.96875 444.90625 131.046875 C 433.675781 150.246094 412.488281 185.171875 393.933594 215.503906 C 400.851562 223.980469 411.832031 237.160156 416.953125 244.425781 "/>
<path fill-rule="evenodd" fill="white" fill-opacity="1" d="M 417.820312 134.980469 C 420.511719 128.082031 421.820312 121.546875 421.820312 115.105469 C 421.820312 96.339844 407.933594 73.476562 371.214844 82.984375 C 378.363281 91.335938 386.703125 98.050781 387.839844 111.546875 C 393.523438 115.125 408.796875 126.769531 417.820312 134.980469 "/>
<path fill-rule="evenodd" fill="white" fill-opacity="1" d="M 248.699219 426.648438 C 206.957031 430.820312 164.929688 417.628906 132.734375 390.4375 C 140.1875 384.507812 148.648438 378.808594 157.820312 373.277344 C 175.402344 387.417969 196.261719 396.390625 218.636719 397.300781 C 223.972656 409.988281 234.878906 421.15625 248.699219 426.648438 "/>
<path fill-rule="evenodd" fill="white" fill-opacity="1" d="M 131.953125 126.957031 C 108.039062 150.070312 75.535156 187.871094 75.535156 260.832031 C 75.535156 310.226562 93.285156 350.5625 120.722656 379.179688 C 129.054688 372.902344 136.792969 367.941406 145.644531 362.085938 C 120.332031 335.847656 104.273438 298.273438 104.273438 260.832031 C 104.273438 194.140625 142.15625 157.078125 166.671875 139.351562 C 155.921875 134.65625 145.226562 130.816406 131.953125 126.957031 "/>
<path fill-rule="evenodd" fill="white" fill-opacity="1" d="M 203.097656 311.457031 C 211.28125 319.042969 221.449219 325.003906 233.5 328.859375 C 227.554688 338.167969 221.507812 347.546875 218.636719 355.371094 C 201.34375 349.136719 186.71875 338.207031 175.492188 324.507812 C 186.273438 321.777344 195.429688 317.609375 203.097656 311.457031 "/>
<path fill-rule="evenodd" fill="white" fill-opacity="1" d="M 191.636719 215.988281 C 183.855469 227.296875 179.078125 240.234375 179.078125 253.667969 C 179.078125 263.605469 180.65625 273.085938 183.730469 281.824219 C 175.21875 287.496094 165.796875 289.914062 156.027344 289.140625 C 152.261719 277.878906 150.273438 266.027344 150.273438 254.179688 C 150.273438 231.425781 156.238281 213.4375 166.859375 197.75 C 175.308594 201.296875 186.046875 209.09375 191.636719 215.988281 "/>
<path fill-rule="evenodd" fill="white" fill-opacity="1" d="M 244.359375 179.054688 C 235.4375 181.304688 226.609375 185.210938 218.472656 190.386719 C 211.386719 183.148438 203.085938 175.738281 192.507812 169.945312 C 196.582031 166.460938 200.90625 163.027344 205.460938 159.605469 C 215.636719 165.003906 229.664062 173.347656 244.359375 179.054688 "/>
<path fill-rule="evenodd" fill="white" fill-opacity="1" d="M 101.269531 354.324219 C 87.78125 363.886719 75.585938 375.691406 75.585938 396.582031 C 75.585938 411.144531 86.355469 424.433594 109.328125 429.496094 C 112.246094 393.839844 148.964844 381.90625 179.730469 358.234375 C 185.449219 353.835938 191.160156 349.136719 196.671875 344.066406 C 192.496094 341.058594 188.453125 337.898438 184.714844 334.390625 C 178.347656 339.832031 171.183594 345.21875 163.269531 350.582031 C 135.234375 369.582031 102.417969 386.269531 98.792969 408.171875 C 94.066406 404.859375 92.882812 399.628906 92.882812 395.273438 C 92.882812 382.121094 100.457031 374.011719 110.25 367.039062 C 107.265625 363.257812 103.917969 358.679688 101.269531 354.324219 "/>
<path fill-rule="evenodd" fill="white" fill-opacity="1" d="M 126.128906 336.714844 C 135.539062 328.242188 140.246094 317.746094 132.875 300.625 C 117.328125 291.707031 104.667969 274.84375 104.667969 251.109375 C 104.667969 234.84375 118.644531 226.164062 129.445312 226.164062 C 140.25 226.164062 149.722656 234.75 149.722656 244.660156 C 149.722656 258.738281 140.574219 262.828125 134.222656 262.828125 C 127.871094 262.828125 122.714844 259.164062 122.714844 253.152344 C 122.714844 250.246094 124.449219 245.652344 129.570312 244.902344 C 124.375 245.664062 122.714844 248.839844 122.714844 253.152344 C 122.714844 267.679688 133.539062 289.269531 159.429688 289.269531 C 185.320312 289.269531 202.9375 267.253906 202.9375 246.894531 C 202.9375 221.414062 185.09375 204.898438 159.433594 194.441406 C 148.082031 189.820312 137.195312 185.257812 127.285156 180.242188 C 134.035156 170.351562 142.144531 160.539062 152.441406 150.855469 C 162.519531 155.550781 173.488281 160.347656 183.753906 165.328125 C 222.148438 183.96875 241.109375 213.566406 241.109375 251.269531 C 241.109375 280.082031 231.285156 302.984375 217.164062 321.738281 C 213.136719 319.242188 209.109375 316.46875 205.078125 313.191406 C 207.175781 310.394531 209.0625 307.574219 210.730469 304.726562 C 195.886719 319.980469 173.039062 328.410156 152.746094 326 C 150.058594 336.738281 143.421875 344.203125 135.492188 350.351562 C 132 346.121094 128.609375 340.640625 126.128906 336.714844 "/>
<path fill-rule="evenodd" fill="white" fill-opacity="1" d="M 746.527344 299.546875 C 751.066406 305.757812 755.539062 311.664062 758.972656 315.890625 C 741.773438 339.453125 722.296875 364.460938 700.242188 385.726562 C 664.671875 420.023438 637.847656 429.496094 614.613281 429.496094 C 583.671875 429.496094 560.246094 404.582031 560.246094 376.347656 C 560.246094 334.261719 597.703125 319.992188 622.578125 300.558594 C 656.066406 314.128906 692.136719 309.449219 730.65625 276.816406 C 733.5 281.164062 737.390625 286.808594 741.542969 292.632812 C 707.308594 321.105469 669.375 335.308594 627.066406 322.910156 C 660.949219 332.839844 674.085938 361.785156 668.289062 388.253906 C 698.957031 362.777344 723.828125 330.742188 746.527344 299.546875 "/>
<path fill-rule="evenodd" fill="white" fill-opacity="1" d="M 590.496094 323.050781 C 572.132812 315.019531 557.132812 303.515625 543.894531 289.964844 C 538.351562 300.316406 533.027344 310.265625 527.851562 319.925781 C 539.847656 331.535156 552.921875 341.503906 567.167969 348.199219 C 571.984375 340.441406 576.722656 333.394531 590.496094 323.050781 "/>
<path fill-rule="evenodd" fill="white" fill-opacity="1" d="M 503.1875 237.796875 C 498.308594 230.726562 493.402344 223.5625 488.398438 216.484375 C 478.410156 202.359375 468.203125 189.011719 457.792969 176.628906 C 451.308594 186.964844 445.308594 196.953125 439.722656 206.640625 C 448.429688 216.984375 456.703125 227.683594 464.371094 238.546875 C 470.710938 247.53125 477.609375 257.730469 485.113281 268.285156 C 485.113281 268.285156 495.914062 249.265625 503.1875 237.796875 "/>
<path fill-rule="evenodd" fill="white" fill-opacity="1" d="M 287.054688 80.824219 C 339.941406 77.894531 388.714844 104.683594 433.636719 150.046875 C 427.222656 160.171875 421.183594 170.160156 415.570312 179.988281 C 382.246094 145.941406 346.910156 120.59375 322.394531 117.894531 C 318.082031 99.789062 304.9375 86.09375 287.054688 80.824219 "/>
<path fill-rule="evenodd" fill="white" fill-opacity="1" d="M 596.394531 426.445312 C 556.90625 429.695312 521.4375 412.011719 491.488281 387.265625 C 496.421875 377.917969 501.472656 368.464844 507.027344 358.574219 C 525.140625 374.839844 544.222656 387.148438 562.003906 389.65625 C 567.074219 406.324219 577.691406 419.53125 596.394531 426.445312 "/>
<path fill-rule="evenodd" fill="white" fill-opacity="1" d="M 446.367188 341.15625 C 431.210938 322.601562 418.792969 304.304688 409.582031 290.179688 C 391.042969 261.753906 375.238281 241.300781 361.511719 226.429688 C 367.058594 217.429688 372.832031 208.371094 378.835938 199.257812 C 398.847656 219.324219 417.8125 244.15625 433.417969 268.695312 C 440.121094 279.234375 450.363281 294.21875 462.753906 310.078125 C 457.875 319.023438 450.78125 332.644531 446.367188 341.15625 "/>
<path fill-rule="evenodd" fill="white" fill-opacity="1" d="M 287.140625 181.863281 C 300.550781 185.597656 315.851562 187.484375 337.238281 203.871094 C 343.121094 194.835938 348.773438 186.128906 354.28125 177.640625 C 341.542969 168.070312 328.765625 161.148438 316.480469 158.070312 C 311.566406 167.804688 299.492188 178.335938 287.140625 181.863281 "/>
<path fill-rule="evenodd" fill="white" fill-opacity="1" d="M 722.152344 149.285156 C 738.421875 119.148438 753.675781 91.15625 757.042969 85.953125 C 767.511719 69.757812 782.640625 82.492188 774.265625 96.246094 C 777.078125 91.625 778.292969 88.558594 780.894531 84.8125 C 789.457031 72.484375 805.933594 81.644531 797.597656 96.761719 C 795.277344 100.976562 788.019531 115.136719 785.132812 119.964844 C 806.707031 83.898438 822.960938 78.371094 840.179688 78.371094 C 868.753906 78.371094 882.4375 96.835938 882.4375 117.460938 C 882.4375 141.148438 863.234375 157.492188 845.933594 157.492188 C 824.203125 157.492188 812.210938 141.820312 812.210938 125.546875 C 812.210938 116.296875 816.203125 108.492188 822.425781 103.476562 C 819.59375 105.757812 811.066406 113.878906 804.644531 125.648438 C 795.15625 143.035156 780.675781 170.921875 766.453125 197.816406 C 755.949219 183.910156 735.484375 161.011719 722.152344 149.285156 "/>
<path fill-rule="evenodd" fill="white" fill-opacity="1" d="M 701.339844 187.945312 C 690.441406 208.25 681.476562 225.023438 678.523438 230.535156 C 666.460938 228.078125 652.910156 236.152344 653.019531 249.109375 C 652.933594 238.980469 664.023438 223.238281 676.667969 209.625 C 666.8125 200.816406 656.25 192.636719 643.058594 186.820312 C 622.863281 211.882812 614.882812 230.558594 614.882812 247.910156 C 614.882812 279.078125 636.8125 305.335938 665.800781 305.335938 C 694.789062 305.335938 712.339844 290.4375 727.171875 268.328125 C 731.128906 262.429688 737.066406 252.128906 744.019531 239.515625 C 734.292969 225.460938 715.605469 201.371094 701.339844 187.945312 "/>
<path fill-rule="evenodd" fill="white" fill-opacity="1" d="M 778.875 288.195312 C 788.367188 274.847656 797 262.847656 804.828125 253.40625 C 774.484375 206.480469 740.0625 157.628906 696.941406 130.527344 C 686.140625 139.195312 675.351562 150.078125 665.191406 161.222656 C 714.019531 184.355469 757.601562 263.222656 778.875 288.195312 "/>
<path fill-rule="evenodd" fill="white" fill-opacity="1" d="M 477.277344 88.953125 C 472.046875 84.183594 460.980469 78.371094 452.195312 78.371094 C 439.574219 78.371094 429.175781 81.675781 417.5 97.460938 C 429.402344 98.851562 445.996094 106.78125 454.796875 115.152344 C 463.730469 102.292969 470.296875 94.9375 477.277344 88.953125 "/>
<path fill-rule="evenodd" fill="white" fill-opacity="1" d="M 614.613281 411.78125 C 595.058594 411.78125 579.179688 395.902344 579.179688 376.347656 C 579.179688 356.792969 595.058594 340.914062 614.613281 340.914062 C 634.171875 340.914062 650.050781 356.792969 650.050781 376.347656 C 650.050781 395.902344 634.171875 411.78125 614.613281 411.78125 "/>
<path fill-rule="evenodd" fill="white" fill-opacity="1" d="M 269.699219 411.78125 C 250.144531 411.78125 234.265625 395.902344 234.265625 376.347656 C 234.265625 356.792969 250.144531 340.914062 269.699219 340.914062 C 289.257812 340.914062 305.132812 356.792969 305.132812 376.347656 C 305.132812 395.902344 289.257812 411.78125 269.699219 411.78125 "/>
<path fill-rule="evenodd" fill="white" fill-opacity="1" d="M 1013.832031 364.996094 C 1018.535156 380.957031 1011.515625 401.742188 1002.429688 410.625 C 1033.539062 411.167969 1107.367188 406.882812 1132.886719 400.621094 C 1098.753906 408.996094 1031.457031 375.667969 1013.832031 364.996094 M 1127.800781 344.222656 C 1146.179688 359.9375 1155.75 381.46875 1149.070312 416.476562 C 1088.859375 428.960938 993.53125 429.488281 959.480469 429.488281 C 929.140625 429.488281 905.394531 408.527344 905.394531 377.308594 C 905.394531 349.480469 926.335938 323.359375 959.480469 323.359375 C 987.09375 323.359375 1018.582031 347.394531 1058.066406 366.433594 C 1074.339844 374.285156 1094.019531 380.617188 1113.152344 385.199219 C 1112.953125 380.957031 1109.972656 376.921875 1105.128906 372.980469 C 1113.609375 364.476562 1123 352.4375 1127.800781 344.222656 "/>
<path fill-rule="evenodd" fill="white" fill-opacity="1" d="M 906.519531 146.160156 C 912.5625 176.402344 942.671875 191.597656 969.96875 186.972656 C 965.1875 198.511719 960.871094 211.992188 960.78125 222.738281 C 941.871094 225.242188 914.726562 239.695312 902.148438 260.035156 C 914.726562 239.695312 908.558594 223.667969 896.929688 215.792969 C 890.347656 211.335938 869.441406 204.441406 856.835938 224.882812 C 876.554688 192.90625 893.457031 165.710938 906.519531 146.160156 M 852.714844 263.898438 C 861.878906 249.019531 868.578125 238.238281 870.128906 235.890625 C 874.375 229.460938 880.074219 227.765625 885.347656 230.476562 C 890.589844 233.171875 893.550781 240.40625 889.5625 246.894531 C 884.40625 255.289062 846.960938 313.886719 828.703125 342.542969 C 836.582031 349.746094 844.667969 356.847656 853.582031 363.507812 C 868.183594 340.605469 897.851562 294.207031 905.429688 284.152344 C 914.199219 272.519531 937.15625 240.101562 977.746094 239.335938 C 976.800781 224.976562 978.832031 210.800781 991.421875 186.226562 C 997.78125 173.816406 1014.832031 155.046875 1014.832031 131.515625 C 1014.832031 107.980469 997.609375 78.367188 960.5625 78.367188 C 936.414062 78.367188 918.6875 90.878906 905.394531 110.5625 C 898.710938 120.460938 864.484375 176.867188 830.253906 233.5625 C 835.382812 241.039062 846.328125 255.523438 852.714844 263.898438 "/>
<path fill-rule="evenodd" fill="white" fill-opacity="1" d="M 1033.808594 118.761719 C 1044.222656 118.761719 1052.679688 127.15625 1052.679688 137.496094 C 1052.679688 147.835938 1044.222656 156.230469 1033.808594 156.230469 C 1023.390625 156.230469 1014.933594 147.835938 1014.933594 137.496094 C 1014.933594 127.15625 1023.390625 118.761719 1033.808594 118.761719 "/>
<path fill-rule="evenodd" fill="white" fill-opacity="1" d="M 884.234375 340.683594 C 894.652344 340.683594 903.105469 349.078125 903.105469 359.417969 C 903.105469 369.757812 894.652344 378.152344 884.234375 378.152344 C 873.820312 378.152344 865.363281 369.757812 865.363281 359.417969 C 865.363281 349.078125 873.820312 340.683594 884.234375 340.683594 "/>
<path fill-rule="evenodd" fill="white" fill-opacity="1" d="M 959.480469 340.910156 C 979.035156 340.910156 994.914062 356.785156 994.914062 376.34375 C 994.914062 395.898438 979.035156 411.777344 959.480469 411.777344 C 939.921875 411.777344 924.046875 395.898438 924.046875 376.34375 C 924.046875 356.785156 939.921875 340.910156 959.480469 340.910156 "/>
<path fill-rule="evenodd" fill="white" fill-opacity="1" d="M 812.226562 263.4375 C 783.695312 310.757812 758.71875 352.3125 754.5 359.21875 C 735.152344 390.871094 718.875 407.625 688.9375 398.976562 C 691.582031 420.789062 708.433594 429.488281 721.132812 429.488281 C 743.535156 429.488281 759.660156 418.894531 784.273438 376.816406 C 795.503906 357.613281 816.691406 322.691406 835.246094 292.359375 C 828.324219 283.882812 817.347656 270.703125 812.226562 263.4375 "/>
<path fill-rule="evenodd" fill="white" fill-opacity="1" d="M 811.359375 372.882812 C 808.667969 379.78125 807.355469 386.3125 807.355469 392.753906 C 807.355469 411.523438 821.246094 434.386719 857.960938 424.878906 C 850.816406 416.527344 842.476562 409.808594 841.339844 396.316406 C 835.65625 392.738281 820.382812 381.09375 811.359375 372.882812 "/>
<path fill-rule="evenodd" fill="white" fill-opacity="1" d="M 980.480469 81.214844 C 1022.222656 77.042969 1064.25 90.234375 1096.445312 117.421875 C 1088.992188 123.355469 1080.53125 129.050781 1071.355469 134.582031 C 1053.777344 120.445312 1032.917969 111.472656 1010.542969 110.5625 C 1005.207031 97.875 994.300781 86.707031 980.480469 81.214844 "/>
<path fill-rule="evenodd" fill="white" fill-opacity="1" d="M 1097.226562 380.90625 C 1121.140625 357.789062 1153.644531 319.992188 1153.644531 247.03125 C 1153.644531 197.636719 1135.894531 157.300781 1108.457031 128.683594 C 1100.125 134.960938 1092.386719 139.917969 1083.535156 145.773438 C 1108.847656 172.011719 1124.90625 209.585938 1124.90625 247.03125 C 1124.90625 313.722656 1087.023438 350.785156 1062.507812 368.511719 C 1073.257812 373.210938 1083.953125 377.046875 1097.226562 380.90625 "/>
<path fill-rule="evenodd" fill="white" fill-opacity="1" d="M 1026.082031 196.402344 C 1017.898438 188.820312 1007.730469 182.859375 995.679688 179.003906 C 1001.625 169.695312 1007.667969 160.316406 1010.542969 152.492188 C 1027.839844 158.726562 1042.460938 169.65625 1053.6875 183.355469 C 1042.90625 186.085938 1033.75 190.253906 1026.082031 196.402344 "/>
<path fill-rule="evenodd" fill="white" fill-opacity="1" d="M 1037.542969 291.875 C 1045.324219 280.566406 1050.101562 267.628906 1050.101562 254.195312 C 1050.101562 244.257812 1048.523438 234.777344 1045.449219 226.039062 C 1053.960938 220.367188 1063.382812 217.949219 1073.152344 218.71875 C 1076.917969 229.984375 1078.90625 241.835938 1078.90625 253.683594 C 1078.90625 276.4375 1072.941406 294.425781 1062.320312 310.113281 C 1053.871094 306.5625 1043.132812 298.769531 1037.542969 291.875 "/>
<path fill-rule="evenodd" fill="white" fill-opacity="1" d="M 984.820312 328.804688 C 993.742188 326.554688 1002.570312 322.652344 1010.707031 317.476562 C 1017.792969 324.714844 1026.09375 332.125 1036.671875 337.917969 C 1032.59375 341.398438 1028.269531 344.832031 1023.71875 348.257812 C 1013.542969 342.859375 999.515625 334.511719 984.820312 328.804688 "/>
<path fill-rule="evenodd" fill="white" fill-opacity="1" d="M 1127.910156 153.539062 C 1141.398438 143.972656 1153.59375 132.171875 1153.59375 111.28125 C 1153.59375 96.71875 1142.824219 83.429688 1119.851562 78.367188 C 1116.933594 114.023438 1080.214844 125.953125 1049.449219 149.625 C 1043.734375 154.027344 1038.019531 158.726562 1032.507812 163.792969 C 1036.683594 166.804688 1040.722656 169.964844 1044.464844 173.472656 C 1050.828125 168.027344 1057.996094 162.644531 1065.90625 157.28125 C 1093.945312 138.277344 1126.761719 121.597656 1130.386719 99.691406 C 1135.113281 103.003906 1136.296875 108.234375 1136.296875 112.589844 C 1136.296875 125.742188 1128.722656 133.847656 1118.929688 140.820312 C 1121.914062 144.605469 1125.261719 149.183594 1127.910156 153.539062 "/>
<path fill-rule="evenodd" fill="white" fill-opacity="1" d="M 1103.050781 171.148438 C 1093.640625 179.621094 1088.933594 190.117188 1096.304688 207.238281 C 1111.851562 216.15625 1124.511719 233.019531 1124.511719 256.753906 C 1124.511719 273.019531 1110.535156 281.699219 1099.730469 281.699219 C 1088.929688 281.699219 1079.457031 273.113281 1079.457031 263.199219 C 1079.457031 249.125 1088.605469 245.035156 1094.957031 245.035156 C 1101.308594 245.035156 1106.464844 248.699219 1106.464844 254.710938 C 1106.464844 257.617188 1104.730469 262.210938 1099.609375 262.960938 C 1104.804688 262.199219 1106.464844 259.023438 1106.464844 254.710938 C 1106.464844 240.183594 1095.640625 218.59375 1069.75 218.59375 C 1043.859375 218.59375 1026.242188 240.609375 1026.242188 260.964844 C 1026.242188 286.449219 1044.085938 302.964844 1069.746094 313.421875 C 1081.097656 318.042969 1091.984375 322.601562 1101.894531 327.621094 C 1095.144531 337.511719 1087.035156 347.324219 1076.738281 357.003906 C 1066.660156 352.308594 1055.691406 347.515625 1045.425781 342.53125 C 1007.03125 323.894531 988.070312 294.296875 988.070312 256.59375 C 988.070312 227.78125 997.894531 204.878906 1012.015625 186.125 C 1016.042969 188.621094 1020.070312 191.394531 1024.101562 194.671875 C 1022.003906 197.46875 1020.117188 200.289062 1018.449219 203.136719 C 1033.292969 187.882812 1056.140625 179.449219 1076.433594 181.863281 C 1079.121094 171.121094 1085.757812 163.660156 1093.6875 157.511719 C 1097.179688 161.742188 1100.570312 167.21875 1103.050781 171.148438 "/>
<path fill-rule="evenodd" fill="white" fill-opacity="1" d="M 482.652344 208.316406 C 478.113281 202.105469 473.640625 196.195312 470.207031 191.972656 C 487.402344 168.410156 506.882812 143.398438 528.9375 122.132812 C 564.507812 87.839844 591.332031 78.367188 614.566406 78.367188 C 645.511719 78.367188 668.933594 103.28125 668.933594 131.511719 C 668.933594 173.597656 631.476562 187.867188 606.601562 207.304688 C 573.109375 193.734375 537.042969 198.414062 498.523438 231.042969 C 495.679688 226.699219 491.789062 221.054688 487.636719 215.226562 C 521.871094 186.757812 559.804688 172.550781 602.113281 184.953125 C 568.230469 175.023438 555.09375 146.078125 560.890625 119.609375 C 530.222656 145.085938 505.347656 177.117188 482.652344 208.316406 "/>
<path fill-rule="evenodd" fill="white" fill-opacity="1" d="M 638.683594 184.808594 C 657.046875 192.839844 672.046875 204.34375 685.285156 217.898438 C 690.824219 207.546875 696.152344 197.597656 701.328125 187.9375 C 689.332031 176.328125 676.257812 166.359375 662.007812 159.664062 C 657.195312 167.421875 652.457031 174.46875 638.683594 184.808594 "/>
<path fill-rule="evenodd" fill="white" fill-opacity="1" d="M 725.992188 270.0625 C 730.871094 277.136719 735.777344 284.300781 740.78125 291.378906 C 750.769531 305.503906 760.976562 318.851562 771.386719 331.234375 C 777.871094 320.898438 783.871094 310.910156 789.457031 301.222656 C 780.75 290.875 772.476562 280.179688 764.808594 269.316406 C 758.46875 260.332031 751.570312 250.132812 744.0625 239.578125 C 744.0625 239.578125 733.265625 258.597656 725.992188 270.0625 "/>
<path fill-rule="evenodd" fill="white" fill-opacity="1" d="M 942.125 427.035156 C 889.242188 429.96875 840.464844 403.179688 795.542969 357.816406 C 801.957031 347.691406 807.996094 337.703125 813.605469 327.875 C 846.933594 361.921875 882.269531 387.269531 906.78125 389.96875 C 911.097656 408.074219 924.242188 421.773438 942.125 427.035156 "/>
<path fill-rule="evenodd" fill="white" fill-opacity="1" d="M 632.785156 81.417969 C 672.273438 78.167969 707.738281 95.851562 737.691406 120.597656 C 732.757812 129.945312 727.707031 139.398438 722.152344 149.285156 C 704.039062 133.023438 684.957031 120.714844 667.175781 118.207031 C 662.105469 101.539062 651.488281 88.332031 632.785156 81.417969 "/>
<path fill-rule="evenodd" fill="white" fill-opacity="1" d="M 782.8125 166.707031 C 797.96875 185.257812 810.386719 203.554688 819.597656 217.683594 C 838.136719 246.109375 853.9375 266.5625 867.667969 281.433594 C 862.121094 290.433594 856.347656 299.488281 850.34375 308.605469 C 830.332031 288.535156 811.367188 263.707031 795.761719 239.171875 C 789.058594 228.628906 778.816406 213.644531 766.429688 197.785156 C 771.304688 188.839844 778.398438 175.214844 782.8125 166.707031 "/>
<path fill-rule="evenodd" fill="white" fill-opacity="1" d="M 942.039062 326 C 928.628906 322.261719 913.328125 320.378906 891.941406 303.992188 C 886.058594 313.027344 880.40625 321.730469 874.898438 330.222656 C 887.636719 339.792969 900.414062 346.714844 912.699219 349.789062 C 917.613281 340.054688 929.6875 329.523438 942.039062 326 "/>
<path fill-rule="evenodd" fill="white" fill-opacity="1" d="M 507.027344 358.574219 C 490.757812 388.714844 475.503906 416.707031 472.136719 421.910156 C 461.667969 438.101562 446.539062 425.371094 454.914062 411.617188 C 452.101562 416.238281 450.886719 419.304688 448.285156 423.050781 C 439.722656 435.378906 423.246094 426.21875 431.582031 411.101562 C 433.902344 406.886719 441.160156 392.726562 444.046875 387.898438 C 422.472656 423.96875 406.21875 429.488281 389 429.488281 C 360.425781 429.488281 346.742188 411.027344 346.742188 390.398438 C 346.742188 366.714844 365.945312 350.371094 383.246094 350.371094 C 404.976562 350.371094 416.96875 366.042969 416.96875 382.316406 C 416.96875 391.5625 412.976562 399.371094 406.753906 404.386719 C 409.585938 402.105469 418.113281 393.984375 424.535156 382.214844 C 434.023438 364.828125 448.503906 336.9375 462.726562 310.042969 C 473.230469 323.953125 493.695312 346.851562 507.027344 358.574219 "/>
<path fill-rule="evenodd" fill="white" fill-opacity="1" d="M 527.839844 319.917969 C 538.738281 299.613281 547.703125 282.839844 550.65625 277.328125 C 562.71875 279.78125 576.269531 271.710938 576.160156 258.753906 C 576.246094 268.882812 565.15625 284.625 552.511719 298.238281 C 562.367188 307.046875 572.929688 315.222656 586.121094 321.042969 C 606.316406 295.980469 614.296875 277.308594 614.296875 259.953125 C 614.296875 228.785156 592.367188 202.527344 563.378906 202.527344 C 534.390625 202.527344 516.839844 217.425781 502.007812 239.535156 C 498.046875 245.433594 492.113281 255.730469 485.160156 268.347656 C 494.886719 282.398438 513.574219 306.492188 527.839844 319.917969 "/>
<path fill-rule="evenodd" fill="white" fill-opacity="1" d="M 450.304688 219.667969 C 440.8125 233.015625 432.179688 245.015625 424.351562 254.457031 C 454.695312 301.378906 489.117188 350.234375 532.238281 377.335938 C 543.039062 368.667969 553.828125 357.785156 563.988281 346.640625 C 515.160156 323.503906 471.578125 244.640625 450.304688 219.667969 "/>
<path fill-rule="evenodd" fill="white" fill-opacity="1" d="M 751.902344 418.910156 C 757.128906 423.679688 768.199219 429.492188 776.984375 429.492188 C 789.605469 429.492188 800.003906 426.1875 811.679688 410.402344 C 799.777344 409.007812 783.179688 401.082031 774.382812 392.710938 C 765.449219 405.570312 758.882812 412.921875 751.902344 418.910156 "/>
<path fill-rule="evenodd" fill="white" fill-opacity="1" d="M 614.566406 96.082031 C 634.121094 96.082031 650 111.957031 650 131.515625 C 650 151.070312 634.121094 166.949219 614.566406 166.949219 C 595.007812 166.949219 579.128906 151.070312 579.128906 131.515625 C 579.128906 111.957031 595.007812 96.082031 614.566406 96.082031 "/>
<path fill-rule="evenodd" fill="white" fill-opacity="1" d="M 959.480469 96.082031 C 979.035156 96.082031 994.914062 111.957031 994.914062 131.515625 C 994.914062 151.070312 979.035156 166.949219 959.480469 166.949219 C 939.921875 166.949219 924.046875 151.070312 924.046875 131.515625 C 924.046875 111.957031 939.921875 96.082031 959.480469 96.082031 "/>
<path fill="none" stroke-width="6" stroke-linecap="round" stroke-linejoin="round" stroke="rgb(0%, 0%, 0%)" stroke-opacity="1" stroke-miterlimit="10" d="M -0.000841206 0.00155527 C -6.328227 4.87419 -11.803097 7.111065 -17.493052 8.131738 M 12.46622 12.585936 C 7.229898 17.356894 -3.848893 23.175899 -12.643881 23.175899 C -25.279099 23.175899 -35.689174 19.867513 -47.378022 4.064691 C -35.462358 2.67251 -18.846127 -5.266052 -10.039407 -13.646514 M -61.385868 -21.452115 C -59.579161 -12.883943 -60.306537 -4.675548 -65.175261 1.847369 M -137.944107 -146.470777 C -124.30777 -128.172978 -91.681454 -77.409199 -76.547348 -53.120329 M -76.977517 -157.533925 C -83.394847 -167.834502 -88.842343 -176.308819 -92.584808 -181.66246 M 45.467956 8.104363 C 29.923235 8.882577 13.134937 -7.800135 -4.415933 -36.953819 C -15.635506 -55.595752 -38.692531 -94.666772 -59.113797 -128.388062 M 200.590583 -59.768385 C 210.76211 -48.607471 221.563247 -37.71639 232.376115 -29.038721 M 279.506927 -138.145063 C 272.54602 -150.776371 266.601876 -161.08868 262.640416 -166.993719 C 247.791786 -189.127837 230.221363 -204.042948 201.20064 -204.042948 C 172.179917 -204.042948 150.225688 -177.755749 150.225688 -146.5529 C 150.225688 -129.181919 158.215087 -110.481326 178.433001 -85.394689 M 340.199774 -24.150444 C 330.704785 -41.560531 316.2042 -69.478459 301.965627 -96.403088 M 273.140435 -62.896883 C 289.420353 -32.190682 306.728764 0.682003 309.78687 5.280894 M 243.634795 -117.348378 C 245.034798 -115.123234 247.979496 -109.800878 251.90967 -102.554496 M 288.01644 -79.333225 C 302.149426 -52.541557 316.861184 -24.596255 320.666219 -18.4644 M 259.163873 -132.943937 C 260.133708 -131.500917 262.718628 -126.855099 266.300758 -120.222685 M 376.897047 -15.543166 C 371.402624 -14.495119 367.683623 -17.768309 367.683623 -23.927538 C 367.683623 -30.086767 372.38419 -35.018061 381.664095 -35.018061 C 390.944 -35.018061 397.709375 -26.485085 397.709375 -16.64205 C 397.709375 -4.37443 387.193714 4.06078 375.281961 4.06078 C 363.370207 4.06078 353.933877 -2.067164 340.199774 -24.150444 M 236.779475 -86.520948 C 225.868841 -106.848359 216.893965 -123.640568 213.937535 -129.158455 C 202.225223 -126.190293 188.295589 -134.781929 188.405086 -147.753461 C 188.319052 -137.609308 199.417397 -121.853414 212.079989 -108.224897 M 375.281961 4.06078 C 360.143944 4.06078 347.774648 -7.761029 347.774648 -24.052678 C 347.774648 -40.344328 359.780256 -56.033742 381.535044 -56.033742 C 398.855187 -56.033742 418.079803 -39.671701 418.079803 -15.957691 C 418.079803 4.690391 404.380896 23.175899 375.774699 23.175899 C 358.536679 23.175899 342.264582 17.642369 320.666219 -18.4644 C 323.556169 -13.630872 330.822104 0.545132 333.148923 4.764692 C 341.490279 19.898798 324.995277 29.069206 316.423195 16.727284 C 313.818721 12.980908 312.602518 9.90716 309.78687 5.280894 C 318.171243 19.050193 303.025405 31.798819 292.544939 15.585382 C 289.173984 10.376434 273.903006 -17.64708 257.615267 -47.817526 M 217.977207 -70.546058 C 223.131406 -65.129847 228.043147 -60.132073 232.020249 -56.27229 C 251.456038 -68.258345 292.771755 -112.151162 315.594143 -152.055144 M 209.369929 -147.006532 C 212.205129 -147.479717 216.600668 -149.76352 216.600668 -156.255152 C 216.600668 -162.746784 210.187248 -166.575282 204.399529 -166.575282 C 197.344767 -166.575282 188.377712 -159.332811 188.377712 -148.824971 C 188.377712 -138.317131 195.569345 -129.150634 209.545907 -129.150634 C 223.522468 -129.150634 235.997351 -140.428866 235.997351 -156.403756 C 235.997351 -172.382555 221.238665 -185.608278 202.561536 -185.608278 C 185.827987 -185.608278 168.402257 -171.283671 168.402257 -147.753461 C 168.402257 -131.285833 178.945293 -117.375752 188.401176 -104.46679 C 190.360397 -101.791925 193.027441 -98.812031 195.843088 -95.448897 M -110.667522 -76.204728 C -123.420059 -66.623705 -136.211702 -59.694083 -148.510607 -56.612514 M 97.287603 -288.457626 C 48.608185 -281.586664 -9.80868 -201.375904 -31.442239 -167.357407 C -47.065172 -142.794792 -66.05124 -117.934971 -86.085354 -97.846108 M -49.309869 -78.555011 C -82.671382 -44.470034 -118.046865 -19.09401 -142.589926 -16.39177 M 102.457445 -246.954199 C 57.547866 -225.848574 24.311493 -172.273058 -0.454473 -137.17914 C -8.131024 -126.303701 -16.41372 -115.592509 -25.130496 -105.237183 M 282.076205 -198.165284 C 259.335941 -229.422882 234.41746 -261.525175 203.691706 -287.053713 C 209.495068 -260.555341 196.343648 -231.577635 162.422916 -221.636834 C 204.810144 -234.060879 242.813564 -219.806664 277.109716 -191.259126 M 315.594143 -152.055144 C 311.10866 -157.999289 306.603624 -164.150697 302.059482 -170.427245 M 314.401403 -186.88314 C 323.904214 -173.520546 332.546688 -161.507117 340.383573 -152.055144 M 266.12869 -175.4915 C 227.566051 -208.160832 191.459282 -212.845757 157.929612 -199.260258 C 133.026774 -218.7156 95.527823 -233.001101 95.527823 -275.134138 C 95.527823 -303.400111 118.979821 -328.342055 149.955855 -328.342055 C 173.216232 -328.342055 200.07047 -318.858798 235.680591 -284.52354 C 257.75996 -263.234116 277.25832 -238.198317 294.476786 -214.609447 M -142.324004 -260.473218 C -148.373735 -230.193275 -178.516807 -214.984867 -205.84423 -219.615043 C -201.057629 -208.063067 -196.736393 -194.567512 -196.646448 -183.809392 C -177.715129 -181.298773 -150.54022 -166.833383 -137.944107 -146.470777 C -150.54022 -166.833383 -144.365348 -182.874753 -132.723428 -190.762477 C -126.13403 -195.224496 -105.204383 -202.126743 -92.584808 -181.66246 C -112.325625 -213.674809 -129.246885 -240.900556 -142.324004 -260.473218 Z M -329.701438 -249.108951 C -321.762876 -242.953633 -315.11873 -235.480435 -312.428222 -224.730136 C -292.112543 -227.1469 -269.239317 -218.703868 -254.378955 -203.432891 C -256.04879 -206.283734 -257.937621 -209.107203 -260.037624 -211.907208 M -280.423695 -233.130151 C -286.794097 -238.577647 -293.970088 -243.970394 -301.889097 -249.339678 C -329.959539 -268.360941 -362.812671 -285.063206 -366.441727 -306.993972 C -371.17358 -303.677765 -372.358498 -298.441443 -372.358498 -294.0811 C -372.358498 -280.914037 -364.775803 -272.795586 -354.971874 -265.815127 M -272.622005 -68.500803 C -268.539316 -65.012529 -264.210258 -61.575092 -259.654383 -58.149388 M -309.1433 -187.829511 C -312.913139 -176.555189 -314.903645 -164.690363 -314.903645 -152.829447 C -314.903645 -130.050077 -308.932126 -112.041664 -298.299146 -96.336608 M -246.463857 -254.1341 C -263.776179 -247.892748 -278.417546 -236.950829 -289.656672 -223.236279 M -319.537732 -260.856458 C -344.87856 -234.588813 -360.955125 -196.976455 -360.955125 -159.485325 C -360.955125 -92.723193 -323.029917 -55.619216 -298.486856 -37.872815 M -246.463857 -296.110712 C -268.863897 -295.199537 -289.746617 -286.21684 -307.348325 -272.060389 M -353.036117 -46.976742 C -364.525523 -36.902981 -370.551791 -24.412455 -368.944525 -5.727505 M -243.178935 -148.148433 C -243.178935 -120.969613 -257.687341 -94.635487 -293.105841 -78.707526 C -305.318712 -73.213102 -316.581302 -68.383485 -326.502549 -63.506939 M -249.7566 -41.388464 C -254.464989 -25.409664 -247.437602 -4.605157 -238.341496 4.291507 C -269.481776 4.827262 -343.396434 0.541221 -368.944525 -5.727505 C -334.773514 2.656867 -267.401325 -30.704646 -249.7566 -41.388464 Z M -339.075198 -235.456971 C -329.65451 -226.974833 -324.777965 -216.732915 -332.145576 -199.96417 C -326.326571 -203.198254 -315.591915 -206.846864 -306.073462 -206.651332 C -275.343797 -206.025633 -243.178935 -186.601576 -243.178935 -148.148433 C -243.178935 -186.601576 -275.727038 -206.651332 -306.073462 -206.651332 C -330.467919 -206.651332 -360.560153 -186.366938 -360.560153 -149.755699 C -360.560153 -133.471871 -346.567949 -124.782469 -335.751169 -124.782469 C -324.9383 -124.782469 -315.455043 -133.378016 -315.455043 -143.299263 C -315.455043 -157.393143 -324.613719 -161.487564 -330.97239 -161.487564 C -337.32715 -161.487564 -342.493081 -157.819401 -342.493081 -151.800954 C -342.493081 -148.891451 -340.756765 -144.29256 -335.62994 -143.541721 C -340.831067 -144.304292 -342.493081 -147.483628 -342.493081 -151.800954 C -342.493081 -166.344556 -331.656748 -187.958561 -305.737148 -187.958561 C -279.817548 -187.958561 -262.180645 -165.918298 -262.180645 -145.536138 C -262.180645 -120.027153 -280.044365 -103.489135 -305.733238 -93.024311 C -317.097504 -88.398046 -327.996407 -83.83044 -337.917654 -78.809202 M -268.453282 -242.816761 C -273.971169 -247.892748 -279.688498 -252.597226 -285.413648 -257.000586 C -316.213704 -280.702863 -352.973547 -292.645901 -355.894781 -328.342055 C -378.893147 -323.27389 -389.67473 -309.969955 -389.67473 -295.391158 C -389.67473 -274.477153 -377.46577 -262.659255 -363.962393 -253.086053 M -312.73325 -49.389596 C -302.643847 -54.090163 -291.662821 -58.892406 -281.385708 -63.878449 C -242.948208 -82.539935 -223.966051 -112.170715 -223.966051 -149.912124 C -223.966051 -178.760779 -233.801264 -201.688754 -247.938161 -220.463648 M -363.852896 -62.18906 C -382.252371 -46.456629 -391.833394 -24.901283 -385.146231 10.149618 C -324.87182 22.644054 -229.4331 23.175899 -195.344211 23.175899 C -164.970413 23.175899 -141.197745 2.187593 -141.197745 -29.066095 C -141.197745 -56.925363 -162.162587 -83.07569 -195.344211 -83.07569 C -222.988395 -83.07569 -254.515827 -59.013635 -294.040479 -39.949355 C -310.332129 -32.092916 -330.03384 -25.753799 -349.188065 -21.166639 C -348.988623 -25.409664 -346.004819 -29.453247 -341.155648 -33.399064 M -31.223244 -48.580097 C -76.195392 -3.162138 -125.023414 23.656905 -177.96932 20.720029 M 38.405374 -136.4283 C 33.524918 -129.350075 28.609266 -122.177995 23.59976 -115.091949 C 13.600301 -100.951141 3.381846 -87.588547 -7.03996 -75.191877 M 125.811677 -221.777617 C 107.427845 -213.737379 92.411058 -202.224509 79.157961 -188.654652 M -127.729564 -102.464552 C -149.140217 -86.059494 -164.458122 -84.170664 -177.883286 -80.43211 M -18.478528 -239.899437 C -33.65174 -221.327895 -46.083606 -203.014454 -55.304852 -188.869736 C -73.864662 -160.412143 -89.683126 -139.936128 -103.428961 -125.048392 M 131.716715 -325.28786 C 92.184242 -328.541497 56.675798 -310.838113 26.693062 -286.064325 M -246.628103 -88.965086 C -238.478368 -83.783512 -229.644273 -79.872891 -220.712414 -77.620373 M -281.409171 -180.504916 C -284.486831 -171.756856 -286.066722 -162.265777 -286.066722 -152.317156 C -286.066722 -138.868528 -281.284032 -125.91655 -273.494073 -114.5953 M -231.583942 -227.592711 C -243.648209 -223.732928 -253.827557 -217.765319 -262.02031 -210.170892 M -344.487498 -277.969339 C -371.955704 -249.320125 -389.725568 -208.939046 -389.725568 -159.485325 C -389.725568 -86.446646 -357.185286 -48.603561 -333.244461 -25.464413 M -216.367713 -325.491212 C -258.156615 -329.667756 -300.230993 -316.461587 -332.462336 -289.23975 M -47.057351 -33.496829 C -44.362933 -26.590672 -43.052874 -20.048202 -43.052874 -13.599587 C -43.052874 5.18704 -56.955134 28.075908 -93.711067 18.557455 C -86.55854 10.196546 -78.209363 3.474187 -77.071372 -10.03701 M -88.459102 -142.603172 C -97.63342 -157.49873 -104.340136 -168.292045 -105.892653 -170.642329 C -110.143499 -177.079212 -115.849095 -178.776422 -121.128435 -176.06245 C -126.376489 -173.364121 -129.34074 -166.11774 -125.347995 -159.622197 C -120.182064 -151.218271 -82.698756 -92.558947 -64.420511 -63.870627 M -47.925509 -143.064625 C -19.362329 -95.691355 5.642186 -54.090163 9.865657 -47.176184 C 29.234966 -15.484506 45.530526 1.284239 75.50153 -7.373877 C 72.85795 14.463034 55.983618 23.175899 43.270187 23.175899 C 20.842772 23.175899 4.699726 12.566382 -19.941101 -29.558833 C -31.184138 -48.779539 -52.395349 -83.740496 -70.970802 -114.110383 M -89.32726 -42.882321 C -103.945163 -65.806385 -133.646334 -112.260659 -141.23294 -122.322688 C -150.012286 -133.97243 -172.995009 -166.426679 -213.630278 -167.193161 C -212.683907 -181.568606 -214.717431 -195.760251 -227.321364 -220.361972 C -233.687856 -232.786017 -250.757719 -251.572643 -250.757719 -275.134138 C -250.757719 -298.695633 -233.515789 -328.342055 -196.427453 -328.342055 C -172.251991 -328.342055 -154.50559 -315.816334 -141.197745 -296.110712 C -134.506671 -286.201197 -100.241805 -229.731821 -65.973028 -172.973059 M 149.955855 -310.607386 C 130.379283 -310.607386 114.482606 -294.71462 114.482606 -275.134138 C 114.482606 -255.557566 130.379283 -239.660889 149.955855 -239.660889 C 169.536337 -239.660889 185.429103 -255.557566 185.429103 -275.134138 C 185.429103 -294.71462 169.536337 -310.607386 149.955855 -310.607386 Z M -195.344211 -65.505267 C -214.920783 -65.505267 -230.81746 -49.612501 -230.81746 -30.032019 C -230.81746 -10.455447 -214.920783 5.44123 -195.344211 5.44123 C -175.763729 5.44123 -159.870963 -10.455447 -159.870963 -30.032019 C -159.870963 -49.612501 -175.763729 -65.505267 -195.344211 -65.505267 Z M -120.013907 -65.732083 C -130.443535 -65.732083 -138.90612 -57.328157 -138.90612 -46.976742 C -138.90612 -36.625327 -130.443535 -28.221401 -120.013907 -28.221401 C -109.58819 -28.221401 -101.121695 -36.625327 -101.121695 -46.976742 C -101.121695 -57.328157 -109.58819 -65.732083 -120.013907 -65.732083 Z M -269.755519 -287.902317 C -280.181236 -287.902317 -288.647732 -279.498392 -288.647732 -269.146976 C -288.647732 -258.795561 -280.181236 -250.391635 -269.755519 -250.391635 C -259.325891 -250.391635 -250.859396 -258.795561 -250.859396 -269.146976 C -250.859396 -279.498392 -259.325891 -287.902317 -269.755519 -287.902317 Z M -195.344211 -310.607386 C -214.920783 -310.607386 -230.81746 -294.71462 -230.81746 -275.134138 C -230.81746 -255.557566 -214.920783 -239.660889 -195.344211 -239.660889 C -175.763729 -239.660889 -159.870963 -255.557566 -159.870963 -275.134138 C -159.870963 -294.71462 -175.763729 -310.607386 -195.344211 -310.607386 Z M 299.865623 -305.159891 C 306.193009 -310.032525 311.667879 -312.273311 317.357833 -313.290073 M 287.398561 -317.744271 C 292.634884 -322.51914 303.713675 -328.334234 312.508663 -328.334234 C 325.143881 -328.334234 335.553956 -325.029759 347.242804 -309.226937 C 335.32714 -307.830845 318.710908 -299.896194 309.904189 -291.519642 M 361.25065 -283.70622 C 359.443943 -292.274392 360.171319 -300.486698 365.040043 -307.009615 M 437.8128 -158.691469 C 424.168641 -176.989268 391.546236 -227.753047 376.41213 -252.038007 M 376.842299 -147.62441 C 383.259629 -137.327743 388.707124 -128.853426 392.449589 -123.499785 M 254.396826 -313.266609 C 269.941547 -314.044823 286.733756 -297.362111 304.280715 -268.208427 C 315.500288 -249.566494 338.557313 -210.495474 358.978579 -176.774183 M 99.274199 -245.393861 C 89.102672 -256.554775 78.301535 -267.445856 67.488666 -276.123525 M 20.357855 -167.013272 C 27.318761 -154.385875 33.262906 -144.073566 37.224366 -138.168527 C 52.072996 -116.034409 69.643419 -101.115387 98.664142 -101.115387 C 127.684865 -101.115387 149.639094 -127.406496 149.639094 -158.609346 C 149.639094 -175.980327 141.649694 -194.68092 121.431781 -219.767557 M -40.334992 -281.011802 C -30.836093 -263.601715 -16.339418 -235.683787 -2.100845 -208.755247 M 26.724347 -242.265363 C 10.440518 -272.971564 -6.863982 -305.840339 -9.922088 -310.44314 M 56.229987 -187.813868 C 54.829984 -190.035101 51.885286 -195.357457 47.955111 -202.603839 M 11.848342 -225.829021 C -2.284644 -252.616779 -16.996403 -280.565991 -20.801437 -286.697846 M 40.700908 -172.218309 C 39.727164 -173.657418 37.146153 -178.307147 33.564024 -184.939561 M -77.032265 -289.61908 C -71.537842 -290.667127 -67.818841 -287.393937 -67.818841 -281.234708 C -67.818841 -275.071568 -72.519408 -270.144185 -81.799313 -270.144185 C -91.079218 -270.144185 -97.844594 -278.677161 -97.844594 -288.516285 C -97.844594 -300.787816 -87.328932 -309.223026 -75.417179 -309.223026 C -63.505425 -309.223026 -54.065185 -303.091172 -40.334992 -281.011802 M 63.085306 -218.641298 C 73.995941 -198.313887 82.970817 -181.521678 85.927247 -176.003791 C 97.639559 -178.971953 111.569193 -170.380317 111.459696 -157.408785 C 111.545729 -167.549027 100.443475 -183.308832 87.784792 -196.937348 M -75.417179 -309.223026 C -60.279163 -309.223026 -47.909866 -297.401217 -47.909866 -281.109568 C -47.909866 -264.817918 -59.915475 -249.128504 -81.670263 -249.128504 C -98.990406 -249.128504 -118.215022 -265.490545 -118.215022 -289.200644 C -118.215022 -309.852636 -104.516114 -328.334234 -75.909917 -328.334234 C -58.671897 -328.334234 -42.399801 -322.808526 -20.801437 -286.697846 C -23.691387 -291.531374 -30.957322 -305.707378 -33.280231 -309.926938 C -41.625498 -325.061044 -25.130496 -334.231452 -16.558413 -321.88953 C -13.953939 -318.139244 -12.737736 -315.065495 -9.922088 -310.44314 C -18.306461 -324.212439 -3.160623 -336.957155 7.319842 -320.747628 C 10.690798 -315.53868 25.961776 -287.515166 42.249515 -257.34081 M 81.887575 -234.612277 C 76.733376 -240.032398 71.821635 -245.026262 67.844533 -248.889956 C 48.408744 -236.903901 7.093026 -193.011084 -15.729361 -153.103191 M 90.494853 -158.155714 C 87.659653 -157.682529 83.264114 -155.398726 83.264114 -148.907094 C 83.264114 -142.415462 89.677533 -138.586964 95.465253 -138.586964 C 102.520015 -138.586964 111.48707 -145.829435 111.48707 -156.337275 C 111.48707 -166.845115 104.295437 -176.011612 90.318875 -176.011612 C 76.342314 -176.011612 63.867431 -164.73338 63.867431 -148.75458 C 63.867431 -132.77969 78.626117 -119.553968 97.303245 -119.553968 C 114.036795 -119.553968 131.462525 -133.878575 131.462525 -157.408785 C 131.462525 -173.876413 120.919489 -187.786494 111.463606 -200.695456 C 109.504385 -203.36641 106.837341 -206.350215 104.021693 -209.713349 M 410.532304 -228.957518 C 423.284841 -238.538541 436.076484 -245.468162 448.375389 -248.549732 M 202.577179 -16.70462 C 251.256597 -23.571672 309.673462 -103.786342 331.307021 -137.804839 C 346.929954 -162.367454 365.916022 -187.227275 385.950136 -207.316138 M 349.17074 -226.603324 C 382.536164 -260.692212 417.911647 -286.068236 442.454708 -288.770475 M 197.403426 -58.204137 C 242.320826 -79.313672 275.553288 -132.889188 300.319255 -167.983106 C 307.995805 -178.858545 316.278502 -189.565827 324.995277 -199.925063 M 17.788576 -106.996962 C 40.528841 -75.735453 65.443411 -43.637071 96.173076 -18.108533 C 90.369713 -44.606905 103.521134 -73.584611 137.441865 -83.525411 C 95.054638 -71.101367 57.051217 -85.355582 22.755066 -113.90312 M -15.729361 -153.103191 C -11.243878 -147.162957 -6.738842 -141.007638 -2.1947 -134.731091 M -14.536622 -118.279106 C -24.039432 -131.6417 -32.681906 -143.655129 -40.518792 -153.103191 M 33.736091 -129.666836 C 72.298731 -97.001413 108.4055 -92.316489 141.93517 -105.898078 C 166.838008 -86.442735 204.336959 -72.157234 204.336959 -30.024197 C 204.336959 -1.762135 180.888871 23.179809 149.908927 23.179809 C 126.64855 23.179809 99.794311 13.696552 64.184191 -20.634795 C 42.104822 -41.924219 22.602552 -66.963929 5.391906 -90.552798 M 442.188785 -44.689028 C 448.238517 -74.965061 478.381588 -90.177379 505.709012 -85.547203 C 500.922411 -97.099179 496.601174 -110.594734 496.51123 -121.352854 C 477.579911 -123.859563 450.405001 -138.328863 437.8128 -158.691469 C 450.405001 -138.328863 444.23013 -122.283582 432.588209 -114.399769 C 425.998812 -109.93775 405.069165 -103.035503 392.449589 -123.499785 C 412.190407 -91.487437 429.111667 -64.261689 442.188785 -44.689028 Z M 629.566219 -56.053295 C 621.623747 -62.208613 614.983511 -69.6779 612.293004 -80.43211 C 591.977325 -78.015346 569.104099 -86.458378 554.243737 -101.729355 C 555.913572 -98.878512 557.802402 -96.051132 559.902406 -93.251127 M 580.288477 -72.032095 C 586.66279 -66.580688 593.83487 -61.191852 601.753879 -55.822568 C 629.82432 -36.797394 662.677452 -20.095129 666.306509 1.831726 C 671.038361 -1.484481 672.22328 -6.720803 672.22328 -11.077236 C 672.22328 -24.244299 664.640584 -32.362749 654.836656 -39.343209 M 572.486786 -236.661443 C 568.404098 -240.145806 564.07895 -243.583243 559.519165 -247.012858 M 609.008082 -117.328825 C 612.777921 -128.603147 614.768427 -140.471883 614.768427 -152.332798 C 614.768427 -175.108259 608.796908 -193.120582 598.163928 -208.825638 M 546.328639 -51.024235 C 563.644871 -57.269498 578.282328 -68.211417 589.521454 -81.925967 M 619.402514 -44.301877 C 644.743342 -70.569522 660.819907 -108.189702 660.819907 -145.67301 C 660.819907 -212.435142 622.894699 -249.54303 598.351638 -267.289431 M 546.328639 -9.051534 C 568.728679 -9.962709 589.611398 -18.945406 607.209196 -33.097946 M 652.900898 -258.185504 C 664.390305 -268.259265 670.416573 -280.749791 668.809307 -299.434741 M 543.043716 -157.013813 C 543.043716 -184.192633 557.552123 -210.526758 592.970622 -226.45472 C 605.183494 -231.949144 616.446084 -236.774851 626.367331 -241.655306 M 549.621382 -263.769872 C 554.32977 -279.752582 547.302383 -300.557089 538.206278 -309.449842 C 569.346557 -309.989508 643.261216 -305.703467 668.809307 -299.434741 C 634.638296 -307.819113 567.266107 -274.45369 549.621382 -263.769872 Z M 638.939979 -69.705275 C 629.519292 -78.187413 624.642747 -88.429331 632.010358 -105.198076 C 626.191353 -101.960082 615.456697 -98.315382 605.938244 -98.510913 C 575.208579 -99.136613 543.043716 -118.564581 543.043716 -157.013813 C 543.043716 -118.564581 575.59182 -98.510913 605.938244 -98.510913 C 630.332701 -98.510913 660.424934 -118.795308 660.424934 -155.406547 C 660.424934 -171.690375 646.43273 -180.379777 635.619862 -180.379777 C 624.803082 -180.379777 615.319825 -171.78423 615.319825 -161.859073 C 615.319825 -147.769103 624.478501 -143.674682 630.833261 -143.674682 C 637.195842 -143.674682 642.357863 -147.342845 642.357863 -153.361292 C 642.357863 -156.270794 640.621547 -160.869685 635.494722 -161.620525 C 640.695848 -160.857954 642.357863 -157.678618 642.357863 -153.361292 C 642.357863 -138.81769 631.52153 -117.203685 605.60193 -117.203685 C 579.68233 -117.203685 562.041516 -139.243948 562.041516 -159.622197 C 562.041516 -185.135092 579.909146 -201.669201 605.59802 -212.137935 C 616.962286 -216.7642 627.861188 -221.327895 637.782435 -226.353044 M 568.318064 -62.341574 C 573.835951 -57.269498 579.55328 -52.56502 585.27843 -48.15775 C 616.078485 -24.459383 652.838328 -12.516344 655.759563 23.179809 C 678.757928 18.111644 689.539512 4.807709 689.539512 -9.767177 C 689.539512 -30.681182 677.330552 -42.49908 663.827175 -52.072282 M 612.601943 -255.77265 C 602.508628 -251.068173 591.527603 -246.26984 581.250489 -241.279887 C 542.81299 -222.622311 523.830833 -192.991531 523.830833 -155.246212 C 523.830833 -126.401467 533.666046 -103.473492 547.802943 -84.698598 M 663.717678 -242.973186 C 682.117152 -258.705617 691.698175 -280.260963 685.011012 -315.311864 C 624.736602 -327.8063 529.297882 -328.334234 495.208993 -328.334234 C 464.831284 -328.334234 441.062526 -307.349839 441.062526 -276.096151 C 441.062526 -248.236883 462.027369 -222.086556 495.208993 -222.086556 C 522.853177 -222.086556 554.376698 -246.148611 593.905261 -265.212891 C 610.196911 -273.06933 629.898622 -279.408447 649.052847 -283.995606 C 648.853405 -279.752582 645.869601 -275.708999 641.02043 -271.763182 M 331.088026 -256.582149 C 376.060174 -301.996198 424.888195 -328.815241 477.834101 -325.878364 M 261.459408 -168.730035 C 266.343775 -175.812171 271.255515 -182.984251 276.265022 -190.070297 C 286.264481 -204.207194 296.482935 -217.573699 306.904742 -229.970369 M 174.053105 -83.380718 C 192.436937 -91.420956 207.453724 -102.937737 220.706821 -116.507594 M 427.590435 -202.697694 C 449.004999 -219.102752 464.322904 -220.987671 477.748068 -224.730136 M 318.34331 -65.258898 C 333.516522 -83.83044 345.948388 -102.147792 355.169634 -116.29251 C 373.729444 -144.750103 389.547908 -165.226118 403.293743 -180.113854 M 168.148066 20.125614 C 207.68054 23.379251 243.185074 5.675867 273.167809 -19.097921 M 546.492885 -216.19716 C 538.343149 -221.378733 529.509055 -225.285444 520.577195 -227.537962 M 581.277864 -124.657329 C 584.351612 -133.40539 585.931504 -142.896469 585.931504 -152.841179 C 585.931504 -166.293718 581.148813 -179.245696 573.358855 -190.566946 M 531.448723 -77.569535 C 543.512991 -81.429318 553.692339 -87.396927 561.885091 -94.987443 M 644.35228 -27.192907 C 671.820486 -55.838211 689.58644 -96.2232 689.58644 -145.67301 C 689.58644 -218.7156 657.050068 -256.558685 633.109242 -279.697833 M 516.232495 20.328966 C 558.021397 24.50551 600.095775 11.299341 632.327118 -15.918585 M 346.918222 -271.665417 C 344.227714 -278.571574 342.917656 -285.110134 342.917656 -291.562659 C 342.917656 -310.349285 356.819916 -333.238154 393.579759 -323.719701 C 386.419411 -315.358792 378.074144 -308.632523 376.936153 -295.125236 M 388.323884 -162.559074 C 397.498202 -147.663516 404.204918 -136.870201 405.757435 -134.519917 C 410.00828 -128.083034 415.713877 -126.385824 420.993216 -129.099796 C 426.241271 -131.798124 429.205522 -139.040596 425.212777 -145.536138 C 420.050757 -153.940064 382.563538 -212.603299 364.285293 -241.291619 M 347.790291 -162.097621 C 319.227111 -209.470891 294.222596 -251.072083 289.999125 -257.986062 C 270.629816 -289.67774 254.334256 -306.446485 224.363252 -297.788369 C 227.010743 -319.62528 243.881164 -328.334234 256.594595 -328.334234 C 279.02201 -328.334234 295.165056 -317.728628 319.805883 -275.603413 C 331.04892 -256.382707 352.260131 -221.41784 370.835584 -191.051863 M 389.195952 -262.279925 C 403.813856 -239.355861 433.511116 -192.901587 441.097722 -182.835647 C 449.877067 -171.189816 472.859791 -138.735567 513.49506 -137.969085 C 512.548689 -123.59364 514.582212 -109.401995 527.186146 -84.800274 C 533.552638 -72.372319 550.622501 -53.585692 550.622501 -30.024197 C 550.622501 -6.466613 533.38057 23.179809 496.292235 23.179809 C 472.116773 23.179809 454.370372 10.654089 441.062526 -9.051534 C 434.371453 -18.957138 400.106586 -75.426514 365.837809 -132.185276 M 149.908927 5.445141 C 169.485499 5.445141 185.382176 -10.447626 185.382176 -30.024197 C 185.382176 -49.60468 169.485499 -65.501357 149.908927 -65.501357 C 130.328445 -65.501357 114.435679 -49.60468 114.435679 -30.024197 C 114.435679 -10.447626 130.328445 5.445141 149.908927 5.445141 Z M 495.208993 -239.653068 C 514.785565 -239.653068 530.682242 -255.549745 530.682242 -275.130227 C 530.682242 -294.706799 514.785565 -310.603476 495.208993 -310.603476 C 475.628511 -310.603476 459.735745 -294.706799 459.735745 -275.130227 C 459.735745 -255.549745 475.628511 -239.653068 495.208993 -239.653068 Z M 419.878689 -239.430163 C 430.308317 -239.430163 438.770902 -247.834089 438.770902 -258.185504 C 438.770902 -268.536919 430.308317 -276.940845 419.878689 -276.940845 C 409.452972 -276.940845 400.986476 -268.536919 400.986476 -258.185504 C 400.986476 -247.834089 409.452972 -239.430163 419.878689 -239.430163 Z M 569.620301 -17.259928 C 580.046018 -17.259928 588.512514 -25.663854 588.512514 -36.01527 C 588.512514 -46.366685 580.046018 -54.770611 569.620301 -54.770611 C 559.190673 -54.770611 550.724177 -46.366685 550.724177 -36.01527 C 550.724177 -25.663854 559.190673 -17.259928 569.620301 -17.259928 Z M 495.208993 5.445141 C 514.785565 5.445141 530.682242 -10.447626 530.682242 -30.024197 C 530.682242 -49.60468 514.785565 -65.501357 495.208993 -65.501357 C 475.628511 -65.501357 459.735745 -49.60468 459.735745 -30.024197 C 459.735745 -10.447626 475.628511 5.445141 495.208993 5.445141 Z M 495.208993 5.445141 " transform="matrix(0.998882, 0, 0, -0.998882, 464.825059, 101.521085)"/>
</mask>
</defs>
<rect x="0" y="0" width="1236.78" height="508.431" fill="currentColor" mask="url(#ornament-mask)"/>
</svg>
