<?xml version="1.0" encoding="UTF-8"?>
<svg xmlns="http://www.w3.org/2000/svg" xmlns:xlink="http://www.w3.org/1999/xlink" width="566.929pt" height="566.929pt" viewBox="0 0 566.929 566.929">
<defs>
<mask id="ornament-mask" maskUnits="userSpaceOnUse" x="0" y="0" width="566.929" height="566.929">
<rect x="0" y="0" width="566.929" height="566.929" fill="black"/>
<path fill-rule="evenodd" fill="white" fill-opacity="1" d="M 283.171875 77.796875 C 396.925781 77.796875 489.277344 170.148438 489.277344 283.898438 C 489.277344 397.648438 396.925781 490.003906 283.171875 490.003906 C 169.421875 490.003906 77.070312 397.648438 77.070312 283.898438 C 77.070312 170.148438 169.421875 77.796875 283.171875 77.796875 "/>
<path fill-rule="evenodd" fill="white" fill-opacity="1" d="M 283.171875 249.316406 C 302.261719 249.316406 317.757812 264.8125 317.757812 283.898438 C 317.757812 302.988281 302.261719 318.484375 283.171875 318.484375 C 264.085938 318.484375 248.589844 302.988281 248.589844 283.898438 C 248.589844 264.8125 264.085938 249.316406 283.171875 249.316406 "/>
<path fill-rule="evenodd" fill="white" fill-opacity="1" d="M 283.171875 249.316406 C 302.261719 249.316406 317.757812 264.8125 317.757812 283.898438 C 317.757812 302.988281 302.261719 318.484375 283.171875 318.484375 C 264.085938 318.484375 248.589844 302.988281 248.589844 283.898438 C 248.589844 264.8125 264.085938 249.316406 283.171875 249.316406 M 283.171875 235.113281 C 310.101562 235.113281 331.960938 256.972656 331.960938 283.898438 C 331.960938 310.828125 310.101562 332.6875 283.171875 332.6875 C 256.246094 332.6875 234.386719 310.828125 234.386719 283.898438 C 234.386719 256.972656 256.246094 235.113281 283.171875 235.113281 "/>
<path fill-rule="evenodd" fill="white" fill-opacity="1" d="M 283.171875 77.796875 C 396.925781 77.796875 489.277344 170.148438 489.277344 283.898438 C 489.277344 397.648438 396.925781 490.003906 283.171875 490.003906 C 169.421875 490.003906 77.070312 397.648438 77.070312 283.898438 C 77.070312 170.148438 169.421875 77.796875 283.171875 77.796875 M 283.171875 58.914062 C 407.347656 58.914062 508.160156 159.726562 508.160156 283.898438 C 508.160156 408.074219 407.347656 508.886719 283.171875 508.886719 C 159 508.886719 58.1875 408.074219 58.1875 283.898438 C 58.1875 159.726562 159 58.914062 283.171875 58.914062 "/>
<path fill-rule="evenodd" fill="white" fill-opacity="1" d="M 454.148438 268.121094 C 458.351562 267.082031 462.667969 266.179688 467.105469 265.40625 C 481.210938 285.414062 493.859375 329.75 462.480469 385.191406 C 461.632812 386.851562 460.660156 388.515625 459.5625 390.171875 C 460.578125 388.503906 461.550781 386.84375 462.480469 385.191406 C 468.738281 372.992188 468.617188 360.847656 465.082031 350.621094 L 465.136719 350.480469 C 477.136719 317.777344 468.324219 286.863281 454.148438 268.121094 "/>
<path fill-rule="evenodd" fill="white" fill-opacity="1" d="M 442.195312 271.445312 C 455.855469 286.96875 463.035156 314.347656 457.117188 336.367188 C 454.15625 332.730469 450.777344 329.742188 447.296875 327.589844 C 449.605469 310.855469 444.390625 289.949219 429.984375 275.757812 C 433.941406 274.195312 438.007812 272.75 442.195312 271.445312 "/>
<path fill-rule="evenodd" fill="white" fill-opacity="1" d="M 454.148438 268.121094 C 468.324219 286.863281 477.136719 317.777344 465.136719 350.480469 L 465.082031 350.621094 C 463.226562 345.25 460.429688 340.40625 457.117188 336.367188 C 463.035156 314.347656 455.855469 286.96875 442.195312 271.445312 C 446.074219 270.21875 450.058594 269.105469 454.148438 268.121094 "/>
<path fill-rule="evenodd" fill="white" fill-opacity="1" d="M 383.097656 236.8125 L 383.109375 236.824219 C 394.273438 239.828125 404.777344 243.835938 414.472656 249.253906 L 414.488281 249.257812 C 411.136719 252.015625 407.90625 254.871094 404.78125 257.820312 C 396.828125 253.746094 388.09375 250.40625 378.605469 247.75 C 378.53125 243.863281 380.304688 240.28125 383.097656 236.8125 "/>
<path fill-rule="evenodd" fill="white" fill-opacity="1" d="M 392.292969 227.78125 C 395.617188 224.882812 399.15625 221.957031 402.398438 218.878906 C 413.738281 222.53125 424.742188 227.460938 435.070312 234.25 C 431.460938 236.5625 427.953125 238.960938 424.554688 241.449219 C 414.515625 235.371094 403.703125 231.015625 392.4375 227.789062 Z M 392.292969 227.78125 "/>
<path fill-rule="evenodd" fill="white" fill-opacity="1" d="M 392.292969 227.78125 L 392.4375 227.789062 C 403.703125 231.015625 414.515625 235.371094 424.554688 241.449219 C 421.089844 243.960938 417.734375 246.5625 414.488281 249.257812 L 414.476562 249.25 C 404.777344 243.835938 394.273438 239.828125 383.109375 236.824219 L 383.097656 236.8125 C 385.554688 233.753906 388.808594 230.78125 392.292969 227.78125 "/>
<path fill-rule="evenodd" fill="white" fill-opacity="1" d="M 279.59375 221.257812 L 279.65625 221.277344 C 300.269531 226.046875 324.242188 227.71875 347.863281 230.417969 C 354.96875 231.230469 361.902344 232.242188 368.632812 233.527344 C 366.472656 236.648438 364.539062 240.078125 362.691406 244.058594 C 357.355469 243.054688 351.820312 242.226562 346.089844 241.566406 C 320.550781 238.632812 293.625 236.875 270.464844 230.480469 C 273.558594 227.515625 276.601562 224.441406 279.59375 221.257812 "/>
<path fill-rule="evenodd" fill="white" fill-opacity="1" d="M 288.082031 211.859375 C 290.789062 208.746094 293.457031 205.550781 296.089844 202.285156 C 311.902344 205.238281 330.761719 207.0625 351.601562 209.191406 C 363.617188 210.417969 375.808594 212.09375 387.792969 214.867188 C 383.535156 218.066406 379.925781 221.011719 376.796875 224.035156 L 376.789062 224.027344 C 367.902344 222.253906 358.832031 220.980469 349.714844 219.945312 C 327.605469 217.441406 306.292969 215.621094 288.128906 211.867188 Z M 288.082031 211.859375 "/>
<path fill-rule="evenodd" fill="white" fill-opacity="1" d="M 288.082031 211.859375 L 288.128906 211.867188 C 306.292969 215.621094 327.605469 217.441406 349.714844 219.945312 C 358.832031 220.980469 367.902344 222.253906 376.789062 224.027344 L 376.796875 224.035156 C 373.675781 227.027344 371.019531 230.085938 368.636719 233.527344 C 361.902344 232.242188 354.96875 231.230469 347.863281 230.417969 C 324.242188 227.71875 300.269531 226.046875 279.65625 221.277344 L 279.59375 221.257812 C 282.464844 218.21875 285.296875 215.082031 288.082031 211.859375 "/>
<path fill-rule="evenodd" fill="white" fill-opacity="1" d="M 265.28125 217.195312 C 262.367188 220.15625 259.390625 222.988281 256.300781 225.734375 C 240.996094 219.550781 228.191406 210.347656 219.777344 195.972656 C 202.652344 166.722656 213.8125 134.535156 238.78125 120.015625 C 238.9375 124.378906 239.476562 128.554688 240.460938 132.5 L 240.363281 132.488281 C 222.984375 147.128906 216.882812 169.6875 230.414062 191.714844 C 238.085938 204.203125 250.332031 212 265.28125 217.195312 "/>
<path fill-rule="evenodd" fill="white" fill-opacity="1" d="M 244.820312 143.769531 C 246.675781 147.148438 249.007812 150.285156 251.855469 153.160156 C 245.914062 158.671875 243.6875 170.859375 252.675781 182.519531 C 258.632812 190.25 268.566406 195.328125 281.5625 198.972656 C 278.902344 202.203125 276.289062 205.273438 273.671875 208.207031 C 259.671875 203.855469 248.507812 197.515625 241.699219 187.503906 C 230.546875 171.105469 234.105469 153.859375 244.820312 143.769531 "/>
<path fill-rule="evenodd" fill="white" fill-opacity="1" d="M 240.464844 132.5 C 241.445312 136.496094 242.875 140.261719 244.820312 143.769531 C 234.105469 153.859375 230.546875 171.105469 241.699219 187.503906 C 248.507812 197.515625 259.671875 203.855469 273.675781 208.207031 C 270.894531 211.34375 268.117188 214.332031 265.28125 217.195312 C 250.332031 212 238.085938 204.203125 230.414062 191.714844 C 216.882812 169.6875 222.984375 147.128906 240.363281 132.488281 Z M 240.464844 132.5 "/>
<path fill-rule="evenodd" fill="white" fill-opacity="1" d="M 283.171875 92.160156 C 299.582031 92.160156 312.902344 105.480469 312.902344 121.890625 C 312.902344 138.296875 299.582031 151.617188 283.171875 151.617188 C 266.765625 151.617188 253.445312 138.296875 253.445312 121.890625 C 253.445312 105.480469 266.765625 92.160156 283.171875 92.160156 M 259.871094 189.375 C 271.070312 182.03125 272.953125 170.734375 271.121094 164.3125 C 273.59375 165.007812 276.273438 165.527344 278.902344 165.777344 C 276.027344 173.441406 278.964844 183.945312 290.902344 188.886719 C 299.140625 192.296875 305.550781 191.511719 311.335938 191.929688 C 316.292969 192.289062 320.90625 194.773438 322.535156 198.941406 C 324.011719 202.71875 325.535156 206.734375 329.523438 206.96875 C 332.175781 207.121094 335.476562 204.835938 335.34375 200.625 C 335.25 197.5625 332.828125 193.363281 331.835938 191.191406 C 331.085938 189.550781 331.335938 187.917969 332.855469 187.738281 C 334.679688 187.523438 335.140625 189.777344 335.25 191.542969 C 335.558594 196.710938 335.449219 198.242188 335.765625 200.699219 C 336.285156 204.722656 338.988281 207.265625 342.144531 206.84375 C 345.992188 206.328125 347.945312 202.800781 347.304688 197.664062 C 346.398438 190.355469 345.894531 184.960938 346.832031 181.21875 C 347.65625 177.933594 349.675781 173.195312 351.566406 168.269531 C 346.988281 164.640625 342.855469 162.148438 338.980469 160.722656 C 338.769531 161.101562 338.550781 161.476562 338.320312 161.851562 C 334.109375 168.78125 327.242188 175.976562 319.320312 177.703125 C 311.398438 179.433594 298.929688 178.96875 294.707031 175.394531 C 290.480469 171.824219 291.621094 166.261719 297.59375 163.566406 C 298.550781 163.117188 299.617188 162.707031 300.695312 162.359375 C 304.277344 161.046875 307.808594 160.027344 311.269531 159.300781 L 320.714844 145.019531 C 324.871094 138.292969 327.265625 130.367188 327.265625 121.890625 C 327.265625 118.191406 326.8125 114.601562 325.953125 111.167969 C 329.035156 113.414062 332.589844 115.660156 336.570312 117.890625 L 343.738281 104.597656 C 327.035156 95.152344 310.847656 83.695312 293.941406 79.121094 C 290.492188 78.257812 286.886719 77.796875 283.171875 77.796875 C 258.835938 77.796875 239.078125 97.554688 239.078125 121.890625 C 239.078125 134.128906 244.078125 145.210938 252.140625 153.203125 C 258.800781 160.609375 260.664062 172.101562 250.691406 177.214844 C 250.339844 177.394531 249.980469 177.5625 249.601562 177.726562 C 251.777344 182.058594 255.449219 186.269531 259.871094 189.375 "/>
<path fill-rule="evenodd" fill="white" fill-opacity="1" d="M 283.171875 92.160156 C 299.582031 92.160156 312.902344 105.480469 312.902344 121.890625 C 312.902344 138.296875 299.582031 151.617188 283.171875 151.617188 C 266.765625 151.617188 253.445312 138.296875 253.445312 121.890625 C 253.445312 105.480469 266.765625 92.160156 283.171875 92.160156 "/>
<path fill-rule="evenodd" fill="white" fill-opacity="1" d="M 327.5 158.1875 C 331.667969 158.542969 335.660156 159.4375 339.4375 160.894531 C 349.207031 164.65625 358.507812 174.132812 362.597656 179.503906 C 369.203125 188.175781 371.207031 194.652344 375.828125 199.367188 C 383.222656 200.046875 392.832031 198.816406 397.949219 197.789062 C 403.027344 196.769531 404.878906 194.421875 404.742188 191.4375 C 404.640625 189.335938 402.679688 186.242188 398.964844 186.546875 C 396.464844 186.753906 392.683594 187.617188 387.421875 188.246094 C 392.203125 187.890625 395.734375 187 398.886719 186.117188 C 402.175781 185.191406 405.0625 182.675781 403.84375 178.785156 C 403.035156 176.195312 400.695312 173.4375 394.335938 175.628906 C 386.695312 178.265625 380.191406 177.285156 375.21875 172.148438 C 369.441406 166.179688 368.488281 157.40625 375.464844 149.195312 C 382.109375 141.375 395.035156 141.140625 404.648438 145.902344 C 410.925781 149.015625 418.472656 152.929688 416.597656 159.554688 C 415.546875 163.269531 416.386719 165.835938 418.53125 167.429688 C 421.023438 169.277344 424.300781 168.652344 426.484375 166.273438 C 427.359375 165.320312 428.730469 163.65625 429.558594 161.6875 C 428.507812 163.957031 424.480469 169.273438 422.390625 172.359375 C 420.851562 174.632812 421.117188 177.828125 423.34375 179.890625 C 425.601562 181.976562 428.980469 181.144531 430.304688 180.148438 C 432.894531 178.199219 435.902344 175.34375 438.574219 171.878906 C 436.183594 175.144531 431.964844 178.796875 428.019531 183.042969 C 425.480469 185.777344 425.300781 188.820312 427.15625 191.0625 C 428.6875 192.902344 432.011719 193.136719 434.449219 191.984375 C 439.292969 189.699219 450.929688 180.074219 455.011719 171.019531 C 445.683594 157.269531 434.367188 142.429688 414.046875 132.765625 C 402.226562 127.144531 385.5625 122.996094 367.761719 116.007812 C 365.285156 120.679688 363.132812 125.210938 361.53125 129.496094 C 364.746094 130.765625 368.085938 132.019531 371.546875 133.253906 C 363.003906 137.523438 357.078125 145.214844 356.832031 154.820312 C 350.960938 150.628906 343.484375 147.105469 335.386719 145.527344 C 333.183594 148.699219 330.636719 153.074219 327.5 158.1875 "/>
<path fill-rule="evenodd" fill="white" fill-opacity="1" d="M 468.328125 233.113281 C 469.433594 235.371094 472.058594 248.234375 472.496094 250.453125 C 456.035156 252.265625 424.421875 260.539062 405.113281 274.398438 C 423.464844 257.128906 444.945312 243.238281 468.328125 233.113281 M 419.882812 280.121094 C 421.292969 279.449219 422.773438 278.773438 424.320312 278.101562 C 439.160156 271.664062 459.539062 265.105469 488.195312 262.691406 C 486.855469 247.859375 482.5625 228.984375 476.804688 213.179688 C 455.421875 220.183594 428.089844 237.226562 410.398438 252.710938 C 402.136719 259.945312 395.765625 266.683594 390.90625 272.960938 C 400.164062 272.925781 409.632812 274.542969 419.882812 280.121094 "/>
<path fill-rule="evenodd" fill="white" fill-opacity="1" d="M 468.328125 233.113281 C 469.433594 235.371094 472.058594 248.234375 472.496094 250.453125 C 456.035156 252.265625 424.421875 260.539062 405.113281 274.398438 C 423.464844 257.128906 444.945312 243.238281 468.328125 233.113281 "/>
<path fill-rule="evenodd" fill="white" fill-opacity="1" d="M 416.089844 200.710938 C 416.652344 199.445312 417.140625 198.15625 417.539062 196.84375 C 423.28125 177.859375 417.054688 153.953125 400.035156 145.328125 C 391.113281 140.808594 378.292969 143.332031 373.128906 152.003906 C 366.988281 162.324219 372.570312 172.410156 379.601562 175.78125 C 387.632812 179.628906 398.355469 175.417969 400.445312 166.917969 C 406.816406 173.046875 406.820312 187.121094 404.359375 194.25 C 403.78125 195.929688 403.089844 197.5 402.308594 198.980469 C 406.691406 199.335938 411.300781 200.140625 416.089844 200.710938 "/>
<path fill-rule="evenodd" fill="white" fill-opacity="1" d="M 391.691406 211.65625 C 387.3125 215.449219 382.652344 218.679688 378.789062 222.15625 C 370.851562 229.304688 366.320312 236.566406 363.6875 242.101562 C 362.1875 245.246094 358.714844 251.664062 351.910156 256.613281 C 347.976562 259.472656 344.871094 264.308594 346.949219 267.8125 C 349.015625 271.296875 353.101562 270.859375 357.066406 268.324219 C 359 267.089844 361.703125 263.417969 364.632812 261.308594 C 367.011719 259.597656 369.210938 259.292969 369.933594 260.652344 C 370.851562 262.378906 368.894531 264.019531 366.855469 265.03125 C 364.515625 266.1875 357.390625 268.601562 354.175781 270.46875 C 349.960938 272.917969 348.59375 276.054688 350.199219 279.039062 C 351.316406 281.125 354.453125 283.21875 360.457031 280.367188 C 367.59375 276.972656 378.039062 271.40625 383.878906 268.847656 C 391.585938 265.476562 397.507812 261.96875 403.90625 257.382812 C 399.257812 255.097656 394.628906 253.089844 390.011719 251.410156 C 386.441406 252.976562 383.105469 253.484375 380.921875 251.734375 C 375.328125 247.257812 380.238281 238.429688 389.058594 230.695312 C 393.957031 226.402344 400.835938 220.921875 406.742188 214.410156 C 402.246094 211.582031 397.136719 211.007812 391.691406 211.65625 "/>
<path fill-rule="evenodd" fill="white" fill-opacity="1" d="M 433.65625 233.335938 C 438.394531 229.222656 442.789062 225.433594 448.6875 220.933594 C 457.242188 214.402344 463.257812 210.886719 468.289062 207.152344 C 472.015625 204.382812 471.882812 200.367188 470.902344 198.773438 C 468.71875 195.210938 464.664062 195.238281 460.773438 197.324219 C 454.082031 200.917969 440.761719 211.820312 433.320312 216.351562 C 431.324219 217.566406 429.207031 217.957031 428.371094 216.363281 C 427.617188 214.929688 428.410156 213.199219 431.425781 211.78125 C 437.257812 209.039062 456.464844 200.664062 463.152344 195.621094 C 466.5625 193.050781 466.414062 189.832031 465.546875 187.863281 C 464.132812 184.648438 460.121094 183.203125 455.011719 185.972656 C 448.167969 189.683594 440.574219 195.832031 429.109375 199.703125 C 414.617188 204.597656 403.015625 193.382812 374.796875 202.328125 C 369.628906 203.96875 364.542969 206.582031 359.78125 210.101562 C 366.941406 210.988281 374.320312 212.027344 382.707031 213.757812 C 400.757812 207.738281 409.28125 214.480469 412.308594 220.671875 C 412.625 221.3125 412.835938 222 412.960938 222.714844 C 419.648438 225.4375 426.550781 228.863281 433.65625 233.335938 "/>
<path fill-rule="evenodd" fill="white" fill-opacity="1" d="M 289.9375 188.46875 C 276.46875 205.855469 260.480469 224.191406 246.507812 233.207031 C 235.152344 240.535156 223.71875 244.542969 212.960938 245.601562 C 214.75 249.964844 216.640625 254.285156 218.570312 258.582031 C 230.246094 256.648438 242.597656 251.828125 254.808594 243.359375 C 272.71875 230.9375 290.773438 209.707031 304.335938 191.675781 C 299.472656 191.496094 294.660156 190.636719 289.9375 188.46875 "/>
<path fill-rule="evenodd" fill="white" fill-opacity="1" d="M 313.910156 178.492188 C 320 169.8125 324.320312 163.097656 326.058594 160.425781 C 334.28125 147.835938 336.765625 140.628906 341.078125 142.410156 C 342.53125 143.011719 343.179688 144.972656 343.097656 147.65625 C 347.910156 149.375 352.042969 151.59375 355.773438 154.082031 C 357.566406 145.394531 357.667969 141.339844 360.199219 133.324219 C 363.554688 122.691406 369.414062 113.535156 372.121094 107.246094 C 374.136719 102.558594 372.691406 98.757812 369.316406 97.386719 C 365.792969 95.953125 362.5625 98.171875 360.285156 102.136719 C 356.152344 109.328125 352.953125 120.453125 350.285156 127.214844 C 349.574219 129.015625 348.476562 130.394531 347.121094 129.726562 C 345.550781 128.953125 345.792969 126.992188 346.636719 125.371094 C 350.050781 118.828125 357.460938 107.867188 360.109375 102.011719 C 362.394531 96.949219 360.523438 93.597656 358.078125 92.167969 C 354.71875 90.203125 351.058594 91.476562 348.8125 95.289062 C 345.320312 101.214844 326.957031 137.144531 316.429688 151.957031 C 312.757812 157.121094 306.328125 166.507812 298.398438 177.265625 C 302.675781 178.601562 308.25 178.953125 313.910156 178.492188 "/>
<path fill-rule="evenodd" fill="white" fill-opacity="1" d="M 211.351562 439.855469 C 210.148438 444.015625 208.769531 448.203125 207.222656 452.4375 C 182.84375 454.648438 138.121094 443.433594 105.796875 388.539062 C 104.785156 386.972656 103.828125 385.300781 102.941406 383.519531 C 103.882812 385.234375 104.832031 386.90625 105.796875 388.539062 C 113.234375 400.058594 123.8125 406.023438 134.433594 408.074219 L 134.527344 408.195312 C 156.855469 434.9375 188.03125 442.761719 211.351562 439.855469 "/>
<path fill-rule="evenodd" fill="white" fill-opacity="1" d="M 214.445312 427.84375 C 194.175781 431.910156 166.875 424.4375 150.761719 408.304688 C 155.394531 407.558594 159.671875 406.125 163.273438 404.1875 C 176.613281 414.554688 197.328125 420.492188 216.820312 415.113281 C 216.191406 419.320312 215.410156 423.566406 214.445312 427.84375 "/>
<path fill-rule="evenodd" fill="white" fill-opacity="1" d="M 211.351562 439.855469 C 188.03125 442.761719 156.855469 434.9375 134.527344 408.195312 L 134.433594 408.074219 C 140.015625 409.152344 145.605469 409.15625 150.761719 408.304688 C 166.875 424.4375 194.175781 431.910156 214.445312 427.84375 C 213.566406 431.816406 212.542969 435.820312 211.351562 439.855469 "/>
<path fill-rule="evenodd" fill="white" fill-opacity="1" d="M 273.988281 393.980469 L 273.972656 393.984375 C 265.789062 402.148438 257.066406 409.242188 247.527344 414.933594 L 247.515625 414.941406 C 246.804688 410.660156 245.945312 406.433594 244.953125 402.253906 C 252.457031 397.40625 259.71875 391.507812 266.761719 384.621094 C 270.167969 386.5 272.382812 389.824219 273.988281 393.980469 "/>
<path fill-rule="evenodd" fill="white" fill-opacity="1" d="M 277.214844 406.457031 C 278.058594 410.785156 278.824219 415.3125 279.867188 419.664062 C 271.035156 427.65625 261.265625 434.722656 250.222656 440.269531 C 250.023438 435.988281 249.703125 431.75 249.246094 427.5625 C 259.527344 421.910156 268.707031 414.726562 277.136719 406.578125 Z M 277.214844 406.457031 "/>
<path fill-rule="evenodd" fill="white" fill-opacity="1" d="M 277.214844 406.457031 L 277.136719 406.578125 C 268.707031 414.726562 259.527344 421.910156 249.246094 427.5625 C 248.800781 423.308594 248.226562 419.101562 247.515625 414.941406 L 247.527344 414.933594 C 257.066406 409.242188 265.789062 402.148438 273.972656 393.980469 L 273.988281 393.980469 C 275.410156 397.640625 276.355469 401.941406 277.214844 406.457031 "/>
<path fill-rule="evenodd" fill="white" fill-opacity="1" d="M 339.210938 312.117188 L 339.164062 312.164062 C 324.726562 327.632812 311.292969 347.554688 297.144531 366.660156 C 292.886719 372.410156 288.546875 377.910156 284.066406 383.097656 C 282.445312 379.664062 280.4375 376.273438 277.917969 372.683594 C 281.457031 368.566406 284.941406 364.183594 288.375 359.554688 C 303.6875 338.902344 318.671875 316.464844 335.789062 299.601562 C 336.8125 303.765625 337.953125 307.9375 339.210938 312.117188 "/>
<path fill-rule="evenodd" fill="white" fill-opacity="1" d="M 343.109375 324.171875 C 344.445312 328.070312 345.882812 331.980469 347.394531 335.894531 C 336.933594 348.109375 325.921875 363.53125 313.660156 380.515625 C 306.589844 390.308594 299.042969 400.027344 290.648438 409.015625 C 290.007812 403.730469 289.257812 399.136719 288.207031 394.910156 L 288.214844 394.910156 C 294.199219 388.101562 299.835938 380.878906 305.289062 373.503906 C 318.511719 355.605469 330.746094 338.058594 343.078125 324.207031 Z M 343.109375 324.171875 "/>
<path fill-rule="evenodd" fill="white" fill-opacity="1" d="M 343.109375 324.171875 L 343.078125 324.207031 C 330.746094 338.058594 318.511719 355.605469 305.289062 373.503906 C 299.835938 380.878906 294.199219 388.101562 288.214844 394.910156 L 288.207031 394.910156 C 287.175781 390.714844 285.855469 386.882812 284.066406 383.097656 C 288.546875 377.910156 292.886719 372.410156 297.144531 366.660156 C 311.296875 347.554688 324.726562 327.628906 339.164062 312.164062 L 339.210938 312.117188 C 340.410156 316.128906 341.707031 320.148438 343.109375 324.171875 "/>
<path fill-rule="evenodd" fill="white" fill-opacity="1" d="M 349.886719 301.757812 C 348.777344 297.75 347.8125 293.757812 346.980469 289.710938 C 359.988281 279.546875 374.363281 273.058594 391.015625 272.957031 C 424.910156 272.753906 447.207031 298.511719 447.296875 327.398438 C 443.4375 325.347656 439.554688 323.730469 435.644531 322.609375 L 435.703125 322.53125 C 431.714844 300.160156 415.226562 283.597656 389.390625 284.300781 C 374.738281 284.699219 361.859375 291.40625 349.886719 301.757812 "/>
<path fill-rule="evenodd" fill="white" fill-opacity="1" d="M 423.703125 320.75 C 419.851562 320.667969 415.96875 321.117188 412.054688 322.144531 C 410.25 314.246094 400.8125 306.226562 386.222656 308.175781 C 376.546875 309.472656 367.183594 315.535156 357.527344 324.96875 C 356.0625 321.046875 354.707031 317.25 353.472656 313.519531 C 364.246094 303.566406 375.316406 297.070312 387.390625 296.179688 C 407.167969 294.71875 420.324219 306.425781 423.703125 320.75 "/>
<path fill-rule="evenodd" fill="white" fill-opacity="1" d="M 435.644531 322.609375 C 431.691406 321.460938 427.714844 320.816406 423.707031 320.75 C 420.324219 306.425781 407.167969 294.71875 387.390625 296.179688 C 375.316406 297.070312 364.246094 303.566406 353.472656 313.519531 C 352.144531 309.542969 350.949219 305.644531 349.886719 301.757812 C 361.859375 291.40625 374.734375 284.699219 389.390625 284.300781 C 415.226562 283.597656 431.714844 300.160156 435.703125 322.53125 Z M 435.644531 322.609375 "/>
<path fill-rule="evenodd" fill="white" fill-opacity="1" d="M 449.222656 379.769531 C 441.019531 393.980469 422.824219 398.855469 408.613281 390.648438 C 394.402344 382.445312 389.527344 364.25 397.730469 350.039062 C 405.933594 335.828125 424.132812 330.953125 438.34375 339.15625 C 452.550781 347.363281 457.429688 365.558594 449.222656 379.769531 M 376.6875 310.980469 C 377.445312 324.351562 386.289062 331.628906 392.765625 333.253906 C 390.925781 335.046875 389.136719 337.109375 387.605469 339.257812 C 382.40625 332.9375 371.835938 330.230469 361.589844 338.097656 C 354.515625 343.527344 351.992188 349.472656 348.742188 354.273438 C 345.949219 358.386719 341.492188 361.136719 337.066406 360.464844 C 333.058594 359.855469 328.820312 359.167969 326.625 362.503906 C 325.160156 364.726562 325.492188 368.726562 329.203125 370.71875 C 331.90625 372.164062 336.753906 372.167969 339.128906 372.398438 C 340.925781 372.566406 342.214844 373.597656 341.609375 375.007812 C 340.882812 376.691406 338.703125 375.964844 337.117188 375.175781 C 332.484375 372.859375 331.21875 372 328.929688 371.042969 C 325.1875 369.484375 321.632812 370.554688 320.417969 373.5 C 318.941406 377.085938 321.019531 380.539062 325.789062 382.558594 C 332.574219 385.425781 337.496094 387.683594 340.265625 390.371094 C 342.699219 392.726562 345.796875 396.84375 349.113281 400.945312 C 354.542969 398.792969 358.773438 396.460938 361.941406 393.820312 C 361.722656 393.445312 361.503906 393.066406 361.296875 392.683594 C 357.402344 385.570312 354.605469 376.027344 357.066406 368.300781 C 359.53125 360.578125 366.167969 350.007812 371.375 348.136719 C 376.582031 346.265625 380.828125 350.035156 380.171875 356.554688 C 380.082031 357.609375 379.910156 358.738281 379.667969 359.84375 C 379.011719 363.601562 378.132812 367.167969 377.03125 370.527344 L 384.675781 385.851562 C 388.425781 392.8125 394.085938 398.851562 401.429688 403.089844 C 404.632812 404.9375 407.96875 406.339844 411.371094 407.3125 C 407.882812 408.859375 404.164062 410.8125 400.242188 413.148438 L 408.167969 426 C 424.703125 416.261719 442.71875 407.96875 455.132812 395.613281 C 457.605469 393.058594 459.808594 390.167969 461.664062 386.949219 C 473.832031 365.875 466.601562 338.886719 445.523438 326.714844 C 434.921875 320.597656 422.828125 319.382812 411.875 322.371094 C 402.128906 324.4375 391.246094 320.304688 391.808594 309.109375 C 391.828125 308.71875 391.859375 308.320312 391.910156 307.910156 C 387.070312 307.632812 381.585938 308.703125 376.6875 310.980469 "/>
<path fill-rule="evenodd" fill="white" fill-opacity="1" d="M 449.222656 379.769531 C 441.019531 393.980469 422.824219 398.855469 408.613281 390.648438 C 394.402344 382.445312 389.527344 364.25 397.730469 350.039062 C 405.933594 335.828125 424.132812 330.953125 438.34375 339.15625 C 452.550781 347.363281 457.429688 365.558594 449.222656 379.769531 "/>
<path fill-rule="evenodd" fill="white" fill-opacity="1" d="M 369.878906 385.144531 C 367.488281 388.574219 364.714844 391.585938 361.570312 394.125 C 353.425781 400.707031 340.566406 404.023438 333.867188 404.878906 C 323.058594 406.265625 316.445312 404.761719 310.050781 406.40625 C 305.765625 412.46875 302.027344 421.40625 300.355469 426.355469 C 298.703125 431.261719 299.808594 434.035156 302.464844 435.410156 C 304.332031 436.375 307.992188 436.226562 309.585938 432.851562 C 310.65625 430.585938 311.800781 426.878906 313.886719 422.007812 C 311.800781 426.328125 310.808594 429.828125 310 433 C 309.15625 436.316406 309.890625 440.070312 313.871094 440.960938 C 316.515625 441.554688 320.074219 440.90625 321.355469 434.304688 C 322.894531 426.367188 326.992188 421.226562 333.929688 419.488281 C 341.988281 417.46875 350.058594 421.03125 353.683594 431.179688 C 357.132812 440.84375 350.875 452.152344 341.945312 458.097656 C 336.109375 461.976562 328.949219 466.554688 324.148438 461.621094 C 321.453125 458.851562 318.8125 458.296875 316.363281 459.359375 C 313.511719 460.589844 312.417969 463.738281 313.382812 466.824219 C 313.773438 468.058594 314.53125 470.078125 315.816406 471.777344 C 314.378906 469.734375 311.789062 463.585938 310.160156 460.234375 C 308.960938 457.765625 306.0625 456.394531 303.164062 457.296875 C 300.226562 458.203125 299.257812 461.550781 299.457031 463.195312 C 299.851562 466.410156 300.820312 470.445312 302.488281 474.488281 C 300.851562 470.785156 299.800781 465.308594 298.09375 459.765625 C 296.996094 456.203125 294.449219 454.523438 291.582031 455.011719 C 289.21875 455.414062 287.359375 458.175781 287.136719 460.863281 C 286.691406 466.203125 289.207031 481.09375 295.011719 489.152344 C 311.582031 487.949219 330.089844 485.570312 348.617188 472.804688 C 359.402344 465.378906 371.324219 453.023438 386.28125 441.101562 C 383.46875 436.617188 380.625 432.488281 377.710938 428.960938 C 375.003906 431.109375 372.25 433.375 369.449219 435.753906 C 370.027344 426.222656 366.324219 417.242188 358.128906 412.230469 C 364.695312 409.242188 371.484375 404.527344 376.902344 398.304688 C 375.253906 394.8125 372.738281 390.417969 369.878906 385.144531 "/>
<path fill-rule="evenodd" fill="white" fill-opacity="1" d="M 234.578125 469.640625 C 232.066406 469.46875 219.617188 465.3125 217.476562 464.578125 C 224.140625 449.417969 232.78125 417.90625 230.429688 394.253906 C 236.210938 418.78125 237.5 444.328125 234.578125 469.640625 M 218.089844 404.179688 C 217.96875 405.742188 217.8125 407.355469 217.621094 409.035156 C 215.777344 425.109375 211.265625 446.03125 199.027344 472.058594 C 212.542969 478.3125 231.039062 484.03125 247.601562 486.949219 C 252.226562 464.929688 251.136719 432.734375 246.570312 409.675781 C 244.4375 398.902344 241.785156 390.015625 238.78125 382.667969 C 234.183594 390.703125 228.046875 398.097656 218.089844 404.179688 "/>
<path fill-rule="evenodd" fill="white" fill-opacity="1" d="M 234.578125 469.640625 C 232.066406 469.46875 219.617188 465.3125 217.476562 464.578125 C 224.140625 449.417969 232.78125 417.90625 230.429688 394.253906 C 236.210938 418.78125 237.5 444.328125 234.578125 469.640625 "/>
<path fill-rule="evenodd" fill="white" fill-opacity="1" d="M 288.757812 440.605469 C 289.570312 441.722656 290.445312 442.789062 291.382812 443.789062 C 304.953125 458.257812 328.769531 464.820312 344.746094 454.390625 C 353.125 448.921875 357.351562 436.558594 352.421875 427.75 C 346.554688 417.273438 335.03125 417.0625 328.59375 421.46875 C 321.242188 426.5 319.53125 437.886719 325.847656 443.949219 C 317.355469 446.402344 305.164062 439.367188 300.21875 433.675781 C 299.050781 432.332031 298.039062 430.949219 297.148438 429.535156 C 294.648438 433.148438 291.644531 436.742188 288.757812 440.605469 "/>
<path fill-rule="evenodd" fill="white" fill-opacity="1" d="M 291.476562 414 C 290.382812 408.3125 289.917969 402.660156 288.835938 397.574219 C 286.617188 387.125 282.589844 379.574219 279.113281 374.523438 C 277.140625 371.65625 273.320312 365.441406 272.4375 357.070312 C 271.925781 352.234375 269.289062 347.125 265.214844 347.171875 C 261.167969 347.222656 259.503906 350.976562 259.714844 355.679688 C 259.816406 357.96875 261.644531 362.152344 262.003906 365.742188 C 262.296875 368.65625 261.464844 370.714844 259.925781 370.660156 C 257.96875 370.589844 257.53125 368.074219 257.675781 365.804688 C 257.839844 363.199219 259.3125 355.820312 259.300781 352.105469 C 259.289062 347.230469 257.253906 344.480469 253.871094 344.375 C 251.503906 344.300781 248.121094 345.96875 247.589844 352.59375 C 246.960938 360.472656 246.558594 372.304688 245.855469 378.636719 C 244.921875 387 245 393.882812 245.769531 401.71875 C 250.070312 398.832031 254.128906 395.824219 257.886719 392.667969 C 258.320312 388.792969 259.546875 385.648438 262.15625 384.632812 C 268.828125 382.027344 274.015625 390.695312 276.304688 402.203125 C 277.574219 408.589844 278.878906 417.289062 281.566406 425.660156 C 286.261719 423.179688 289.320312 419.039062 291.476562 414 "/>
<path fill-rule="evenodd" fill="white" fill-opacity="1" d="M 251.722656 439.503906 C 252.914062 445.660156 253.996094 451.363281 254.945312 458.722656 C 256.324219 469.394531 256.359375 476.363281 257.078125 482.585938 C 257.613281 487.199219 261.160156 489.09375 263.03125 489.042969 C 267.207031 488.929688 269.210938 485.402344 269.347656 480.992188 C 269.582031 473.402344 266.800781 456.414062 266.597656 447.703125 C 266.542969 445.367188 267.261719 443.335938 269.0625 443.410156 C 270.679688 443.476562 271.78125 445.027344 271.5 448.347656 C 270.960938 454.769531 268.613281 475.59375 269.636719 483.90625 C 270.15625 488.140625 273.019531 489.625 275.15625 489.859375 C 278.648438 490.238281 281.90625 487.488281 282.0625 481.675781 C 282.265625 473.894531 280.742188 464.246094 283.121094 452.382812 C 286.128906 437.382812 301.644531 432.941406 308.003906 404.03125 C 309.167969 398.738281 309.445312 393.027344 308.777344 387.144531 C 304.429688 392.898438 299.84375 398.773438 294.148438 405.167969 C 290.335938 423.8125 280.238281 427.820312 273.363281 427.347656 C 272.648438 427.300781 271.949219 427.140625 271.265625 426.890625 C 265.566406 431.324219 259.148438 435.589844 251.722656 439.503906 "/>
<path fill-rule="evenodd" fill="white" fill-opacity="1" d="M 362.433594 337.472656 C 354.113281 317.113281 346.226562 294.097656 345.40625 277.496094 C 344.738281 263.992188 346.984375 252.089844 351.445312 242.242188 C 346.773438 241.609375 342.085938 241.085938 337.402344 240.613281 C 333.238281 251.691406 331.234375 264.796875 332.464844 279.605469 C 334.269531 301.328125 343.625 327.578125 352.460938 348.339844 C 355.046875 344.21875 358.199219 340.480469 362.433594 337.472656 "/>
<path fill-rule="evenodd" fill="white" fill-opacity="1" d="M 359.089844 363.222656 C 363.5625 372.835938 367.21875 379.933594 368.660156 382.777344 C 375.453125 396.191406 380.453125 401.949219 376.753906 404.789062 C 375.507812 405.746094 373.484375 405.332031 371.203125 403.917969 C 367.304688 407.222656 363.320312 409.691406 359.296875 411.683594 C 365.925781 417.574219 369.386719 419.695312 375.0625 425.890625 C 382.59375 434.117188 387.59375 443.769531 391.6875 449.257812 C 394.734375 453.347656 398.75 453.992188 401.628906 451.757812 C 404.628906 449.421875 404.324219 445.519531 402.03125 441.558594 C 397.867188 434.386719 389.832031 426.054688 385.3125 420.363281 C 384.105469 418.847656 383.460938 417.207031 384.714844 416.367188 C 386.171875 415.394531 387.75 416.582031 388.730469 418.125 C 392.691406 424.351562 398.476562 436.25 402.226562 441.46875 C 405.464844 445.980469 409.304688 446.035156 411.769531 444.632812 C 415.148438 442.707031 415.875 438.902344 413.695312 435.050781 C 410.308594 429.0625 388.375 395.195312 380.8125 378.671875 C 378.171875 372.910156 373.257812 362.648438 367.910156 350.402344 C 364.613281 353.4375 361.523438 358.089844 359.089844 363.222656 "/>
<path fill-rule="evenodd" fill="white" fill-opacity="1" d="M 184.019531 143.71875 C 181.019531 140.597656 178.082031 137.3125 175.191406 133.855469 C 185.464844 111.636719 217.535156 78.511719 281.238281 77.96875 C 283.101562 77.875 285.027344 77.882812 287.015625 78.003906 C 285.0625 77.960938 283.136719 77.949219 281.238281 77.96875 C 267.546875 78.648438 257.089844 84.828125 250.003906 93 L 249.851562 93.023438 C 215.53125 98.984375 193.164062 122.074219 184.019531 143.71875 "/>
<path fill-rule="evenodd" fill="white" fill-opacity="1" d="M 192.878906 152.410156 C 199.492188 132.820312 219.613281 112.910156 241.640625 107.027344 C 239.972656 111.410156 239.074219 115.832031 238.949219 119.921875 C 223.304688 126.285156 207.804688 141.257812 202.71875 160.828125 C 199.386719 158.179688 196.101562 155.378906 192.878906 152.410156 "/>
<path fill-rule="evenodd" fill="white" fill-opacity="1" d="M 184.019531 143.71875 C 193.164062 122.074219 215.53125 98.984375 249.851562 93.023438 L 250.003906 93 C 246.277344 97.292969 243.480469 102.136719 241.640625 107.027344 C 219.613281 112.910156 199.492188 132.820312 192.878906 152.410156 C 189.875 149.660156 186.917969 146.769531 184.019531 143.71875 "/>
<path fill-rule="evenodd" fill="white" fill-opacity="1" d="M 192.433594 220.90625 L 192.4375 220.890625 C 189.457031 209.71875 187.675781 198.621094 187.515625 187.511719 L 187.515625 187.496094 C 191.578125 189.019531 195.667969 190.390625 199.785156 191.621094 C 200.234375 200.546875 201.707031 209.78125 204.152344 219.328125 C 200.824219 221.335938 196.832031 221.589844 192.433594 220.90625 "/>
<path fill-rule="evenodd" fill="white" fill-opacity="1" d="M 180.011719 217.457031 C 175.84375 216.027344 171.539062 214.425781 167.25 213.15625 C 164.746094 201.507812 163.511719 189.515625 164.226562 177.179688 C 168.035156 179.148438 171.863281 180.988281 175.71875 182.683594 C 175.476562 194.417969 177.109375 205.957031 179.949219 217.332031 Z M 180.011719 217.457031 "/>
<path fill-rule="evenodd" fill="white" fill-opacity="1" d="M 180.011719 217.457031 L 179.949219 217.332031 C 177.109375 205.957031 175.476562 194.417969 175.71875 182.683594 C 179.628906 184.429688 183.558594 186.035156 187.515625 187.496094 L 187.519531 187.515625 C 187.675781 198.621094 189.457031 209.71875 192.4375 220.890625 L 192.433594 220.90625 C 188.554688 220.304688 184.355469 218.976562 180.011719 217.457031 "/>
<path fill-rule="evenodd" fill="white" fill-opacity="1" d="M 230.714844 318.320312 L 230.703125 318.257812 C 224.523438 298.019531 213.984375 276.425781 204.515625 254.617188 C 201.664062 248.058594 199.070312 241.546875 196.820312 235.074219 C 200.601562 235.382812 204.542969 235.34375 208.910156 234.953125 C 210.710938 240.078125 212.757812 245.285156 215.054688 250.578125 C 225.28125 274.164062 237.222656 298.359375 243.265625 321.613281 C 239.148438 320.417969 234.964844 319.320312 230.714844 318.320312 "/>
<path fill-rule="evenodd" fill="white" fill-opacity="1" d="M 218.328125 315.667969 C 214.28125 314.878906 210.179688 314.167969 206.035156 313.519531 C 200.683594 298.351562 192.835938 281.105469 184.261719 261.992188 C 179.3125 250.972656 174.671875 239.578125 171.082031 227.8125 C 175.980469 229.902344 180.335938 231.550781 184.519531 232.75 L 184.515625 232.761719 C 187.421875 241.34375 190.855469 249.835938 194.515625 258.25 C 203.402344 278.648438 212.484375 298.015625 218.316406 315.625 Z M 218.328125 315.667969 "/>
<path fill-rule="evenodd" fill="white" fill-opacity="1" d="M 218.328125 315.667969 L 218.316406 315.625 C 212.484375 298.015625 203.402344 278.648438 194.515625 258.25 C 190.855469 249.835938 187.421875 241.34375 184.515625 232.761719 L 184.519531 232.75 C 188.667969 233.957031 192.648438 234.730469 196.816406 235.074219 C 199.070312 241.546875 201.664062 248.058594 204.515625 254.617188 C 213.984375 276.425781 224.523438 298.019531 230.699219 318.257812 L 230.714844 318.320312 C 226.644531 317.351562 222.515625 316.46875 218.328125 315.667969 "/>
<path fill-rule="evenodd" fill="white" fill-opacity="1" d="M 234.351562 332.746094 C 238.375 333.789062 242.316406 334.949219 246.238281 336.253906 C 248.535156 352.597656 246.964844 368.292969 238.726562 382.761719 C 221.953125 412.21875 188.5 418.648438 163.441406 404.285156 C 167.144531 401.96875 170.488281 399.414062 173.414062 396.585938 L 173.453125 396.679688 C 194.820312 404.410156 217.410156 398.410156 229.71875 375.683594 C 236.699219 362.796875 237.328125 348.289062 234.351562 332.746094 "/>
<path fill-rule="evenodd" fill="white" fill-opacity="1" d="M 180.996094 387.179688 C 182.992188 383.882812 184.546875 380.292969 185.609375 376.390625 C 193.351562 378.777344 205.019531 374.613281 210.625 361.003906 C 214.339844 351.976562 213.769531 340.835938 210.429688 327.757812 C 214.558594 328.449219 218.523438 329.171875 222.371094 329.972656 C 225.605469 344.273438 225.695312 357.113281 220.429688 368.015625 C 211.804688 385.871094 195.085938 391.414062 180.996094 387.179688 "/>
<path fill-rule="evenodd" fill="white" fill-opacity="1" d="M 173.414062 396.585938 C 176.382812 393.738281 178.929688 390.617188 180.996094 387.179688 C 195.085938 391.414062 211.804688 385.871094 220.429688 368.015625 C 225.695312 357.113281 225.605469 344.277344 222.371094 329.972656 C 226.480469 330.808594 230.453125 331.722656 234.351562 332.746094 C 237.328125 348.289062 236.699219 362.796875 229.71875 375.683594 C 217.410156 398.410156 194.820312 404.40625 173.453125 396.679688 Z M 173.414062 396.585938 "/>
<path fill-rule="evenodd" fill="white" fill-opacity="1" d="M 117.121094 379.769531 C 108.917969 365.558594 113.796875 347.363281 128.003906 339.15625 C 142.214844 330.953125 160.414062 335.828125 168.617188 350.039062 C 176.820312 364.25 171.945312 382.445312 157.734375 390.648438 C 143.523438 398.855469 125.328125 393.980469 117.121094 379.769531 M 212.960938 351.339844 C 201.007812 345.316406 190.277344 349.332031 185.636719 354.128906 C 185 351.640625 184.109375 349.0625 183.015625 346.660156 C 191.089844 345.316406 198.714844 337.519531 197.027344 324.710938 C 195.863281 315.871094 191.972656 310.710938 189.445312 305.496094 C 187.277344 301.023438 187.121094 295.785156 189.917969 292.289062 C 192.449219 289.125 195.164062 285.796875 193.371094 282.226562 C 192.179688 279.847656 188.550781 278.132812 184.972656 280.351562 C 182.367188 281.96875 179.941406 286.164062 178.554688 288.109375 C 177.507812 289.578125 175.96875 290.179688 175.054688 288.953125 C 173.957031 287.480469 175.675781 285.953125 177.152344 284.980469 C 181.472656 282.125 182.855469 281.453125 184.824219 279.953125 C 188.046875 277.492188 188.898438 273.878906 186.953125 271.355469 C 184.585938 268.28125 180.554688 268.355469 176.425781 271.476562 C 170.550781 275.917969 166.132812 279.050781 162.417969 280.109375 C 159.164062 281.039062 154.050781 281.660156 148.839844 282.484375 C 147.984375 288.261719 147.894531 293.089844 148.59375 297.15625 C 149.03125 297.152344 149.464844 297.152344 149.902344 297.164062 C 158.007812 297.347656 167.675781 299.695312 173.132812 305.691406 C 178.589844 311.6875 184.421875 322.71875 183.441406 328.164062 C 182.457031 333.609375 177.070312 335.402344 171.753906 331.574219 C 170.886719 330.972656 169.992188 330.253906 169.15625 329.492188 C 166.226562 327.046875 163.578125 324.5 161.222656 321.867188 L 144.128906 320.828125 C 136.226562 320.59375 128.164062 322.476562 120.820312 326.714844 C 117.621094 328.566406 114.738281 330.757812 112.195312 333.214844 C 112.597656 329.421875 112.765625 325.222656 112.707031 320.65625 L 97.609375 321.097656 C 97.78125 340.289062 95.957031 360.035156 100.449219 376.964844 C 101.421875 380.378906 102.828125 383.734375 104.683594 386.949219 C 116.851562 408.027344 143.839844 415.257812 164.917969 403.089844 C 175.515625 396.96875 182.617188 387.101562 185.503906 376.121094 C 188.589844 366.648438 197.609375 359.289062 207.023438 365.375 C 207.351562 365.585938 207.683594 365.816406 208.011719 366.0625 C 210.671875 362.007812 212.488281 356.726562 212.960938 351.339844 "/>
<path fill-rule="evenodd" fill="white" fill-opacity="1" d="M 117.121094 379.769531 C 108.917969 365.558594 113.796875 347.363281 128.003906 339.15625 C 142.214844 330.953125 160.414062 335.828125 168.617188 350.039062 C 176.820312 364.25 171.945312 382.445312 157.734375 390.648438 C 143.523438 398.855469 125.328125 393.980469 117.121094 379.769531 "/>
<path fill-rule="evenodd" fill="white" fill-opacity="1" d="M 152.140625 308.367188 C 150.363281 304.578125 149.144531 300.671875 148.515625 296.675781 C 146.890625 286.335938 150.449219 273.539062 153.054688 267.3125 C 157.257812 257.257812 161.867188 252.28125 163.640625 245.921875 C 160.53125 239.179688 154.660156 231.472656 151.210938 227.554688 C 147.789062 223.667969 144.832031 223.238281 142.316406 224.851562 C 140.542969 225.984375 138.847656 229.230469 140.96875 232.296875 C 142.398438 234.355469 145.035156 237.203125 148.210938 241.441406 C 145.511719 237.476562 142.976562 234.871094 140.632812 232.582031 C 138.1875 230.191406 134.566406 228.949219 131.804688 231.953125 C 129.96875 233.949219 128.75 237.355469 133.828125 241.761719 C 139.933594 247.0625 142.335938 253.183594 140.371094 260.058594 C 138.09375 268.046875 130.96875 273.257812 120.371094 271.324219 C 110.277344 269.480469 103.609375 258.40625 102.929688 247.695312 C 102.484375 240.703125 102.101562 232.214844 108.773438 230.523438 C 112.519531 229.574219 114.320312 227.566406 114.628906 224.910156 C 114.984375 221.828125 112.804688 219.304688 109.648438 218.601562 C 108.386719 218.320312 106.261719 217.964844 104.144531 218.230469 C 106.632812 218.007812 113.25 218.835938 116.96875 219.105469 C 119.707031 219.300781 122.34375 217.472656 123.015625 214.511719 C 123.695312 211.511719 121.28125 209.003906 119.753906 208.355469 C 116.777344 207.085938 112.796875 205.910156 108.460938 205.332031 C 112.484375 205.765625 117.757812 207.59375 123.40625 208.886719 C 127.042969 209.71875 129.773438 208.351562 130.78125 205.625 C 131.613281 203.378906 130.152344 200.382812 127.9375 198.847656 C 123.535156 195.796875 109.378906 190.527344 99.5 191.523438 C 92.253906 206.476562 85.0625 223.695312 86.851562 246.125 C 87.894531 259.175781 92.632812 275.679688 95.480469 294.589844 C 100.765625 294.398438 105.765625 293.996094 110.277344 293.242188 C 109.769531 289.824219 109.183594 286.300781 108.523438 282.6875 C 116.492188 287.953125 126.121094 289.238281 134.558594 284.648438 C 133.863281 291.832031 134.550781 300.066406 137.234375 307.867188 C 141.078125 308.1875 146.144531 308.207031 152.140625 308.367188 "/>
<path fill-rule="evenodd" fill="white" fill-opacity="1" d="M 146.613281 148.941406 C 148.015625 146.855469 157.84375 138.152344 159.546875 136.664062 C 169.34375 150.015625 192.316406 173.253906 213.972656 183.042969 C 189.84375 175.789062 167.074219 164.132812 146.613281 148.941406 M 211.546875 167.394531 C 210.257812 166.507812 208.9375 165.566406 207.578125 164.558594 C 194.582031 154.925781 178.714844 140.558594 162.292969 116.949219 C 150.121094 125.523438 135.921875 138.679688 125.113281 151.570312 C 141.867188 166.585938 170.292969 181.734375 192.546875 189.3125 C 202.949219 192.851562 211.96875 195 219.832031 196.070312 C 215.171875 188.066406 211.839844 179.058594 211.546875 167.394531 "/>
<path fill-rule="evenodd" fill="white" fill-opacity="1" d="M 146.613281 148.941406 C 148.015625 146.855469 157.84375 138.152344 159.546875 136.664062 C 169.34375 150.015625 192.316406 173.253906 213.972656 183.042969 C 189.84375 175.789062 167.074219 164.132812 146.613281 148.941406 "/>
<path fill-rule="evenodd" fill="white" fill-opacity="1" d="M 144.671875 210.382812 C 143.292969 210.527344 141.933594 210.75 140.597656 211.066406 C 121.285156 215.582031 103.695312 232.929688 104.734375 251.980469 C 105.28125 261.96875 113.878906 271.808594 123.96875 271.941406 C 135.976562 272.101562 141.921875 262.226562 141.324219 254.449219 C 140.644531 245.566406 131.636719 238.390625 123.230469 240.832031 C 125.347656 232.246094 137.539062 225.207031 144.941406 223.773438 C 146.6875 223.433594 148.390625 223.246094 150.0625 223.183594 C 148.183594 219.210938 146.570312 214.816406 144.671875 210.382812 "/>
<path fill-rule="evenodd" fill="white" fill-opacity="1" d="M 166.351562 226.039062 C 171.824219 227.9375 176.953125 230.359375 181.894531 231.964844 C 192.054688 235.269531 200.609375 235.558594 206.71875 235.074219 C 210.191406 234.796875 217.484375 234.59375 225.171875 238.015625 C 229.621094 239.992188 235.359375 240.265625 237.355469 236.710938 C 239.335938 233.179688 236.917969 229.859375 232.738281 227.691406 C 230.707031 226.636719 226.171875 226.128906 222.878906 224.644531 C 220.207031 223.441406 218.84375 221.691406 219.660156 220.386719 C 220.699219 218.726562 223.097656 219.605469 224.992188 220.863281 C 227.164062 222.308594 232.816406 227.273438 236.039062 229.121094 C 240.269531 231.550781 243.667969 231.164062 245.453125 228.285156 C 246.699219 226.269531 246.941406 222.507812 241.472656 218.738281 C 234.964844 214.25 224.917969 207.988281 219.789062 204.210938 C 213.011719 199.222656 207.011719 195.847656 199.84375 192.597656 C 200.1875 197.765625 200.765625 202.78125 201.617188 207.617188 C 204.757812 209.929688 206.867188 212.5625 206.445312 215.332031 C 205.363281 222.414062 195.261719 222.574219 184.15625 218.800781 C 177.988281 216.707031 169.800781 213.488281 161.207031 211.628906 C 161.011719 216.9375 163.066406 221.652344 166.351562 226.039062 "/>
<path fill-rule="evenodd" fill="white" fill-opacity="1" d="M 164.140625 178.859375 C 158.210938 176.8125 152.734375 174.898438 145.886719 172.042969 C 135.953125 167.902344 129.902344 164.445312 124.152344 161.957031 C 119.890625 160.113281 116.476562 162.238281 115.585938 163.882812 C 113.597656 167.554688 115.644531 171.054688 119.398438 173.378906 C 125.855469 177.378906 141.957031 183.464844 149.601562 187.644531 C 151.652344 188.761719 153.050781 190.402344 152.089844 191.921875 C 151.222656 193.292969 149.328125 193.46875 146.59375 191.566406 C 141.300781 187.886719 124.445312 175.441406 116.730469 172.171875 C 112.800781 170.503906 110.085938 172.242188 108.816406 173.976562 C 106.738281 176.808594 107.492188 181.007812 112.449219 184.046875 C 119.085938 188.117188 128.203125 191.621094 137.289062 199.613281 C 148.773438 209.71875 144.863281 225.371094 166.71875 245.335938 C 170.722656 248.992188 175.53125 252.085938 180.957031 254.453125 C 178.148438 247.808594 175.355469 240.898438 172.664062 232.773438 C 158.425781 220.148438 160.003906 209.394531 163.847656 203.675781 C 164.246094 203.085938 164.734375 202.558594 165.292969 202.09375 C 164.304688 194.941406 163.820312 187.25 164.140625 178.859375 "/>
<path fill-rule="evenodd" fill="white" fill-opacity="1" d="M 197.144531 325.753906 C 218.9375 328.726562 242.8125 333.40625 257.605469 340.996094 C 269.628906 347.167969 278.816406 355.066406 285.113281 363.855469 C 287.996094 360.121094 290.792969 356.328125 293.546875 352.503906 C 286.035156 343.359375 275.6875 335.070312 262.25 328.734375 C 242.535156 319.4375 215.121094 314.414062 192.722656 311.683594 C 195 315.984375 196.664062 320.582031 197.144531 325.753906 "/>
<path fill-rule="evenodd" fill="white" fill-opacity="1" d="M 176.519531 309.984375 C 165.957031 309.046875 157.984375 308.667969 154.796875 308.492188 C 139.785156 307.671875 132.300781 309.121094 131.6875 304.5 C 131.484375 302.941406 132.855469 301.390625 135.21875 300.125 C 134.304688 295.097656 134.160156 290.410156 134.449219 285.929688 C 126.027344 288.726562 122.464844 290.664062 114.257812 292.480469 C 103.371094 294.890625 92.511719 294.394531 85.714844 295.195312 C 80.648438 295.792969 78.078125 298.945312 78.578125 302.554688 C 79.097656 306.320312 82.632812 308.007812 87.207031 308 C 95.5 307.984375 106.734375 305.191406 113.921875 304.121094 C 115.839844 303.835938 117.582031 304.097656 117.679688 305.605469 C 117.796875 307.351562 115.976562 308.121094 114.152344 308.199219 C 106.78125 308.515625 93.582031 307.578125 87.1875 308.214844 C 81.660156 308.765625 79.691406 312.0625 79.675781 314.898438 C 79.652344 318.785156 82.585938 321.320312 87.011719 321.359375 C 93.890625 321.421875 134.1875 319.359375 152.28125 321.070312 C 158.589844 321.667969 169.933594 322.542969 183.210938 324.03125 C 182.230469 319.660156 179.75 314.65625 176.519531 309.984375 "/>
<path fill="none" stroke-width="5.5" stroke-linecap="round" stroke-linejoin="miter" stroke="rgb(0%, 0%, 0%)" stroke-opacity="1" stroke-miterlimit="10" d="M -0.00166165 0.000101968 C 16.41055 0.000101968 29.73253 -13.321879 29.73253 -29.73409 C 29.73253 -46.142395 16.41055 -59.464375 -0.00166165 -59.464375 C -16.409966 -59.464375 -29.731947 -46.142395 -29.731947 -29.73409 C -29.731947 -13.321879 -16.409966 0.000101968 -0.00166165 0.000101968 Z M 42.784946 -19.010091 C 43.644429 -22.444115 44.09761 -26.034408 44.09761 -29.73409 M -31.036798 -61.050512 C -39.100308 -53.057323 -44.100934 -41.973904 -44.100934 -29.73409 C -44.100934 -5.395105 -24.340647 14.365182 -0.00166165 14.365182 C 3.713647 14.365182 7.319568 13.904187 10.769218 13.040797 M -4.271728 -73.626305 C -6.900963 -73.376274 -9.580986 -72.856677 -12.053952 -72.161278 M 44.09761 -29.73409 C 44.09761 -38.211714 41.702779 -46.138488 37.546009 -52.865893 M -0.00166165 14.365182 C 113.766491 14.365182 206.129619 -77.997946 206.129619 -191.762192 C 206.129619 -305.526437 113.766491 -397.893472 -0.00166165 -397.893472 C -113.765907 -397.893472 -206.129036 -305.526437 -206.129036 -191.762192 C -206.129036 -77.997946 -113.765907 14.365182 -0.00166165 14.365182 Z M -0.00166165 33.250359 C 124.189671 33.250359 225.014796 -67.574766 225.014796 -191.762192 C 225.014796 -315.953524 124.189671 -416.77865 -0.00166165 -416.77865 C -124.189087 -416.77865 -225.014213 -315.953524 -225.014213 -191.762192 C -225.014213 -67.574766 -124.189087 33.250359 -0.00166165 33.250359 Z M -0.00166165 -157.17583 C 19.090573 -157.17583 34.588607 -172.673864 34.588607 -191.762192 C 34.588607 -210.854426 19.090573 -226.352461 -0.00166165 -226.352461 C -19.089989 -226.352461 -34.588024 -210.854426 -34.588024 -191.762192 C -34.588024 -172.673864 -19.089989 -157.17583 -0.00166165 -157.17583 Z M -0.00166165 -142.970926 C 26.931398 -142.970926 48.793511 -164.833039 48.793511 -191.762192 C 48.793511 -218.691345 26.931398 -240.557364 -0.00166165 -240.557364 C -26.930815 -240.557364 -48.792928 -218.691345 -48.792928 -191.762192 C -48.792928 -164.833039 -26.930815 -142.970926 -0.00166165 -142.970926 Z M -0.00166165 -142.970926 " transform="matrix(0.999875, 0, 0, -0.999875, 283.173536, 92.160258)"/>
<path fill="none" stroke-width="5.5" stroke-linecap="round" stroke-linejoin="round" stroke="rgb(0%, 0%, 0%)" stroke-opacity="1" stroke-miterlimit="10" d="M -0.000120629 0.000454898 C -15.306725 6.184823 -28.113016 15.389101 -36.528132 29.765901 C -53.655277 59.019564 -42.493723 91.211095 -17.521846 105.732445 M 106.403828 -18.326059 C 101.067223 -17.322027 95.531373 -16.493798 89.800187 -15.833559 C 64.257926 -12.899598 37.328772 -11.141565 14.165716 -4.746233 M 148.498943 -32.089501 C 140.544822 -28.014772 131.809353 -24.67451 122.319884 -22.017927 M 191.019893 -101.86777 C 193.328776 -85.131299 188.113279 -64.222431 173.705225 -50.029247 M 25.264762 26.765525 C 12.26704 30.410513 2.332203 35.489274 -3.625575 43.220711 C -12.614982 54.882327 -10.38814 67.071354 -4.44599 72.583763 M 131.508534 10.869003 C 119.522659 13.642788 107.329726 15.318779 95.312596 16.545495 C 74.470142 18.674668 55.608405 20.499115 39.793925 23.45261 M 178.791799 -8.516237 C 168.462381 -1.726324 157.457096 3.200074 146.115832 6.856782 M 203.287054 -164.457639 C 238.342225 -106.688686 225.356224 -60.280531 210.830967 -39.676388 M 9.00882 8.532773 C -5.953991 13.72483 -18.213339 21.526588 -25.890081 34.024247 C -39.423026 56.054349 -33.320699 78.615768 -15.939617 93.258226 M 112.396766 -7.801303 C 105.645921 -6.512079 98.695832 -5.500234 91.573846 -4.683725 C 67.949794 -1.984169 43.974136 -0.312084 23.358273 4.458044 M 158.191563 -23.518115 C 148.495037 -18.103375 137.989815 -14.09506 126.824354 -11.090778 M 200.837528 -110.657933 C 206.760145 -88.635644 199.579558 -61.237682 185.913785 -45.712301 M 17.380962 17.526087 C 3.375302 21.878194 -7.790159 28.218832 -14.603512 38.235711 C -25.772879 54.659643 -22.186493 71.935244 -11.435146 82.018538 M 120.50325 1.7077 C 111.615418 3.48136 102.540063 4.754957 93.425641 5.790242 C 71.313497 8.294462 49.998328 10.115003 31.83199 13.869379 M 168.298298 -15.728077 C 158.250164 -9.645284 147.432403 -5.285363 136.153647 -2.05449 M 208.861971 -124.761262 C 220.863474 -92.050134 212.045963 -61.1322 197.868407 -42.387665 " transform="matrix(0.999875, 0, 0, -0.999875, 256.300902, 225.73483)"/>
<path fill="none" stroke-width="5.5" stroke-linecap="round" stroke-linejoin="miter" stroke="rgb(0%, 0%, 0%)" stroke-opacity="1" stroke-miterlimit="10" d="M 0.00161834 0.00119743 C 16.909986 -4.573594 33.099513 -16.03206 49.808636 -25.478556 " transform="matrix(0.999875, 0, 0, -0.999875, 293.939788, 79.122291)"/>
<path fill="none" stroke-width="5.5" stroke-linecap="round" stroke-linejoin="round" stroke="rgb(0%, 0%, 0%)" stroke-opacity="1" stroke-miterlimit="10" d="M -0.00183093 -0.00144087 C 17.805086 -6.990597 34.471236 -11.139554 46.293029 -16.761352 C 66.615886 -26.426625 77.933709 -41.268327 87.263003 -55.020049 C 83.184367 -64.075871 71.542284 -73.702076 66.697927 -75.987518 C 64.260122 -77.140006 60.935487 -76.905602 59.404045 -75.065528 C 57.548344 -72.82306 57.728054 -69.77971 60.267435 -67.044992 C 64.213241 -62.798367 68.43252 -59.145566 70.823444 -55.879532 C 68.151234 -59.344809 65.143045 -62.200636 62.556784 -64.150099 C 61.228493 -65.146317 57.849163 -65.978453 55.591068 -63.892254 C 53.364227 -61.829496 53.098568 -58.633783 54.637824 -56.360061 C 56.727929 -53.273737 60.755777 -47.956665 61.80669 -45.686849 C 60.978461 -47.655846 59.607196 -49.320117 58.732086 -50.273361 C 56.544312 -52.652565 53.270465 -53.277643 50.777965 -51.429756 C 48.633165 -49.835806 47.793216 -47.269078 48.844129 -43.55377 C 50.719364 -36.92794 43.171544 -33.013387 36.893414 -29.899716 C 27.278929 -25.137401 14.351529 -25.371805 7.706166 -33.193097 C 0.728729 -41.405063 1.681974 -50.179599 7.460041 -56.149097 C 12.43332 -61.286459 18.938041 -62.26705 26.579623 -59.630001 C 32.939794 -57.438321 35.279931 -60.196479 36.088626 -62.786647 C 37.311435 -66.677759 34.420448 -69.193699 31.130974 -70.119596 C 27.978235 -71.002519 24.446543 -71.893256 19.664694 -72.248769 C 24.927072 -71.619784 28.708795 -70.756395 31.209109 -70.549337 C 34.924418 -70.244612 36.889507 -73.338749 36.983269 -75.440575 C 37.123912 -78.425324 35.272117 -80.773274 30.193356 -81.792933 C 25.075528 -82.820405 15.46495 -84.051028 8.069492 -83.371255 C 3.44782 -78.655821 1.443663 -72.178448 -5.162633 -63.505487 C -9.256896 -58.13372 -18.558842 -48.655971 -28.32569 -44.893781 C -32.103507 -43.436567 -36.096194 -42.541924 -40.264685 -42.186411 " transform="matrix(0.999875, 0, 0, -0.999875, 367.759643, 116.006372)"/>
<path fill="none" stroke-width="5.5" stroke-linecap="round" stroke-linejoin="miter" stroke="rgb(0%, 0%, 0%)" stroke-opacity="1" stroke-miterlimit="10" d="M 0.00191344 0.00146853 C -3.459457 -0.725185 -6.99115 -1.744844 -10.57363 -3.057508 C -11.65189 -3.405208 -12.718429 -3.815416 -13.675581 -4.264691 " transform="matrix(0.999875, 0, 0, -0.999875, 311.267618, 159.30225)"/>
<path fill="none" stroke-width="5.5" stroke-linecap="round" stroke-linejoin="round" stroke="rgb(0%, 0%, 0%)" stroke-opacity="1" stroke-miterlimit="10" d="M -0.00156561 -0.00153304 C -0.220343 0.373514 -0.43912 0.752468 -0.646178 1.135328 C -4.541197 8.2495 -7.338422 17.793664 -4.877176 25.521194 C -2.412024 33.244818 4.225526 43.812547 9.43321 45.687782 C 14.640893 47.55911 18.887518 43.789107 18.231186 37.268759 M -2.853485 30.599955 C 1.619731 20.98547 5.276439 13.886925 6.718026 11.042819 C 13.515752 -2.372924 18.512471 -8.131457 14.812789 -10.971657 C 13.56654 -11.928808 11.542849 -11.514693 9.261313 -10.100454 M -24.543701 153.224685 C -28.708285 142.145173 -30.712442 129.038063 -29.48182 114.227615 C -27.680813 92.502238 -18.320266 66.24895 -9.483222 45.484632 M 71.722259 160.50294 C 76.461134 164.616737 80.856216 168.406274 86.755392 172.906837 C 95.311151 179.438905 101.327529 182.954971 106.355502 186.689813 C 110.086438 189.459691 109.953609 193.475819 108.976924 195.069769 C 106.789151 198.632715 102.730048 198.605368 98.842843 196.519169 C 92.150599 192.924969 78.828618 182.02126 71.38628 177.489442 C 69.389936 176.274447 67.272483 175.883773 66.436441 177.477722 C 65.682441 178.911496 66.475509 180.642181 69.491511 182.060327 C 75.324273 184.802858 94.53371 193.178907 101.222047 198.222507 C 104.63263 200.793142 104.484174 204.012295 103.620785 205.981291 C 102.202639 209.196538 98.190418 210.642031 93.080403 207.872153 C 86.235796 204.160751 78.641095 198.011544 67.174815 194.139965 C 52.680813 189.244821 41.077797 200.461069 12.855513 191.514636 C 7.686897 189.873806 2.600323 187.260197 -2.158086 183.740225 M 29.75216 182.185343 C 25.372706 178.391899 20.711966 175.161026 16.848201 171.684028 C 8.909707 164.534695 4.377889 157.272067 1.744747 151.736218 C 0.244559 148.591293 -3.228532 142.17252 -10.034072 137.222681 C -13.968158 134.362948 -17.074016 129.526405 -14.995631 126.02206 C -12.928966 122.537249 -8.842516 122.974804 -4.877176 125.510277 C -2.94334 126.744807 -0.239877 130.417142 2.690178 132.526781 C 5.069382 134.237933 7.268876 134.542658 7.991623 133.183113 C 8.909707 131.456334 6.95243 129.815504 4.913112 128.803659 C 2.572976 127.647264 -4.552917 125.232899 -7.768163 123.365478 C -11.983535 120.915952 -13.350893 117.77884 -11.745224 114.794092 C -10.627896 112.707893 -7.490785 110.613881 -1.486127 113.4658 C 5.651486 116.860757 16.098107 122.42786 21.938682 124.986774 C 29.646678 128.35829 35.569295 131.866542 41.968534 136.453054 M 54.153653 193.132026 C 54.716224 194.39781 55.204566 195.687034 55.603053 196.999698 C 61.34596 215.986451 55.118618 239.895695 38.096955 248.521775 C 29.173963 253.041872 16.352045 250.518118 11.187335 241.845157 C 5.045941 231.523552 10.628672 221.436352 17.660802 218.064836 C 25.693058 214.216698 36.413151 218.428163 38.503256 226.929227 C 44.879054 220.799553 44.879054 206.723572 42.421715 199.593773 C 41.843518 197.913875 41.152025 196.343366 40.370677 194.862712 M 28.072262 142.426458 C 24.501503 140.859856 21.165147 140.35198 18.977373 142.102199 C 13.38683 146.579322 18.297601 155.408552 27.122925 163.143896 C 32.018069 167.437402 38.897837 172.918558 44.804826 179.431092 M 20.76666 180.083517 C 38.819702 186.103802 47.344207 179.360771 50.37193 173.168589 C 50.688376 172.527884 50.899339 171.840298 51.024355 171.125364 M 0.490684 56.35318 C -7.830671 76.715105 -15.718377 99.733612 -16.538793 116.337254 C -17.206845 129.842851 -14.96047 141.746685 -10.498974 151.595575 M -2.646428 -17.863145 C 3.983308 -23.762321 7.444679 -25.879774 13.121171 -32.075862 C 20.653365 -40.303455 25.653991 -49.957007 29.744347 -55.442069 C 32.79551 -59.536332 36.811638 -60.180944 39.690905 -57.946289 C 42.69128 -55.610059 42.386555 -51.70332 40.093299 -47.745793 C 35.932622 -40.57302 27.892552 -32.239945 23.372455 -26.547826 C 22.165273 -25.028104 21.520661 -23.391181 22.774724 -22.551232 C 24.231938 -21.578454 25.81026 -22.766102 26.790852 -24.309264 C 30.748379 -30.536607 36.538166 -42.436534 40.288636 -47.655938 C 43.527323 -52.168222 47.367647 -52.226823 49.8328 -50.820397 C 53.208222 -48.894374 53.938783 -45.08921 51.758822 -41.237165 C 48.371679 -35.248134 26.435339 -1.376705 18.871891 15.148802 C 16.230936 20.911242 11.316258 31.174246 5.967932 43.421873 M 25.665711 54.5678 C 20.465841 60.888904 9.894205 63.596274 -0.353172 55.728102 C -7.428277 50.297734 -9.95203 44.351677 -13.202437 39.550295 C -15.995756 35.436498 -20.453345 32.686154 -24.879681 33.358113 C -28.887995 33.967564 -33.126807 34.65515 -35.322395 31.318795 C -36.787422 29.095861 -36.455349 25.09536 -32.743947 23.102923 C -30.040483 21.653522 -25.19222 21.653522 -22.816923 21.426931 C -21.019823 21.255035 -19.730599 20.223656 -20.336143 18.813323 C -21.062797 17.129518 -23.242757 17.852265 -24.828893 18.645333 C -29.462286 20.96203 -30.728069 21.821512 -33.017419 22.774757 C -36.760075 24.337452 -40.315207 23.267006 -41.530203 20.321324 C -43.006951 16.734938 -40.928566 13.277474 -36.158437 11.261596 C -29.372431 8.39405 -24.44994 6.135954 -21.680061 3.448118 C -19.246163 1.092354 -16.148119 -3.025349 -12.831297 -7.127425 M 106.398477 160.725625 C 107.504084 158.467529 110.129413 145.602637 110.566967 143.383609 C 94.103968 141.570882 62.486728 133.296409 43.175716 119.435298 C 61.529577 136.706992 83.012736 150.599357 106.398477 160.725625 Z M 14.746375 82.848685 C 15.504282 69.479824 24.34914 62.193755 30.826513 60.572458 M 57.947097 113.711925 C 59.35743 114.383884 60.838084 115.05975 62.385153 115.731709 C 77.230762 122.170015 97.604407 128.72943 126.268152 131.143795 C 124.928141 145.977684 120.634634 164.855048 114.876101 180.661715 C 93.49061 173.656931 66.151249 156.611828 48.465441 141.125514 C 40.198781 133.890233 33.826889 127.151108 28.966906 120.872978 M 49.938282 71.456634 C 40.190967 69.393875 29.306792 73.523299 29.869362 84.720013 C 29.888896 85.110687 29.92015 85.509175 29.970938 85.919382 M -0.411773 264.355789 C 2.803473 263.086098 6.143735 261.832035 9.605106 260.597506 C 1.061067 256.32744 -4.865456 248.631163 -5.11158 239.028398 C -10.98341 243.22033 -18.460908 246.744208 -26.559579 248.322531 M -35.994354 282.686209 C -32.911937 280.439834 -29.356804 278.193459 -25.375837 275.962711 " transform="matrix(0.999875, 0, 0, -0.999875, 361.942972, 393.81878)"/>
<path fill="none" stroke-width="5.5" stroke-linecap="round" stroke-linejoin="miter" stroke="rgb(0%, 0%, 0%)" stroke-opacity="1" stroke-miterlimit="10" d="M -0.00143846 -0.00079212 C -8.205591 14.211925 -3.326074 32.409516 10.882737 40.617575 C 25.095454 48.821728 43.296952 43.946117 51.501104 29.7334 C 59.705257 15.520683 54.829646 -2.676908 40.616929 -10.881061 C 26.404212 -19.08912 8.206621 -14.213509 -0.00143846 -0.00079212 Z M -4.927837 46.559726 C -2.384549 49.017065 0.498624 51.208745 3.698244 53.06054 M 68.389938 3.648102 C 65.502858 -7.333742 58.400406 -17.202165 47.801422 -23.324025 C 26.720658 -35.493518 -0.271003 -28.262144 -12.440496 -7.181379 C -14.296197 -3.966132 -15.702623 -0.610243 -16.675401 2.804247 M 65.901345 33.112729 C 66.995232 30.710085 67.885969 28.131637 68.522767 25.643044 M 3.698244 53.06054 C 11.042913 57.299352 19.106423 59.1824 27.009756 58.947996 " transform="matrix(0.999875, 0, 0, -0.999875, 117.122532, 379.768739)"/>
<path fill="none" stroke-width="5.5" stroke-linecap="round" stroke-linejoin="round" stroke="rgb(0%, 0%, 0%)" stroke-opacity="1" stroke-miterlimit="10" d="M 0.000119182 -0.00121739 C 2.297282 -16.350921 0.726773 -32.044292 -7.51254 -46.518761 C -24.288078 -75.975575 -57.745393 -82.406067 -82.807125 -68.040987 M -37.332681 101.31225 C -35.531674 96.186609 -33.484543 90.978925 -31.18738 85.685294 C -20.959537 62.096402 -9.016635 37.89806 -2.972909 14.641241 M -46.458823 144.649708 C -46.009548 135.722809 -44.536708 126.487278 -42.091089 116.939207 M -7.289856 216.361813 C -22.936347 209.993828 -38.438288 195.019297 -43.524862 175.446534 M -35.812959 8.49594 C -32.472697 -4.583822 -31.902313 -15.725843 -35.617622 -24.754317 C -41.223793 -38.365396 -52.893223 -42.52998 -60.63638 -40.142963 M -75.165543 108.45377 C -71.57525 96.686671 -66.930137 85.290713 -61.984205 74.269802 C -53.408912 55.154127 -45.560273 37.905873 -40.208041 22.736005 M -82.02187 159.092923 C -82.736804 146.755441 -81.502274 134.761751 -78.998054 123.111855 M 40.78257 258.281125 C -26.776671 259.753966 -60.472297 225.304339 -71.055653 202.422568 M -11.895902 3.538288 C -8.911153 -12.018347 -9.536231 -26.53579 -16.521481 -39.435843 C -28.831616 -62.165252 -51.424289 -68.162096 -72.794152 -60.434566 M -49.443572 101.238022 C -47.185477 94.748929 -44.587495 88.224674 -41.727762 81.645725 C -32.257826 59.8344 -21.717444 38.237946 -15.540889 17.99713 M -58.729891 148.759598 C -58.569715 137.648832 -56.788242 126.549786 -53.8074 115.376512 M -4.586393 229.261866 C -26.624308 223.378317 -46.755736 203.46176 -53.369845 183.857743 M -23.870057 6.288633 C -20.635277 -8.017846 -20.545422 -20.859298 -25.811707 -31.766914 C -34.449507 -49.648059 -51.205512 -55.183909 -65.312747 -50.913843 M -61.730267 103.503931 C -58.823653 94.920825 -55.389629 86.427574 -51.725108 78.012458 C -42.841183 57.611466 -33.758014 38.241853 -27.925253 20.630272 M -70.528244 153.615675 C -70.774368 141.872017 -69.141351 130.319789 -66.297245 118.935551 M 3.613853 243.259713 C -30.714664 237.298029 -53.084653 214.201386 -62.226423 192.554144 " transform="matrix(0.999875, 0, 0, -0.999875, 246.238162, 336.252689)"/>
<path fill="none" stroke-width="5.5" stroke-linecap="round" stroke-linejoin="miter" stroke="rgb(0%, 0%, 0%)" stroke-opacity="1" stroke-miterlimit="10" d="M 0.00179862 -0.00145337 C -4.494858 16.930354 -2.666504 36.682828 -2.838401 55.872731 " transform="matrix(0.999875, 0, 0, -0.999875, 100.44742, 376.963391)"/>
<path fill="none" stroke-width="5.5" stroke-linecap="round" stroke-linejoin="round" stroke="rgb(0%, 0%, 0%)" stroke-opacity="1" stroke-miterlimit="10" d="M 0.000226355 0.00106295 C -2.847787 18.913587 -7.586661 35.419561 -8.629761 48.475883 C -10.419047 70.904473 -3.22674 88.125379 4.020261 103.080377 C 13.900404 104.076595 28.058427 98.806404 32.461322 95.755241 C 34.676444 94.219892 36.137564 91.223423 35.305429 88.977048 C 34.29749 86.250144 31.566679 84.882786 27.929505 85.714921 C 22.28036 87.008052 17.006262 88.836406 12.982321 89.270054 C 17.318801 88.691856 21.299768 87.515928 24.276704 86.246238 C 25.804239 85.597719 28.218604 83.089592 27.538831 80.089217 C 26.866872 77.127908 24.229823 75.299554 21.491199 75.498798 C 17.771983 75.764456 11.153967 76.592685 8.665374 76.370001 C 10.782827 76.635659 12.908093 76.280146 14.169969 75.998861 C 17.326615 75.295648 19.506575 72.771894 19.151062 69.689477 C 18.84243 67.032894 17.041423 65.02483 13.29486 64.075493 C 6.622149 62.387781 7.00501 53.89453 7.450378 46.901467 C 8.130151 36.189188 14.798954 25.113583 24.893969 23.269602 C 35.492952 21.335766 42.618844 26.547356 44.896473 34.536638 C 46.861563 41.412499 44.458918 47.534359 38.352685 52.835804 C 33.273924 57.242606 34.492827 60.649282 36.328994 62.645626 C 39.091059 65.649909 42.712606 64.407565 45.158225 62.016641 C 47.502268 59.727292 50.037742 57.121497 52.737299 53.156157 C 49.56112 57.394969 46.924071 60.242981 45.494204 62.301833 C 43.372845 65.368623 45.06837 68.615124 46.842029 69.748078 C 49.357969 71.361561 52.315371 70.93182 55.737675 67.044614 C 59.187325 63.126155 65.059154 55.418159 68.168919 48.675127 C 66.395259 42.314955 61.785307 37.33777 57.581655 27.281823 C 54.97586 21.054481 51.416821 8.256003 53.042025 -2.085136 C 53.67101 -6.08173 54.889912 -9.988469 56.667479 -13.778006 " transform="matrix(0.999875, 0, 0, -0.999875, 95.480242, 294.590907)"/>
<path fill="none" stroke-width="5.5" stroke-linecap="round" stroke-linejoin="miter" stroke="rgb(0%, 0%, 0%)" stroke-opacity="1" stroke-miterlimit="10" d="M 0.000647153 -0.000396904 C 2.356411 -2.633539 5.00518 -5.180733 7.935234 -7.626352 C 8.771277 -8.388166 9.66592 -9.107006 10.533216 -9.708644 " transform="matrix(0.999875, 0, 0, -0.999875, 161.222009, 321.866791)"/>
<path fill="none" stroke-width="5.5" stroke-linecap="round" stroke-linejoin="round" stroke="rgb(0%, 0%, 0%)" stroke-opacity="1" stroke-miterlimit="10" d="M -0.00147864 0.000315465 C -0.212443 -0.378638 -0.43122 -0.753685 -0.661718 -1.128732 C -4.873182 -8.059288 -11.74123 -15.255501 -19.664097 -16.98228 C -27.586964 -18.712965 -40.057276 -18.248063 -44.280461 -14.673397 C -48.507553 -11.102637 -47.366785 -5.539441 -41.393381 -2.843791 M -25.074931 -17.771441 C -18.984324 -9.090667 -14.663471 -2.374982 -12.921065 0.297228 C -4.701286 12.888648 -2.2166 20.096582 2.09644 18.315109 C 3.549747 17.713471 4.198266 15.752288 4.116224 13.068358 M -120.426715 -97.871315 C -108.749471 -95.937479 -96.396362 -91.116563 -84.183895 -82.646752 C -66.271496 -70.223322 -48.214547 -48.990194 -34.646442 -30.956686 M -174.863219 -18.138675 C -180.793649 -16.091543 -186.270897 -14.177241 -193.119411 -11.321415 C -203.054249 -7.180271 -209.105788 -3.722807 -214.856508 -1.234214 C -219.122667 0.609767 -222.53325 -1.515499 -223.423987 -3.160237 C -225.416424 -6.832571 -223.365386 -10.33301 -219.61101 -12.65752 C -213.15317 -16.65802 -197.049591 -22.74472 -189.400195 -26.924931 C -187.353064 -28.042259 -185.954451 -29.683089 -186.915509 -31.202811 C -187.782805 -32.574076 -189.677574 -32.749879 -192.412291 -30.847297 C -197.705923 -27.167149 -214.563502 -14.720278 -222.279312 -11.450337 C -226.209492 -9.78216 -228.924676 -11.520658 -230.194366 -13.255251 C -232.272751 -16.087637 -231.518751 -20.287381 -226.561099 -23.326824 C -219.923549 -27.397647 -210.805219 -30.901992 -201.718144 -38.89518 C -190.232331 -49.001914 -194.142977 -64.656218 -172.284771 -84.623562 C -168.280363 -88.28027 -163.471167 -91.374408 -158.044706 -93.741892 M -172.652004 -65.324271 C -167.178663 -67.222946 -162.049114 -69.645124 -157.107089 -71.250794 C -146.94566 -74.555895 -138.393808 -74.844994 -132.279761 -74.360559 C -128.810577 -74.08318 -121.512788 -73.88003 -113.824325 -77.302333 C -109.374549 -79.279143 -103.63555 -79.552615 -101.639206 -75.997482 C -99.658489 -72.46579 -102.076761 -69.145062 -106.256972 -66.976821 C -108.292383 -65.922002 -112.8242 -65.414126 -116.117581 -63.929565 C -118.789791 -62.726289 -120.153243 -60.97607 -119.336734 -59.671219 C -118.297542 -58.010855 -115.898804 -58.889871 -114.004035 -60.147841 C -111.831888 -61.593335 -106.178837 -66.5588 -102.955777 -68.406688 C -98.724778 -70.83668 -95.325915 -70.449913 -93.540535 -67.570646 C -92.294286 -65.558675 -92.048161 -61.792579 -97.521503 -58.022575 C -104.03013 -53.533732 -114.078263 -47.271229 -119.207812 -43.493412 C -125.986004 -38.504506 -131.986756 -35.129083 -139.155622 -31.878676 M -194.334407 -49.66606 C -195.713486 -49.810609 -197.073031 -50.033294 -198.409136 -50.349739 C -217.724054 -54.86593 -235.316101 -72.215759 -234.276908 -91.268926 C -233.729965 -101.258458 -225.131232 -111.099534 -215.040125 -111.232363 C -203.030808 -111.392539 -197.084751 -101.516303 -197.682482 -93.737985 C -198.362255 -84.85406 -207.371196 -77.67738 -215.778498 -80.119092 C -213.657139 -71.532079 -201.468113 -64.492135 -194.064842 -63.058362 C -192.318529 -62.718476 -190.611284 -62.530952 -188.943107 -62.468444 M -137.381963 -46.900089 C -134.240944 -49.212878 -132.131305 -51.846021 -132.553233 -54.615899 C -133.6354 -61.698817 -143.734321 -61.855086 -154.845087 -58.085083 C -161.013828 -55.991071 -169.202354 -52.771918 -177.793273 -50.91231 M -166.338714 -72.059489 C -180.582685 -59.432908 -179.000455 -48.677655 -175.156224 -42.958189 C -174.757737 -42.368271 -174.269394 -41.840861 -173.710731 -41.372053 M -49.050589 -27.749253 C -62.521026 -45.138149 -78.51131 -63.476383 -92.481809 -72.493137 C -103.842607 -79.82218 -115.277632 -83.830494 -126.036792 -84.889221 M 16.793593 6.641772 C 18.586786 15.33036 18.688362 19.385555 21.219929 27.402184 C 24.575818 38.036328 30.435926 47.193725 33.143297 53.483575 C 35.159174 58.171662 33.713681 61.972919 30.338258 63.344185 C 26.814379 64.777958 23.583506 62.55893 21.305877 58.59359 C 17.172547 51.401283 13.972927 40.27489 11.304625 33.512324 C 10.593598 31.711318 9.495804 30.332239 8.140166 31.000291 C 6.569657 31.773825 6.811875 33.735008 7.65573 35.356305 C 11.07022 41.900093 18.481305 52.862404 21.130074 58.718606 C 23.415516 63.78174 21.544188 67.133722 19.098569 68.563588 C 15.738774 70.528678 12.078159 69.255081 9.831784 65.442104 C 6.339159 59.51558 -12.026422 23.581393 -22.555084 8.767038 C -26.227419 3.602329 -32.657912 -5.785565 -40.588592 -16.544725 M -60.087128 -5.058912 C -62.962488 -12.723934 -60.02462 -23.225249 -48.085625 -28.167274 C -39.846312 -31.581764 -33.435353 -30.792603 -27.649472 -31.210624 C -22.69182 -31.570044 -18.077961 -34.05473 -16.448851 -38.223221 C -14.972103 -42.001038 -13.448475 -46.017166 -9.459694 -46.25157 C -6.807018 -46.40784 -3.505824 -44.11849 -3.638653 -39.910932 C -3.732415 -36.844142 -6.154593 -32.644397 -7.146905 -30.47225 C -7.896999 -28.83142 -7.646967 -27.198403 -6.123339 -27.018693 C -4.302799 -26.803822 -3.841803 -29.058011 -3.732415 -30.823857 C -3.423782 -35.992473 -3.533171 -37.523915 -3.216725 -39.981254 C -2.697129 -44.005195 0.00633483 -46.548482 3.166887 -46.126554 C 7.011118 -45.614771 8.964488 -42.083079 8.323783 -36.945717 C 7.417419 -29.636208 6.91345 -24.244908 7.851067 -20.498345 C 8.675389 -17.212777 10.691267 -12.473903 12.586035 -7.547505 M -192.392757 11.783041 C -190.986331 13.86924 -181.160882 22.573455 -179.457544 24.061922 C -169.655535 10.708688 -146.683909 -12.532504 -125.024947 -22.326699 C -149.156875 -15.067978 -171.929258 -3.410268 -192.392757 11.783041 Z M -79.120761 -28.655617 C -67.92014 -21.310947 -66.037091 -10.012657 -67.869352 -3.589978 M -127.451032 -6.672395 C -128.740256 -5.785565 -130.060733 -4.844041 -131.420279 -3.836102 C -144.418 5.797916 -160.287175 20.166903 -176.7072 43.779235 C -188.884506 35.203942 -203.085503 22.042138 -213.89545 9.153805 C -197.139446 -5.8637 -168.706198 -21.017941 -146.449504 -28.593109 C -136.049765 -32.132614 -127.029104 -34.281321 -119.164838 -35.351768 M -86.852198 7.520788 C -80.191208 0.113611 -78.327693 -11.380016 -88.301598 -16.493937 C -88.649298 -16.673647 -89.016531 -16.841637 -89.395485 -17.00572 M -228.733246 -132.535812 C -229.241122 -129.117415 -229.823226 -125.593536 -230.487371 -121.979803 C -222.517623 -127.246087 -212.891418 -128.531404 -204.448955 -123.940986 C -205.144354 -131.125479 -204.456768 -139.360885 -201.772838 -147.162644 M -226.815037 -172.513474 C -226.412642 -168.720031 -226.244653 -164.520286 -226.303254 -159.953308 " transform="matrix(0.999875, 0, 0, -0.999875, 338.981947, 160.722972)"/>
<path fill="none" stroke-width="5.5" stroke-linecap="round" stroke-linejoin="miter" stroke="rgb(0%, 0%, 0%)" stroke-opacity="1" stroke-miterlimit="10" d="M -0.00138484 -0.00079212 C -8.205537 -14.213509 -26.403128 -19.08912 -40.615846 -10.881061 C -54.828563 -2.676908 -59.704173 15.520683 -51.500021 29.7334 C -43.295869 43.946117 -25.094371 48.821728 -10.881654 40.617575 C 3.327157 32.409516 8.206674 14.211925 -0.00138484 -0.00079212 Z M -37.857688 -27.54721 C -41.260458 -26.574432 -44.596813 -25.171913 -47.800339 -23.324025 M -37.353718 57.404834 C -26.399222 60.393489 -14.303957 59.178493 -3.701067 53.06054 C 17.379698 40.88714 24.611072 13.895479 12.44158 -7.181379 C 10.585878 -10.400532 8.382477 -13.291519 5.909512 -15.846526 M -61.626289 40.516 C -60.094847 42.664707 -58.305561 44.727465 -56.465487 46.520658 M -47.800339 -23.324025 C -55.145009 -19.085213 -60.805874 -13.045394 -64.556343 -6.083585 " transform="matrix(0.999875, 0, 0, -0.999875, 449.224041, 379.768739)"/>
<path fill="none" stroke-width="5.5" stroke-linecap="round" stroke-linejoin="round" stroke="rgb(0%, 0%, 0%)" stroke-opacity="1" stroke-miterlimit="10" d="M -0.000476755 -0.00121978 C 13.008965 10.164116 27.385765 16.653209 44.040194 16.754785 C 77.93897 16.957935 100.238638 -8.803103 100.328493 -37.69344 M -69.071626 -82.984267 C -65.53212 -78.866564 -62.047309 -74.483203 -58.613285 -69.853717 C -43.298867 -49.198787 -28.312616 -26.758477 -11.193285 -9.893083 M -102.040598 -112.558283 C -94.535752 -107.706113 -87.273124 -101.81475 -80.229273 -94.923262 M -183.730515 -114.492119 C -170.392907 -124.860605 -149.671562 -130.798848 -130.176934 -125.415362 M 10.551626 -35.263448 C 20.201272 -25.828673 29.569632 -19.765413 39.246625 -18.468376 C 53.838296 -16.518913 63.276978 -24.539449 65.081892 -32.438875 M -56.339563 -119.320849 C -47.94398 -110.331442 -40.39616 -100.607568 -33.324962 -90.813373 C -21.061708 -73.830777 -10.04861 -58.406971 0.413638 -46.190597 M -96.770407 -150.578669 C -85.726055 -145.031099 -75.9553 -137.963808 -67.122163 -129.97062 M -244.070102 -93.821562 C -211.562125 -153.067262 -164.884405 -165.02579 -139.775792 -162.748162 M 2.882697 -12.069137 C 14.864666 -1.704558 27.749092 5.011127 42.414991 5.409614 C 68.254164 6.112827 84.74451 -10.451747 88.733291 -32.825643 M -62.953672 -93.438701 C -58.464829 -88.234925 -54.112721 -82.722516 -49.842656 -76.960075 C -35.688539 -57.852214 -22.25717 -37.927844 -7.817862 -22.457157 M -99.46215 -125.239558 C -89.9258 -119.547439 -81.202051 -112.452801 -73.017432 -104.287716 M -196.251614 -118.602009 C -180.140221 -134.744655 -152.824301 -142.222154 -132.540511 -138.147425 M 6.488617 -23.816702 C 17.263404 -13.86233 28.335103 -7.361516 40.41474 -6.47078 C 60.221908 -5.009659 73.391526 -16.753317 76.747415 -31.102771 M -58.773461 -105.213613 C -52.788337 -98.404167 -47.150912 -91.180606 -41.697104 -83.804682 C -28.472792 -65.904003 -16.236885 -48.354931 -3.903309 -34.501634 M -97.770532 -137.885673 C -87.480181 -132.228715 -78.29153 -125.036408 -69.852974 -116.883043 M -212.480209 -118.500433 C -190.149287 -145.249877 -158.965695 -153.071169 -135.642462 -150.164555 " transform="matrix(0.999875, 0, 0, -0.999875, 346.980945, 289.709718)"/>
<path fill="none" stroke-width="5.5" stroke-linecap="round" stroke-linejoin="miter" stroke="rgb(0%, 0%, 0%)" stroke-opacity="1" stroke-miterlimit="10" d="M 0.000311577 -0.00182633 C -12.415306 -12.358842 -30.433187 -20.65285 -46.970414 -30.392351 " transform="matrix(0.999875, 0, 0, -0.999875, 455.132501, 395.611455)"/>
<path fill="none" stroke-width="5.5" stroke-linecap="round" stroke-linejoin="round" stroke="rgb(0%, 0%, 0%)" stroke-opacity="1" stroke-miterlimit="10" d="M 0.00152637 -0.00160436 C -14.957378 -11.924972 -26.880746 -24.281989 -37.663346 -31.7087 C -56.196917 -44.475923 -74.707047 -46.855128 -91.279435 -48.058403 C -97.08485 -39.9988 -99.60079 -25.10631 -99.155421 -19.765798 C -98.936644 -17.077961 -97.069223 -14.315897 -94.709552 -13.913503 C -91.842006 -13.42516 -89.294812 -15.105058 -88.197018 -18.668004 C -86.489773 -24.211667 -85.43886 -29.688916 -83.801936 -33.396411 C -85.470114 -29.349029 -86.438985 -25.313368 -86.833566 -22.098121 C -87.03281 -20.453384 -86.063938 -17.105309 -83.12607 -16.198945 C -80.22727 -15.296488 -77.328469 -16.667754 -76.1291 -19.136813 C -74.49999 -22.488795 -71.909822 -28.638003 -70.472142 -30.681227 C -71.761366 -28.981796 -72.519273 -26.962012 -72.902134 -25.727482 C -73.871005 -22.645065 -72.777118 -19.492326 -69.925199 -18.261703 C -67.475673 -17.19907 -64.834717 -17.753827 -62.139067 -20.523705 C -57.337685 -25.457917 -50.176632 -20.879219 -44.34387 -16.999827 C -35.405251 -11.05377 -29.150562 0.25624 -32.600212 9.921513 C -36.225666 20.071222 -44.296989 23.634168 -52.356592 21.614384 C -59.294961 19.875885 -63.393131 14.734616 -64.932386 6.796122 C -66.213796 0.193733 -69.772836 -0.454786 -72.417698 0.139038 C -76.398665 1.029775 -77.133132 4.784151 -76.289277 8.100973 C -75.480582 11.273245 -74.48827 14.773683 -72.402071 19.094537 C -74.48827 14.222833 -75.632945 10.515338 -76.703391 8.249429 C -78.297341 4.877913 -81.957955 4.72555 -83.825377 5.690515 C -86.481959 7.065687 -87.587567 9.839472 -85.935016 14.746336 C -84.262932 19.696175 -80.520275 28.634794 -76.238489 34.698053 C -69.843157 36.34279 -63.229048 34.838696 -52.4191 36.225588 C -45.719043 37.081164 -32.858057 40.397986 -24.716413 46.980841 C -21.567581 49.520222 -18.793796 52.532318 -16.402872 55.962435 " transform="matrix(0.999875, 0, 0, -0.999875, 386.279724, 441.099958)"/>
<path fill="none" stroke-width="5.5" stroke-linecap="round" stroke-linejoin="miter" stroke="rgb(0%, 0%, 0%)" stroke-opacity="1" stroke-miterlimit="10" d="M 0.00136794 0.00135284 C 1.103068 3.357242 1.982085 6.928001 2.638417 10.686285 C 2.880635 11.791892 3.052531 12.924846 3.142386 13.975759 " transform="matrix(0.999875, 0, 0, -0.999875, 377.029882, 370.528696)"/>
<path fill="none" stroke-width="5.5" stroke-linecap="round" stroke-linejoin="round" stroke="rgb(0%, 0%, 0%)" stroke-opacity="1" stroke-miterlimit="10" d="M -0.00144069 -0.000164702 C 0.432207 0.00374204 0.869762 0.00374204 1.307317 -0.00797818 C 9.413801 -0.191595 19.079074 -2.539545 24.540695 -8.53639 C 29.99841 -14.533235 35.831171 -25.565866 34.85058 -31.011861 C 33.866081 -36.457855 28.478688 -38.251048 23.161616 -34.422444 M 27.927838 -12.829896 C 17.364015 -11.896186 9.39036 -11.513325 6.202461 -11.337522 C -8.811138 -10.517107 -16.29645 -11.966507 -16.909808 -7.344834 C -17.116865 -5.786045 -15.741693 -4.23507 -13.378116 -2.969286 M 144.969838 -55.354752 C 137.457178 -46.209076 127.108226 -37.922882 113.665136 -31.582244 C 93.95173 -22.280298 66.534235 -17.260139 44.132992 -14.525421 M 103.140381 -142.365648 C 104.331936 -148.522669 105.414103 -154.226508 106.363441 -161.586805 C 107.74252 -172.260016 107.77768 -179.229639 108.49652 -185.453075 C 109.031744 -190.066934 112.579063 -191.961702 114.450391 -191.910915 C 118.626695 -191.797619 120.630852 -188.269834 120.767588 -183.859125 C 121.001993 -176.268331 118.220394 -159.277922 118.017244 -150.565894 C 117.96255 -148.229664 118.68139 -146.198159 120.482396 -146.272387 C 122.099786 -146.338802 123.201487 -147.893684 122.920202 -151.210506 C 122.381072 -157.633185 120.033121 -178.456105 121.056687 -186.773553 C 121.576283 -191.008458 124.439923 -192.493019 126.57691 -192.727423 C 130.069534 -193.106377 133.327755 -190.356032 133.480118 -184.542804 C 133.687175 -176.76058 132.163547 -167.110934 134.542751 -155.246167 C 137.55094 -140.244289 153.068508 -135.802326 159.428679 -106.888549 C 160.592888 -101.594918 160.870266 -95.883265 160.202214 -89.999716 M 142.899266 -116.858548 C 141.805379 -111.170335 141.340477 -105.517284 140.25831 -100.430709 C 138.039282 -89.980182 134.011434 -82.428455 130.534436 -77.377041 C 128.561533 -74.509495 124.740742 -68.293873 123.857819 -59.921731 C 123.346036 -55.081281 120.708987 -49.975173 116.634258 -50.022053 C 112.586876 -50.072841 110.918699 -53.827217 111.133569 -58.530931 C 111.235145 -60.820281 113.063499 -65.004398 113.422919 -68.594692 C 113.715924 -71.509119 112.883789 -73.564064 111.344533 -73.513276 C 109.387257 -73.442955 108.949702 -70.927015 109.094252 -68.653293 C 109.258335 -66.051404 110.731175 -58.671574 110.719455 -54.956265 C 110.707735 -50.080655 108.672324 -47.33031 105.289088 -47.224828 C 102.921604 -47.1506 99.538367 -48.818778 99.007051 -55.444607 C 98.378066 -63.3245 97.975672 -75.158014 97.272459 -81.490838 C 96.338748 -89.855166 96.416883 -96.738841 97.18651 -104.57576 M 140.180175 -143.467348 C 140.996684 -144.584676 141.867887 -145.651216 142.805504 -146.651341 C 156.377516 -161.121903 180.196905 -167.685225 196.175468 -157.254231 C 204.555424 -151.784796 208.782516 -139.419967 203.852211 -130.61027 C 197.984289 -120.132395 186.459408 -119.921431 180.021102 -124.328233 C 172.668619 -129.356206 170.957467 -140.748258 177.274664 -146.811517 C 168.781413 -149.268856 156.58848 -142.228912 151.642548 -136.536793 C 150.474433 -135.192875 149.462588 -133.809889 148.571851 -132.39565 M 109.305215 -95.523845 C 109.738864 -91.64836 110.96558 -88.503435 113.575281 -87.487682 C 120.251899 -84.881887 125.436142 -93.550942 127.725491 -105.060195 C 128.995181 -111.447714 130.303939 -120.144115 132.991775 -128.520164 M 145.571476 -108.02541 C 141.758498 -126.672277 131.659577 -130.680591 124.783716 -130.207876 C 124.068783 -130.160995 123.369477 -130.000818 122.685797 -129.750787 M 48.555421 -28.601402 C 70.351119 -31.574431 94.229109 -36.254705 109.02393 -43.845499 C 121.048874 -50.018147 130.237524 -57.917573 136.535188 -66.707737 M -14.147743 11.227804 C -22.570673 8.430578 -26.133619 6.492836 -34.341678 4.676202 C -45.22976 2.265744 -56.090495 2.7619 -62.888222 1.961018 C -67.955262 1.363287 -70.525897 -1.789451 -70.025834 -5.399278 C -69.506238 -9.165375 -65.970639 -10.853086 -61.395847 -10.845273 C -53.10184 -10.829646 -41.866058 -8.036327 -34.677658 -6.965881 C -32.759449 -6.680689 -31.017043 -6.94244 -30.919375 -8.450442 C -30.802173 -10.196754 -32.622713 -10.966382 -34.44716 -11.044516 C -41.819177 -11.360962 -55.020049 -10.423345 -61.415381 -11.060143 C -66.943417 -11.610994 -68.912414 -14.908282 -68.92804 -17.744574 C -68.951481 -21.63178 -66.01752 -24.167253 -61.591184 -24.206321 C -54.711417 -24.268829 -14.409495 -22.20607 3.686521 -23.917222 C 9.995905 -24.514953 21.341076 -25.390063 34.620082 -26.87853 M 34.424745 -49.510271 C 42.499975 -48.166352 50.12593 -40.368501 48.438219 -27.558303 C 47.270104 -18.717352 43.382898 -13.55655 40.855238 -8.341053 C 38.683091 -3.867837 38.530728 1.371101 41.327953 4.867632 C 43.85952 8.032091 46.574704 11.360633 44.781511 14.931393 C 43.589955 17.310597 39.960595 19.025655 36.382022 16.806627 C 33.776226 15.189237 31.350141 10.993399 29.963249 9.047843 C 28.916243 7.578909 27.376988 6.977272 26.462811 8.203988 C 25.365017 9.676828 27.083982 11.204363 28.56073 12.177141 C 32.881583 15.032968 34.264569 15.704927 36.233565 17.205115 C 39.456625 19.66636 40.308294 23.280094 38.362738 25.803848 C 35.995254 28.878451 31.963499 28.804223 27.834076 25.682739 C 21.95834 21.240776 17.539818 18.107572 13.824509 17.048845 C 10.570196 16.119041 5.456274 15.49787 0.244684 14.673548 M 85.993703 -172.506141 C 83.481669 -172.334244 71.030892 -168.177474 68.889998 -167.446914 C 75.554896 -152.280952 84.196603 -120.765287 81.844746 -97.109981 C 87.62672 -121.640397 88.915944 -147.190471 85.993703 -172.506141 Z M 64.373808 -54.190544 C 52.415279 -48.166352 41.687373 -52.18248 37.046167 -56.979956 M 69.503356 -107.040912 C 69.382248 -108.599701 69.225978 -110.213184 69.034548 -111.893082 C 67.190567 -127.969314 62.678283 -148.893809 50.438469 -174.924413 C 63.955787 -181.179102 82.454197 -186.898568 99.018771 -189.816902 C 103.64435 -167.794613 102.55437 -135.595269 97.987392 -112.533787 C 95.854312 -101.759001 93.201636 -92.871169 90.197354 -85.522593 M 36.913338 -78.974898 C 39.999662 -69.501055 49.016416 -62.140758 58.435564 -68.227458 C 58.76373 -68.438422 59.095803 -68.66892 59.423969 -68.915044 M 229.144441 -131.821359 C 226.43707 -133.970065 223.682819 -136.235974 220.881687 -138.615178 C 221.459885 -129.082735 217.756296 -120.101141 209.559957 -115.088795 C 216.127186 -112.100139 222.917098 -107.384705 228.331839 -101.16127 M 262.808812 -110.17021 C 259.320094 -111.717279 255.600878 -113.670649 251.678512 -116.006879 " transform="matrix(0.999875, 0, 0, -0.999875, 148.595191, 297.156085)"/>
</mask>
</defs>
<rect x="0" y="0" width="566.929" height="566.929" fill="currentColor" mask="url(#ornament-mask)"/>
</svg>
