<?xml version="1.0" encoding="UTF-8"?>
<svg xmlns="http://www.w3.org/2000/svg" xmlns:xlink="http://www.w3.org/1999/xlink" width="437.499pt" height="718.293pt" viewBox="0 0 437.499 718.293">
<defs>
<mask id="ornament-mask" maskUnits="userSpaceOnUse" x="0" y="0" width="437.499" height="718.293">
<rect x="0" y="0" width="437.499" height="718.293" fill="black"/>
<path fill-rule="evenodd" fill="white" fill-opacity="1" d="M 125.625 308.460938 C 124.144531 316.160156 121.542969 326.515625 118.9375 335.769531 C 122.914062 333.160156 127.097656 330.585938 131.324219 328.058594 C 129.449219 321.035156 127.554688 314.28125 125.691406 308.097656 Z M 310.96875 308.78125 C 306.660156 323.167969 302.183594 340.53125 298.242188 357.175781 C 307.203125 356.390625 316.28125 355.421875 323.972656 354.867188 C 320.609375 346.257812 313.882812 322.398438 311.175781 308.097656 Z M 194.992188 448.757812 L 194.675781 448.558594 C 194.835938 451.316406 194.917969 454.214844 194.917969 457.25 C 194.917969 493.6875 183.222656 531.023438 183.222656 560.910156 C 183.222656 580.054688 185.625 588.90625 189.410156 601.5 C 194.1875 617.386719 196.765625 623.230469 197.15625 631.035156 C 197.964844 647.183594 177.996094 646.273438 175.441406 638.003906 C 175.175781 645.722656 159.980469 648.96875 155.441406 640.167969 C 152.679688 647.820312 139.5625 645.3125 138.351562 639.121094 C 134.035156 644.363281 121.570312 643.660156 121.597656 627.761719 C 121.609375 619.765625 126.9375 604.230469 131.8125 590.722656 C 136.15625 578.683594 140.09375 568.675781 140.09375 560.417969 C 140.09375 542.882812 131.125 481.933594 131.125 452.902344 C 131.125 430.960938 136.132812 414.355469 149.285156 407.550781 C 147.746094 398.613281 145.023438 385.238281 141.675781 370.382812 C 127.601562 379.535156 111.8125 389.363281 99.9375 392.570312 C 92.378906 394.613281 83.65625 396.3125 79.125 390.894531 C 76.730469 388.03125 70.71875 370.5 72.902344 349.097656 C 74.84375 330.058594 81.402344 301.539062 90.734375 282.238281 C 98.160156 266.886719 107.453125 258.28125 120.480469 252.398438 C 128.753906 248.660156 145.574219 242.726562 154.578125 239.054688 C 162.113281 235.980469 171.332031 230.226562 174.636719 222.1875 C 173.53125 219.753906 172.398438 217.386719 171.246094 215.070312 C 162.003906 214.796875 155.460938 210.273438 154.640625 204.386719 C 154.152344 200.84375 156.605469 200.519531 160.125 199.886719 C 161.03125 199.722656 161.996094 199.515625 163.007812 199.253906 C 153.476562 181.238281 145.023438 164.035156 145.023438 138.121094 C 145.023438 92.988281 183.863281 70.179688 218.433594 70.179688 C 253.003906 70.179688 291.84375 92.988281 291.84375 138.121094 C 291.84375 164.035156 283.390625 181.238281 273.859375 199.253906 C 274.871094 199.515625 275.835938 199.722656 276.742188 199.886719 C 280.265625 200.519531 282.71875 200.84375 282.226562 204.386719 C 281.40625 210.273438 274.863281 214.796875 265.617188 215.070312 L 265.613281 215.082031 C 264.484375 217.363281 263.382812 219.660156 262.328125 221.976562 L 262.230469 222.1875 C 265.535156 230.226562 274.753906 235.980469 282.289062 239.054688 C 291.292969 242.726562 308.113281 248.660156 316.386719 252.398438 C 329.414062 258.28125 338.707031 266.886719 346.132812 282.238281 C 355.464844 301.539062 362.023438 330.058594 363.964844 349.097656 C 366.148438 370.5 361.988281 386.445312 357.742188 390.894531 C 351.417969 397.523438 330.808594 400.976562 312.910156 400.128906 C 309.949219 399.992188 299.765625 399.351562 289.199219 398.757812 L 289.199219 398.761719 C 288.570312 402.011719 288.023438 404.96875 287.582031 407.550781 C 300.734375 414.355469 305.738281 430.960938 305.738281 452.902344 C 305.738281 481.933594 296.773438 542.882812 296.773438 560.417969 C 296.773438 568.675781 300.710938 578.683594 305.054688 590.722656 C 309.929688 604.230469 315.257812 619.765625 315.269531 627.761719 C 315.296875 643.660156 302.835938 644.363281 298.515625 639.121094 C 297.300781 645.3125 284.1875 647.820312 281.425781 640.167969 C 276.886719 648.96875 261.691406 645.722656 261.425781 638.003906 C 258.871094 646.273438 238.90625 647.183594 239.710938 631.035156 C 240.101562 623.230469 242.679688 617.386719 247.453125 601.5 C 251.242188 588.90625 253.644531 580.054688 253.644531 560.910156 C 253.644531 559.40625 253.617188 557.882812 253.558594 556.347656 C 253.558594 584.222656 244.464844 594.878906 233.660156 602.550781 C 222.097656 610.757812 205.519531 607.75 198.695312 602.859375 C 194.679688 599.984375 195.554688 596.929688 200.019531 597.300781 C 194.207031 595.980469 191.308594 593.335938 191.527344 591.335938 C 191.652344 590.207031 192.769531 589.484375 194.917969 589.75 C 189.015625 588.890625 186.105469 584.070312 190.941406 583.597656 C 199.273438 582.78125 205.675781 579.390625 205.675781 562.957031 C 205.675781 547.304688 195.917969 512.246094 194.992188 448.757812 "/>
<path fill="none" stroke-width="4" stroke-linecap="round" stroke-linejoin="round" stroke="black" stroke-opacity="1" stroke-miterlimit="10" d="M -0.00162492 -0.000594951 L -0.00162492 -53.737843 M -15.691446 -0.000594951 L -15.691446 -44.633679 C -15.691446 -105.030889 -4.671028 -132.124379 -4.671028 -155.463575 C -4.671028 -186.514718 -24.03693 -196.796009 -41.150255 -194.050681 C -46.324142 -193.221608 -47.55993 -196.463598 -43.301152 -199.513962 C -36.469119 -204.410187 -19.87201 -207.421444 -8.296269 -199.205015 C 2.520792 -191.524354 11.624955 -180.855901 11.624955 -152.94898 M -31.385179 -0.000594951 L -31.385179 -40.155901 C -31.385179 -105.1443 -20.720637 -137.521177 -20.720637 -157.262508 C -20.720637 -177.00775 -33.313165 -188.071186 -47.082822 -186.389575 C -49.23372 -186.123645 -50.352186 -186.847129 -50.47733 -187.977328 C -50.69633 -189.979618 -47.794573 -192.627178 -41.975417 -193.949003 M -47.082822 -0.000594951 L -47.082822 -35.482587 C -47.082822 -105.238157 -36.31269 -143.109601 -36.31269 -159.565924 C -36.31269 -176.018337 -42.722365 -179.412844 -51.063938 -180.230185 C -55.905413 -180.703383 -52.991925 -185.529215 -47.082822 -186.389575 M 56.633469 -235.817205 C 57.094934 -230.752819 56.950237 -224.851537 56.04295 -217.898272 M 39.524055 -236.865279 C 40.345307 -232.794216 40.536932 -226.885114 39.672662 -217.898272 M 19.501152 -234.698739 C 20.768226 -231.495856 21.851496 -226.243755 22.442016 -215.559659 M 30.247819 -0.598936 C 55.088733 -0.598936 63.864396 -20.316802 63.864396 -49.385208 C 63.864396 -78.449703 54.889286 -139.468717 54.889286 -157.023954 C 54.889286 -165.291223 58.831295 -175.310496 63.180019 -187.363345 C 68.060602 -200.886626 73.394829 -216.439572 73.406561 -224.444822 C 73.433936 -240.361466 60.958729 -241.065396 56.633469 -235.817205 C 55.417234 -242.015702 42.288936 -244.526386 39.524055 -236.865279 C 34.979794 -245.676139 19.767081 -242.426328 19.501152 -234.698739 C 16.943539 -242.97774 -3.044168 -243.888938 -2.238559 -227.722008 C -1.847486 -219.908383 0.733591 -214.057941 5.512495 -198.15303 C 9.305896 -185.544858 11.710991 -176.68316 11.710991 -157.516705 C 11.710991 -127.595762 -0.00162492 -90.217069 -0.00162492 -53.737843 C -0.00162492 -17.258617 11.984742 -0.598936 30.247819 -0.598936 Z M -23.540268 194.866833 C -19.453562 194.866833 -12.809243 196.790908 -9.751058 199.50104 M -23.540268 321.621194 C -15.945644 328.79346 -1.632397 331.405823 11.229972 326.024668 M -23.540268 308.563289 C -17.971398 315.395322 -7.38507 320.021708 4.053795 320.330655 C 14.859123 320.623959 26.423132 317.06129 35.22617 307.859359 M -23.540268 295.333312 C -16.14509 303.651421 -4.694493 308.578932 7.16282 308.997379 C 22.367712 309.533148 38.237427 302.658097 47.063929 285.998416 M -23.540268 279.850759 C -16.313251 289.811371 -3.97492 296.616029 10.111505 296.616029 C 28.894709 296.616029 50.290276 281.31728 49.836632 260.527876 M 31.948984 204.553694 C 34.573079 204.221283 34.776437 201.483776 32.711575 200.130666 M -6.548176 213.650036 C 7.463946 205.077731 23.134214 191.550539 34.217203 201.296062 C 34.987616 201.972617 36.692691 203.728531 38.57766 203.020691 M -23.540268 203.681603 C -14.893659 203.681603 -1.284342 194.166813 13.208798 190.09184 C 27.713671 186.012955 39.222929 191.476236 40.325753 199.415004 C 40.818504 202.96203 38.36257 203.28662 34.835098 203.920157 C 25.249915 205.644786 9.352825 212.449444 -4.076599 231.647185 M 1.945915 278.403791 C -6.771087 274.594747 -11.33099 265.79562 -11.514794 255.73724 C -11.663402 247.642043 -9.371718 239.441256 -4.076599 231.647185 C -9.00411 228.776714 -16.184198 225.968814 -23.540268 225.968814 M 8.887449 268.709109 C 12.215474 268.709109 14.917784 266.01071 14.917784 262.682684 C 14.917784 259.354659 12.215474 256.652349 8.887449 256.652349 C 5.559424 256.652349 2.857114 259.354659 2.857114 262.682684 C 2.857114 266.01071 5.559424 268.709109 8.887449 268.709109 Z M 8.887449 279.866402 C 18.374864 279.866402 26.071167 272.166188 26.071167 262.682684 C 26.071167 253.195269 18.374864 245.495055 8.887449 245.495055 C -0.596055 245.495055 -8.296269 253.195269 -8.296269 262.682684 C -8.296269 272.166188 -0.596055 279.866402 8.887449 279.866402 Z M -9.496861 170.229276 C -11.682955 156.799853 -13.470156 135.525518 -14.553426 113.187467 M 23.693447 188.707444 C 20.451458 182.168714 17.32679 175.22327 14.608837 167.503502 C 8.35168 149.733176 4.554368 131.493563 2.40347 113.187467 M -23.540268 333.775722 C 11.069633 333.775722 49.953954 310.941009 49.953954 265.756512 C 49.953954 239.812775 41.491148 222.58995 31.948984 204.553694 M -103.714005 -235.817205 C -104.17547 -230.752819 -104.030773 -224.851537 -103.123486 -217.898272 M -86.604591 -236.865279 C -87.425843 -232.794216 -87.617468 -226.885114 -86.753198 -217.898272 M -66.581688 -234.698739 C -67.848762 -231.495856 -68.932032 -226.243755 -69.522552 -215.559659 M -77.324445 -0.598936 C -102.165358 -0.598936 -110.948843 -20.316802 -110.948843 -49.385208 C -110.948843 -78.449703 -101.969822 -139.468717 -101.969822 -157.023954 C -101.969822 -165.291223 -105.911831 -175.310496 -110.260556 -187.363345 C -115.141138 -200.886626 -120.475365 -216.439572 -120.487097 -224.444822 C -120.514472 -240.361466 -108.035354 -241.065396 -103.714005 -235.817205 C -102.501681 -242.015702 -89.369472 -244.526386 -86.604591 -236.865279 C -82.06033 -245.676139 -66.847617 -242.426328 -66.581688 -234.698739 C -64.024075 -242.97774 -44.032458 -243.888938 -44.841977 -227.722008 C -45.23305 -219.908383 -47.814127 -214.057941 -52.596942 -198.15303 C -56.386432 -185.544858 -58.791527 -176.68316 -58.791527 -157.516705 C -58.791527 -127.595762 -47.082822 -90.217069 -47.082822 -53.737843 C -47.082822 -17.258617 -59.065278 -0.598936 -77.324445 -0.598936 Z M -100.385979 33.22882 C -97.03449 18.35634 -94.308715 4.966024 -92.767891 -3.981711 M -51.533225 127.594572 C -65.650936 117.454066 -70.750519 101.013386 -78.681465 95.323284 C -90.487939 86.852657 -108.28173 77.646815 -123.150299 67.881739 C -120.498829 77.29485 -117.85518 87.84207 -116.388659 95.585302 C -114.523244 89.394627 -112.622632 82.629076 -110.749396 75.601506 M -23.540268 194.866833 C -27.623063 194.866833 -34.267382 196.790908 -37.329478 199.50104 M -23.540268 321.621194 C -31.134893 328.79346 -45.44814 331.405823 -58.310508 326.024668 M -23.540268 308.563289 C -29.109138 315.395322 -39.695466 320.021708 -51.134331 320.330655 C -61.939659 320.623959 -73.503668 317.06129 -82.310617 307.859359 M -23.540268 295.333312 C -30.931535 303.651421 -42.386043 308.578932 -54.243356 308.997379 C -69.448248 309.533148 -85.314052 302.658097 -94.144465 285.998416 M -23.540268 279.850759 C -30.767285 289.811371 -43.105616 296.616029 -57.188131 296.616029 C -75.975245 296.616029 -97.370812 281.31728 -96.917168 260.527876 M -79.02952 204.553694 C -81.653615 204.221283 -81.856973 201.483776 -79.792111 200.130666 M -40.53236 213.650036 C -54.544482 205.077731 -70.21475 191.550539 -81.297739 201.296062 C -82.068152 201.972617 -83.769316 203.728531 -85.658196 203.020691 M -23.540268 203.681603 C -32.186877 203.681603 -45.796194 194.166813 -60.289334 190.09184 C -74.794207 186.012955 -86.303465 191.476236 -87.406289 199.415004 C -87.895129 202.96203 -85.439195 203.28662 -81.915634 203.920157 C -72.32654 205.644786 -56.433361 212.449444 -43.003937 231.647185 M -49.026451 278.403791 C -40.309449 274.594747 -35.749546 265.79562 -35.565742 255.73724 C -35.417134 247.642043 -37.708818 239.441256 -43.003937 231.647185 C -38.076426 228.776714 -30.896338 225.968814 -23.540268 225.968814 M -55.967985 268.775591 C -59.331207 268.775591 -62.064802 266.045906 -62.064802 262.682684 C -62.064802 259.315551 -59.331207 256.585867 -55.967985 256.585867 C -52.604763 256.585867 -49.875078 259.315551 -49.875078 262.682684 C -49.875078 266.045906 -52.604763 268.775591 -55.967985 268.775591 Z M -55.967985 279.866402 C -65.451489 279.866402 -73.151703 272.166188 -73.151703 262.682684 C -73.151703 253.195269 -65.451489 245.495055 -55.967985 245.495055 C -46.484481 245.495055 -38.784267 253.195269 -38.784267 262.682684 C -38.784267 272.166188 -46.484481 279.866402 -55.967985 279.866402 Z M -37.583675 170.229276 C -35.397581 156.799853 -33.61038 135.525518 -32.52711 113.187467 M -70.781805 188.719176 C -67.535904 182.176536 -64.407326 175.231091 -61.689373 167.503502 C -55.432216 149.733176 -51.634904 131.493563 -49.484006 113.187467 M -23.540268 333.775722 C -58.150169 333.775722 -97.03449 310.941009 -97.03449 265.756512 C -97.03449 239.812775 -88.571685 222.58995 -79.02952 204.553694 M 1.64479 70.740477 L -32.52711 70.740477 M -15.44116 14.148402 L -48.725326 14.148402 M 4.284528 84.889474 L -32.52711 84.889474 M -15.44116 28.297398 L -51.365064 28.297398 M 3.564955 99.038471 L -32.52711 99.038471 M -15.44116 42.446395 L -50.645491 42.446395 M -67.387297 181.593838 C -70.695769 173.54557 -79.925075 167.785074 -87.468861 164.707335 C -96.483078 161.031255 -113.322652 155.090867 -121.605564 151.348305 C -134.647826 145.458755 -143.951436 136.843432 -151.385721 121.47429 C -160.728439 102.151406 -167.294543 73.599216 -169.238172 54.538351 C -171.424267 33.111499 -165.405664 15.560173 -163.00839 12.693613 C -158.471951 7.26944 -149.739306 8.970604 -142.172057 11.015912 C -127.456006 14.989207 -106.736994 29.122561 -90.703029 39.55246 C -79.635682 46.752101 -69.522552 55.918836 -65.733061 57.311054 C -56.452915 60.732937 -51.822618 56.591481 -36.242297 56.591481 L 1.64479 56.591481 C 5.547691 56.591481 8.719288 59.763077 8.719288 63.665979 C 8.719288 67.572792 5.547691 70.740477 1.64479 70.740477 L 4.284528 70.740477 C 8.18743 70.740477 11.359026 73.912074 11.359026 77.814976 C 11.359026 81.721788 8.18743 84.889474 4.284528 84.889474 L 4.765547 84.889474 C 8.668448 84.889474 11.836134 88.061071 11.836134 91.963972 C 11.836134 95.870785 8.668448 99.038471 4.765547 99.038471 L 3.564955 99.038471 C 7.467856 99.038471 10.639453 102.206157 10.639453 106.112969 C 10.639453 110.015871 7.467856 113.187467 3.564955 113.187467 L -49.484006 113.187467 M 56.359718 46.450976 C 60.368209 63.380496 64.928113 81.049144 69.308123 95.585302 C 72.018254 81.268144 78.752519 57.381447 82.119652 48.762213 C 64.681737 47.506871 40.102842 44.116274 25.961667 45.551509 C 14.593194 46.705173 11.425508 56.591481 -0.00162492 56.591481 L -50.645491 56.591481 C -54.548392 56.591481 -57.719989 53.423795 -57.719989 49.520893 C -57.719989 45.614081 -54.548392 42.446395 -50.645491 42.446395 L -51.842172 42.446395 C -55.748984 42.446395 -58.920581 39.274798 -58.920581 35.371897 C -58.920581 31.465084 -55.748984 28.297398 -51.842172 28.297398 L -51.365064 28.297398 C -55.267966 28.297398 -58.439562 25.125802 -58.439562 21.2229 C -58.439562 17.316087 -55.267966 14.148402 -51.365064 14.148402 L -48.725326 14.148402 C -52.628227 14.148402 -55.799824 10.976805 -55.799824 7.073903 C -55.799824 3.167091 -52.628227 -0.000594951 -48.725326 -0.000594951 L -10.267273 -0.000594951 C 11.128293 -0.000594951 14.401569 5.368828 19.755349 5.857668 C 25.109129 6.346509 64.689559 3.745878 71.044484 3.448663 C 88.963418 2.600036 109.596393 6.057115 115.927854 12.693613 C 120.17881 17.147926 124.343731 33.111499 122.157636 54.538351 C 120.214007 73.599216 113.647903 102.151406 104.305185 121.47429 C 96.8709 136.843432 87.56729 145.458755 74.525028 151.348305 C 66.242116 155.090867 49.402542 161.031255 40.388325 164.707335 C 32.844539 167.785074 23.615233 173.54557 20.306761 181.593838 M 45.687355 -3.981711 C 46.129266 -1.396723 46.676767 1.563694 47.306394 4.817416 " transform="matrix(0.998856, 0, 0, -0.998856, 241.946936, 403.573624)"/>
</mask>
</defs>
<rect x="0" y="0" width="437.499" height="718.293" fill="currentColor" mask="url(#ornament-mask)"/>
</svg>
