<?xml version="1.0" encoding="UTF-8"?>
<svg xmlns="http://www.w3.org/2000/svg" xmlns:xlink="http://www.w3.org/1999/xlink" width="464.25pt" height="135.841pt" viewBox="0 0 464.25 135.841">
<defs>
<mask id="ornament-mask" maskUnits="userSpaceOnUse" x="0" y="0" width="464.25" height="135.841">
<rect x="0" y="0" width="464.25" height="135.841" fill="black"/>
<path fill-rule="evenodd" fill="white" fill-opacity="1" d="M 400.796875 51.46875 C 396.953125 47.222656 394.210938 42.355469 392.105469 38.460938 C 390.652344 35.773438 389.679688 33.015625 388.300781 33.335938 C 386.539062 33.746094 385.640625 36.589844 387.390625 39.917969 C 389.421875 43.785156 396.742188 49.230469 400.796875 51.46875 M 394.535156 32.765625 L 394.53125 32.765625 C 394.410156 32.542969 394.320312 32.375 394.261719 32.261719 C 393.664062 31.042969 392.503906 31.261719 393 32.65625 C 394.785156 37.648438 396.890625 40.964844 399.453125 45.101562 C 400.78125 47.238281 403.039062 49.867188 405.070312 52.46875 C 404.644531 53.726562 403.984375 55.023438 403.410156 56.464844 L 403.40625 56.464844 C 403.179688 56.289062 402.9375 56.109375 402.683594 55.933594 C 398.621094 53.066406 391.5625 49.847656 387.121094 44.972656 C 383.023438 40.476562 382.003906 37.089844 381.183594 35.429688 C 380.328125 33.707031 379.386719 31.460938 376.664062 29.402344 C 378.195312 28.765625 381.359375 28.636719 382.269531 29.644531 C 383.429688 30.9375 383.003906 33.289062 383.707031 34.367188 C 384.019531 32.628906 384.820312 30.488281 384.367188 29.558594 C 383.914062 28.636719 382.613281 27.78125 379.691406 27.78125 C 372.25 27.78125 362.261719 31.070312 349.105469 65.585938 C 346.660156 71.996094 344.046875 77.511719 341.296875 82.21875 L 341.292969 82.21875 C 339.792969 81.332031 338.429688 80.519531 337.253906 79.804688 C 335.8125 78.929688 334.15625 77.867188 332.328125 76.675781 C 334.789062 72.347656 337.265625 67.132812 339.820312 60.894531 C 354.539062 24.984375 364.46875 17.996094 379.515625 17.996094 C 384.578125 17.996094 389.144531 19.035156 392.378906 19.921875 C 393.339844 23.082031 395.15625 27.4375 397.546875 31.570312 C 396.515625 31.925781 395.511719 32.324219 394.535156 32.765625 "/>
<path fill-rule="evenodd" fill="white" fill-opacity="1" d="M 404.613281 40.636719 L 404.617188 40.636719 C 407.5 43.144531 410.675781 44.480469 413.941406 43.582031 C 415.570312 44.777344 417.980469 46.53125 419.558594 47.734375 C 412.308594 50.59375 405.679688 46.230469 401.019531 41.394531 C 402.152344 41.082031 403.351562 40.828125 404.613281 40.636719 "/>
<path fill-rule="evenodd" fill="white" fill-opacity="1" d="M 340.183594 60.011719 C 331.398438 49.636719 318.425781 36.167969 305.417969 36.167969 C 289.101562 36.167969 280.269531 48.40625 280.269531 54.53125 C 280.269531 57.125 281.871094 58.199219 283.59375 58.199219 C 286.144531 58.199219 287.808594 55.957031 288.445312 53.476562 C 294.441406 55.015625 300.835938 57.84375 307.0625 61.152344 C 307.792969 63.675781 308.226562 66.667969 308.226562 70.226562 C 308.226562 72.734375 307.914062 75.273438 307.304688 77.769531 L 307.304688 77.773438 C 302.632812 76.339844 297.851562 75.023438 293.714844 74.121094 C 288.824219 73.050781 285.941406 71.253906 284.917969 67.78125 C 283.105469 67.226562 281.542969 66.886719 279.886719 67.25 C 278.230469 67.613281 276.757812 69.519531 277.316406 72.164062 C 280.816406 88.71875 295.476562 95.371094 306.605469 95.371094 C 314.394531 95.371094 320.878906 92.488281 327.152344 84.507812 C 331.007812 85.898438 334.476562 87.328125 336.859375 88.980469 C 327.738281 101.28125 317.457031 105.980469 307.164062 105.980469 C 285.0625 105.980469 266.234375 90.070312 266.234375 66.382812 C 266.234375 39.785156 286.640625 25.128906 305.265625 25.128906 C 321.953125 25.128906 334.011719 36.765625 344.8125 49.035156 C 344.851562 49.082031 344.890625 49.136719 344.917969 49.203125 C 343.390625 52.46875 341.816406 56.0625 340.183594 60.011719 "/>
<path fill-rule="evenodd" fill="white" fill-opacity="1" d="M 357.765625 100.117188 C 351.445312 97.601562 345.691406 95.179688 340.035156 94.703125 C 341.320312 88.460938 329.050781 85.269531 317.949219 81.296875 L 317.558594 81.15625 C 318.695312 77.164062 319.296875 72.960938 319.296875 68.65625 C 319.296875 68.523438 319.296875 68.394531 319.292969 68.261719 C 326.511719 72.757812 332.871094 77.144531 337.253906 79.804688 C 342.519531 83.003906 351.453125 88.214844 360.457031 92.617188 C 359.582031 95.308594 358.691406 97.835938 357.765625 100.117188 "/>
<path fill-rule="evenodd" fill="white" fill-opacity="1" d="M 366.128906 95.269531 C 373.09375 98.355469 379.636719 100.582031 384.027344 100.582031 C 395.199219 100.582031 401.316406 94.046875 402.097656 91.890625 C 403.179688 88.90625 401.511719 85.945312 398.191406 84.742188 C 399.929688 75.339844 411.210938 72.464844 414.265625 64.042969 C 415.765625 59.902344 413.542969 57.683594 412.613281 56.28125 C 413.386719 55.175781 416.175781 50.769531 417.226562 49.304688 C 418.273438 51.09375 419.164062 57.601562 417.203125 63.011719 C 415.238281 68.421875 412.769531 71.316406 410.816406 75.945312 C 408.253906 76.699219 404.621094 78.777344 403.058594 80.679688 C 404.652344 79.292969 409.238281 76.476562 413.398438 77.976562 C 412.421875 79.410156 410.402344 81.652344 409.207031 83.480469 C 407.546875 82.953125 404.667969 82.886719 403.308594 83.765625 C 405.25 85.460938 407.210938 88.875 405.546875 93.457031 C 403.886719 98.039062 396.460938 106.34375 384.089844 106.34375 C 376.023438 106.34375 369.007812 104.339844 362.625 101.992188 C 363.835938 99.847656 365.003906 97.574219 366.128906 95.269531 "/>
<path fill-rule="evenodd" fill="white" fill-opacity="1" d="M 383.402344 100.566406 C 372.015625 94.339844 360.558594 83.769531 347.90625 69.304688 C 347.84375 69.230469 347.78125 69.160156 347.71875 69.082031 C 348.183594 67.949219 348.648438 66.78125 349.105469 65.585938 C 350.1875 62.742188 351.25 60.113281 352.289062 57.683594 C 352.855469 58.335938 353.417969 58.980469 353.980469 59.617188 C 364.773438 71.828125 380.863281 90.769531 399.085938 95.5 C 396.136719 97.96875 391.09375 100.582031 384.027344 100.582031 C 383.824219 100.582031 383.613281 100.578125 383.402344 100.566406 "/>
<path fill-rule="evenodd" fill="white" fill-opacity="1" d="M 393.261719 33.371094 L 393.261719 33.367188 C 398.175781 30.921875 403.796875 29.519531 410.1875 29.519531 C 432.480469 29.519531 445.535156 49.578125 445.535156 68.1875 C 445.535156 88.273438 431.9375 107.109375 407.324219 107.109375 C 402.449219 107.109375 397.699219 106.320312 392.988281 104.773438 C 398.195312 102.832031 401.898438 99.410156 403.96875 96.40625 C 405.109375 96.535156 406.257812 96.597656 407.414062 96.597656 C 425.027344 96.597656 435.007812 84.035156 435.007812 68.023438 C 435.007812 55.589844 426.433594 40.253906 409.855469 40.253906 C 405.167969 40.253906 401.132812 41.121094 397.835938 42.476562 L 397.832031 42.472656 C 396.097656 39.621094 394.589844 36.914062 393.261719 33.371094 "/>
<path fill-rule="evenodd" fill="white" fill-opacity="1" d="M 383.570312 40.265625 C 384.402344 41.644531 385.527344 43.222656 387.121094 44.972656 C 388.035156 45.976562 389.0625 46.910156 390.148438 47.785156 C 387.589844 50.78125 386.953125 54.039062 388.558594 56.253906 C 382.480469 61.308594 378.789062 68.332031 373.296875 79.953125 C 370.855469 77.75 368.515625 75.453125 366.285156 73.152344 C 367.085938 70.472656 367.910156 67.8125 368.769531 65.230469 C 371.882812 55.863281 376.703125 46.882812 383.570312 40.265625 "/>
<path fill-rule="evenodd" fill="white" fill-opacity="1" d="M 362.8125 84.976562 C 364.746094 86.808594 366.660156 88.527344 368.5625 90.140625 C 362.914062 102.308594 356.175781 115.582031 347.984375 115.582031 C 343.109375 115.582031 340.566406 112.574219 339.636719 110.171875 C 338.34375 111.148438 337.425781 113.878906 337.355469 115.621094 C 335.230469 116.121094 332.433594 117.253906 330.75 117.6875 C 330.757812 113.261719 334.972656 109.910156 336.816406 108.882812 C 334.5 109.707031 331.308594 112.414062 329.722656 114.5625 C 324.707031 114.824219 321.144531 116.160156 315.386719 116.160156 C 309.632812 116.160156 303.816406 113.105469 302.496094 111.507812 C 304.230469 111.023438 309.320312 109.902344 310.621094 109.550781 C 311.625 110.902344 312.953125 113.75 317.355469 113.75 C 326.316406 113.75 332.867188 104.125 342.296875 105.691406 C 342.296875 109.226562 344.511719 111.800781 347.683594 111.800781 C 354.269531 111.800781 358.527344 99.464844 362.8125 84.976562 "/>
<path fill-rule="evenodd" fill="white" fill-opacity="1" d="M 405.648438 58.867188 C 405.269531 60.09375 405.019531 61.183594 405.09375 62.035156 C 405.214844 63.371094 405.46875 64.082031 405.929688 64.859375 L 405.941406 64.84375 C 407.136719 63.363281 406.773438 60.804688 405.648438 58.867188 M 405.398438 69.410156 C 404.511719 68.355469 402.453125 66.019531 402.257812 62.566406 C 401.902344 56.304688 406.535156 52.800781 405.308594 48.660156 C 404.59375 49.667969 403.207031 49.65625 402.382812 48.71875 C 401.558594 47.78125 401.773438 46.117188 403.023438 45.496094 C 404.734375 44.640625 407.082031 45.734375 407.753906 49.097656 C 408.097656 50.820312 407.597656 52.917969 406.941406 54.980469 C 407.9375 56.410156 408.734375 57.773438 409.128906 58.980469 C 410.605469 63.527344 408.558594 67.285156 405.433594 69.386719 Z M 405.398438 69.410156 "/>
<path fill-rule="evenodd" fill="white" fill-opacity="1" d="M 264.714844 100.023438 C 263.78125 95.089844 259.539062 92.164062 254.726562 92.214844 C 253.15625 82.785156 262.785156 76.234375 262.785156 67.273438 C 262.785156 62.871094 259.9375 61.542969 258.582031 60.539062 C 258.933594 59.234375 260.058594 54.144531 260.542969 52.410156 C 262.136719 53.734375 265.191406 59.546875 265.191406 65.304688 C 265.191406 71.058594 263.859375 74.625 263.597656 79.636719 C 261.449219 81.222656 258.742188 84.414062 257.917969 86.734375 C 258.945312 84.890625 262.296875 80.675781 266.71875 80.667969 C 266.289062 82.347656 265.15625 85.148438 264.652344 87.273438 C 262.914062 87.339844 260.183594 88.261719 259.207031 89.554688 C 264.597656 90.988281 267.976562 96.703125 268.398438 101.421875 C 267.195312 101.0625 265.964844 100.601562 264.714844 100.023438 "/>
<path fill-rule="evenodd" fill="white" fill-opacity="1" d="M 265.089844 111.777344 C 262.429688 114.992188 258.3125 117.117188 253.230469 117.117188 C 244.265625 117.117188 237.558594 113.246094 227.363281 106.351562 C 224.269531 104.257812 221.585938 102.59375 216.871094 99.628906 C 217.675781 96.902344 216.914062 94.582031 214.746094 92.5 C 212.847656 90.679688 209.734375 88.476562 206.394531 85.820312 C 208.796875 81.59375 211.585938 77.066406 214.941406 72.335938 L 214.941406 72.339844 C 217.234375 75.546875 219.453125 78.90625 221.492188 82.046875 C 229.300781 94.09375 238.808594 112.082031 253.644531 112.082031 C 256.570312 112.082031 259 111.4375 260.839844 110.242188 L 260.84375 110.242188 C 262.21875 110.835938 263.632812 111.351562 265.089844 111.777344 "/>
<path fill-rule="evenodd" fill="white" fill-opacity="1" d="M 187.457031 45.117188 C 188.5 46.632812 189.386719 48.136719 190.140625 49.566406 C 192.652344 54.347656 193.464844 57.910156 195.925781 59.394531 C 198.058594 60.683594 200.484375 59.847656 202.171875 58.382812 C 204.636719 59.964844 207.269531 62.605469 209.914062 65.773438 C 206.621094 71.390625 203.90625 76.761719 201.582031 81.722656 C 199.523438 79.808594 197.550781 77.710938 195.902344 75.410156 C 193.1875 74.8125 192.339844 76.496094 191.117188 79.617188 C 185.148438 94.855469 174.742188 105.121094 155.941406 105.121094 C 148.476562 105.121094 141.871094 102.835938 135.855469 98.597656 L 135.859375 98.59375 C 137.210938 95.785156 138.730469 93.371094 140.460938 90.582031 C 140.652344 90.273438 140.859375 89.957031 141.085938 89.632812 L 141.089844 89.628906 C 145.523438 92.417969 150.761719 94.304688 155.953125 94.304688 C 171.398438 94.304688 182.445312 81.792969 182.445312 66.347656 C 182.445312 60.886719 180.980469 56.011719 178.496094 51.925781 C 181.628906 50.019531 184.945312 47.824219 187.457031 45.117188 "/>
<path fill-rule="evenodd" fill="white" fill-opacity="1" d="M 127.636719 91.257812 C 122.683594 85.851562 118.097656 78.996094 113.695312 70.941406 C 116.265625 67.394531 119.101562 63.46875 122.199219 59.613281 C 125.375 64.554688 128.46875 69.21875 130.503906 70.9375 C 128.660156 73.738281 128.800781 76.125 131.757812 80.722656 C 132.6875 82.167969 133.867188 83.613281 135.246094 84.988281 C 132.683594 86.636719 130.136719 88.503906 128.128906 90.710938 C 127.960938 90.894531 127.796875 91.078125 127.636719 91.257812 "/>
<path fill-rule="evenodd" fill="white" fill-opacity="1" d="M 108.152344 60.347656 C 100.355469 45.589844 91.632812 32.207031 74.542969 32.207031 C 70.160156 32.207031 66.253906 33.085938 62.828125 34.597656 C 60.183594 34.058594 57.40625 33.78125 54.492188 33.78125 C 53.890625 33.78125 53.289062 33.792969 52.699219 33.820312 L 52.699219 33.816406 C 58.214844 28.929688 65.613281 25.761719 74.96875 25.761719 C 98.394531 25.761719 108.308594 40.960938 112.871094 45.988281 C 113.800781 47.015625 114.914062 48.515625 116.125 50.28125 C 113.242188 53.695312 110.597656 57.148438 108.152344 60.347656 "/>
<path fill-rule="evenodd" fill="white" fill-opacity="1" d="M 50.660156 44.890625 C 46.789062 50.535156 44.828125 57.210938 44.828125 63.027344 C 44.828125 77.960938 54.097656 88.480469 62.320312 81.167969 C 67.890625 84.546875 69.058594 90.992188 71.390625 96.605469 C 70.304688 97.179688 69.203125 97.707031 68.09375 98.175781 C 67.46875 97.484375 66.8125 96.792969 66.078125 96.09375 C 66.277344 93.429688 65.621094 89.296875 64.398438 87.160156 C 65.128906 89.140625 66.136719 94.429688 63.265625 97.789062 C 62.269531 96.367188 60.882812 93.6875 59.597656 91.917969 C 60.683594 90.554688 61.761719 87.882812 61.417969 86.300781 C 50.683594 89.917969 40.363281 79.519531 40.363281 62.582031 C 40.363281 57.488281 41.375 52.125 43.429688 47.117188 C 45.609375 46.039062 48.023438 45.269531 50.660156 44.890625 "/>
<path fill-rule="evenodd" fill="white" fill-opacity="1" d="M 78.539062 105.035156 C 80.765625 105.777344 82.628906 105.007812 83.832031 104.734375 C 84.59375 105.851562 87.722656 110.019531 88.722656 111.515625 C 86.675781 111.867188 80.277344 110.394531 75.910156 106.644531 C 75.847656 106.589844 75.785156 106.53125 75.722656 106.480469 L 75.71875 106.476562 C 76.671875 106.019531 77.613281 105.539062 78.539062 105.035156 "/>
<path fill-rule="evenodd" fill="white" fill-opacity="1" d="M 174.246094 46.59375 L 174.246094 46.597656 C 168.964844 41.453125 161.691406 38.492188 154.144531 38.492188 C 148.785156 38.492188 143.757812 40.375 139.082031 43.375 C 135.859375 41.320312 132.53125 39.300781 129.089844 37.453125 L 129.09375 37.453125 C 136.199219 31.914062 144.445312 28.03125 154.128906 28.03125 C 165.585938 28.03125 173.960938 31.863281 179.972656 36.855469 L 179.972656 36.859375 C 178.589844 39.765625 177.035156 42.234375 175.257812 45.101562 C 174.964844 45.578125 174.621094 46.078125 174.246094 46.59375 "/>
<path fill-rule="evenodd" fill="white" fill-opacity="1" d="M 122.65625 43.15625 C 125.492188 45.007812 128.335938 47.167969 131.238281 49.625 C 122.195312 58.203125 114.769531 69.804688 109.117188 77.148438 C 107.332031 79.464844 105.238281 82.054688 102.859375 84.746094 L 102.855469 84.75 C 101.730469 81.746094 100.542969 78.398438 99.269531 74.679688 C 99.003906 73.898438 98.730469 73.125 98.449219 72.359375 L 98.453125 72.355469 C 99.605469 71.011719 100.71875 69.699219 101.78125 68.445312 C 107.355469 61.871094 114.074219 51.667969 122.65625 43.160156 Z M 122.65625 43.15625 "/>
<path fill-rule="evenodd" fill="white" fill-opacity="1" d="M 94.660156 93.175781 C 84.378906 102.710938 71.007812 111.269531 55.90625 111.269531 C 34.503906 111.269531 17.96875 95.125 17.96875 73.328125 C 17.96875 51.527344 32.542969 33.78125 54.492188 33.78125 C 61.585938 33.78125 67.871094 35.425781 73.421875 38.503906 C 70.59375 41.320312 68.691406 44.464844 67.523438 47.46875 L 67.519531 47.46875 C 63.738281 45.613281 59.449219 44.613281 54.546875 44.613281 C 37.507812 44.613281 28.445312 59.730469 28.445312 73.445312 C 28.445312 90.046875 39.378906 100.78125 55.984375 100.78125 C 69.015625 100.78125 80.753906 91.410156 90.421875 81.308594 C 90.585938 81.808594 90.75 82.3125 90.914062 82.820312 C 92.113281 86.582031 93.359375 90.03125 94.660156 93.175781 "/>
<path fill-rule="evenodd" fill="white" fill-opacity="1" d="M 141.800781 84.210938 C 137.960938 88.457031 135.214844 93.324219 133.109375 97.222656 C 131.660156 99.910156 130.6875 102.667969 129.308594 102.347656 C 127.546875 101.933594 126.648438 99.089844 128.394531 95.765625 C 130.429688 91.898438 137.75 86.449219 141.800781 84.210938 M 140.296875 101.308594 C 137.042969 106.171875 134.570312 111.871094 133.382812 115.761719 C 130.152344 116.648438 125.585938 117.6875 120.519531 117.6875 C 107.625 117.6875 98.394531 106.230469 90.914062 82.820312 C 86.15625 67.9375 80.289062 56.039062 71.246094 49.679688 C 72.578125 46.480469 74.84375 43.660156 77.878906 41.394531 C 87.234375 48.398438 94.226562 59.929688 99.269531 74.679688 C 107.855469 99.796875 112.59375 107.902344 120.695312 107.902344 C 123.617188 107.902344 124.921875 107.046875 125.371094 106.121094 C 125.824219 105.195312 125.027344 103.050781 124.714844 101.316406 C 124.007812 102.390625 124.4375 104.746094 123.273438 106.039062 C 122.367188 107.046875 119.199219 106.917969 117.667969 106.28125 C 120.390625 104.222656 121.332031 101.972656 122.1875 100.25 C 123.011719 98.59375 124.03125 95.207031 128.128906 90.710938 C 132.84375 85.53125 140.519531 82.222656 144.414062 79.21875 C 144.992188 80.65625 145.652344 81.957031 146.078125 83.214844 C 144.046875 85.8125 141.785156 88.441406 140.460938 90.582031 C 137.894531 94.71875 135.789062 98.035156 134.007812 103.027344 C 133.507812 104.421875 134.671875 104.640625 135.269531 103.421875 C 135.496094 102.960938 136.296875 101.550781 137.566406 99.738281 C 138.464844 100.304688 139.371094 100.828125 140.296875 101.308594 "/>
<path fill-rule="evenodd" fill="white" fill-opacity="1" d="M 141.800781 84.210938 C 137.960938 88.457031 135.214844 93.324219 133.109375 97.222656 C 131.660156 99.910156 130.6875 102.667969 129.308594 102.347656 C 127.546875 101.933594 126.648438 99.089844 128.394531 95.765625 C 130.429688 91.898438 137.75 86.449219 141.800781 84.210938 "/>
<path fill-rule="evenodd" fill="white" fill-opacity="1" d="M 146.914062 70.859375 C 146.46875 71.625 146.21875 72.332031 146.101562 73.648438 C 146.027344 74.496094 146.277344 75.589844 146.652344 76.8125 C 147.785156 74.871094 148.144531 72.300781 146.9375 70.824219 Z M 146.4375 66.292969 C 149.5625 68.398438 151.613281 72.152344 150.132812 76.703125 C 149.742188 77.910156 148.941406 79.273438 147.949219 80.699219 C 148.605469 82.765625 149.105469 84.863281 148.761719 86.585938 C 148.089844 89.949219 145.738281 91.042969 144.027344 90.1875 C 142.777344 89.5625 142.566406 87.902344 143.386719 86.964844 C 144.210938 86.027344 145.601562 86.015625 146.316406 87.023438 C 147.542969 82.882812 142.910156 79.378906 143.265625 73.113281 C 143.460938 69.664062 145.519531 67.328125 146.402344 66.269531 Z M 146.4375 66.292969 "/>
<path fill-rule="evenodd" fill="white" fill-opacity="1" d="M 144.835938 91.671875 L 144.839844 91.667969 C 149.1875 88.074219 154.671875 85.625 160.566406 87.945312 C 158.984375 89.152344 156.574219 90.90625 154.945312 92.101562 C 152.703125 91.484375 150.503906 91.917969 148.410156 93.066406 L 148.40625 93.070312 C 147.191406 92.679688 145.996094 92.210938 144.835938 91.671875 "/>
<path fill-rule="evenodd" fill="white" fill-opacity="1" d="M 300.289062 105.457031 L 300.285156 105.460938 C 293.285156 110.3125 284.691406 113.195312 275.09375 113.195312 C 255.308594 113.195312 241.828125 97.398438 233.507812 81.941406 C 235.375 79.804688 237.199219 77.476562 238.957031 74.945312 C 239.546875 74.101562 240.152344 73.25 240.769531 72.402344 C 252.082031 96.316406 265.746094 102.496094 275.53125 102.496094 C 279.484375 102.496094 283.117188 101.894531 286.40625 100.804688 C 290.632812 103.109375 295.328125 104.695312 300.289062 105.457031 "/>
<path fill-rule="evenodd" fill="white" fill-opacity="1" d="M 173.917969 51.46875 C 177.757812 47.222656 180.503906 42.355469 182.609375 38.460938 C 184.0625 35.773438 185.03125 33.015625 186.410156 33.335938 C 188.175781 33.746094 189.070312 36.589844 187.324219 39.917969 C 185.289062 43.785156 177.96875 49.230469 173.917969 51.46875 M 228.191406 70.59375 L 228.1875 70.59375 C 227.910156 69.910156 227.644531 69.238281 227.386719 68.574219 C 219.625 48.472656 210.199219 27.78125 195.023438 27.78125 C 192.101562 27.78125 190.796875 28.636719 190.34375 29.558594 C 189.894531 30.488281 190.691406 32.628906 191.003906 34.367188 C 191.710938 33.289062 191.28125 30.9375 192.445312 29.644531 C 193.355469 28.636719 196.519531 28.765625 198.050781 29.402344 C 195.324219 31.460938 194.386719 33.707031 193.53125 35.429688 C 192.707031 37.089844 191.6875 40.476562 187.589844 44.972656 C 182.875 50.152344 175.199219 53.460938 171.304688 56.464844 C 170.726562 55.023438 170.066406 53.726562 169.640625 52.46875 C 171.671875 49.871094 173.933594 47.238281 175.257812 45.101562 C 177.824219 40.964844 179.929688 37.648438 181.710938 32.65625 C 182.210938 31.261719 181.046875 31.042969 180.449219 32.261719 C 180.238281 32.691406 179.519531 33.957031 178.386719 35.609375 C 177.554688 34.992188 176.6875 34.398438 175.777344 33.835938 L 175.777344 33.832031 C 178.855469 29.09375 181.191406 23.664062 182.335938 19.921875 C 185.566406 19.035156 190.132812 17.996094 195.199219 17.996094 C 212.121094 17.996094 223.613281 28.964844 235.820312 60.421875 C 233.964844 62.828125 232.363281 64.976562 231.222656 66.558594 C 230.398438 67.699219 229.378906 69.082031 228.191406 70.59375 "/>
<path fill-rule="evenodd" fill="white" fill-opacity="1" d="M 169.066406 58.867188 C 167.933594 60.808594 167.574219 63.382812 168.785156 64.859375 L 168.804688 64.824219 C 169.25 64.058594 169.5 63.351562 169.617188 62.035156 C 169.691406 61.183594 169.441406 60.09375 169.066406 58.867188 M 167.769531 54.980469 C 167.113281 52.917969 166.613281 50.820312 166.957031 49.097656 C 167.628906 45.734375 169.980469 44.640625 171.691406 45.496094 C 172.941406 46.117188 173.152344 47.78125 172.332031 48.71875 C 171.507812 49.65625 170.117188 49.667969 169.402344 48.660156 C 168.175781 52.800781 172.808594 56.304688 172.453125 62.566406 C 172.257812 66.019531 170.199219 68.355469 169.316406 69.410156 C 166.171875 67.3125 164.101562 63.546875 165.585938 58.980469 C 165.976562 57.773438 166.777344 56.410156 167.769531 54.980469 "/>
<path fill-rule="evenodd" fill="white" fill-opacity="1" d="M 168.167969 42.101562 C 169.152344 42.644531 170.105469 43.246094 171.019531 43.898438 L 171.015625 43.902344 C 166.644531 47.558594 161.109375 50.082031 155.152344 47.734375 C 156.734375 46.53125 159.144531 44.777344 160.773438 43.582031 C 163.324219 44.285156 165.820312 43.621094 168.167969 42.101562 "/>
<path fill-rule="evenodd" fill="white" fill-opacity="1" d="M 289.425781 40.933594 C 293.480469 38.15625 298.839844 36.167969 305.417969 36.167969 C 305.757812 36.167969 306.097656 36.179688 306.4375 36.195312 C 315.292969 46.367188 319.296875 59.515625 319.296875 68.65625 C 319.296875 78.378906 316.226562 87.570312 310.855469 95.050781 C 309.476562 95.269531 308.0625 95.371094 306.605469 95.371094 C 303.820312 95.371094 300.8125 94.953125 297.8125 94.066406 C 304.589844 87.769531 308.226562 78.804688 308.226562 70.226562 C 308.226562 53.53125 298.664062 49.203125 293.929688 47.78125 C 294.230469 44.675781 292.636719 42.144531 289.425781 40.933594 "/>
<path fill-rule="evenodd" fill="white" fill-opacity="1" d="M 272.808594 42.917969 C 260.054688 48.625 247.808594 62.238281 238.957031 74.945312 C 234.921875 80.746094 230.5625 85.503906 226.050781 89.234375 C 224.457031 86.738281 222.945312 84.292969 221.492188 82.046875 C 220.984375 81.265625 220.46875 80.472656 219.941406 79.667969 C 224.90625 75.066406 228.863281 69.828125 231.222656 66.558594 C 236.207031 59.65625 250.027344 41.84375 255.09375 39.246094 C 250.523438 39.769531 239.804688 41.605469 241.453125 47.441406 C 238.878906 49.855469 236.132812 51.792969 233.195312 53.949219 C 231.304688 49.5 229.421875 45.535156 227.523438 42.011719 C 239.820312 29.3125 254.785156 21.019531 272.667969 21.019531 C 281.359375 21.019531 288.710938 23.160156 294.828125 26.628906 L 294.832031 26.632812 C 286.253906 29.113281 278.175781 34.632812 272.808594 42.917969 "/>
<path fill-rule="evenodd" fill="white" fill-opacity="1" d="M 216.777344 95.398438 L 216.773438 95.398438 C 211.25 98.214844 205.667969 99.605469 200.316406 99.605469 C 193.5625 99.605469 187.496094 98.097656 181.585938 95.164062 C 184.15625 92.523438 186.335938 89.433594 188.199219 85.972656 L 188.203125 85.972656 C 192.277344 87.871094 196.46875 89.097656 200.5 89.097656 C 203.226562 89.097656 205.890625 88.476562 208.445312 87.425781 C 210.980469 89.378906 213.242188 91.058594 214.746094 92.5 C 215.699219 93.414062 216.378906 94.375 216.777344 95.398438 "/>
<path fill-rule="evenodd" fill="white" fill-opacity="1" d="M 171.839844 89 C 165.761719 84.371094 159.542969 78.277344 152.609375 70.800781 C 133.648438 50.359375 119.992188 37.574219 103.085938 35.640625 C 100.4375 33.421875 97.253906 31.261719 93.417969 29.527344 L 93.421875 29.527344 C 95.527344 29.265625 97.777344 29.121094 100.179688 29.121094 C 124.519531 29.121094 144.136719 48.515625 160.664062 56.796875 C 159.964844 59.960938 159.792969 63.363281 164.929688 68.5625 C 167.925781 71.59375 173 76.363281 178.964844 80.542969 C 177.179688 83.863281 174.761719 86.746094 171.839844 89 "/>
<path fill-rule="evenodd" fill="white" fill-opacity="1" d="M 81.296875 32.972656 C 84.238281 33.671875 86.894531 34.828125 89.324219 36.351562 C 75.707031 39.378906 67.8125 49.179688 70.335938 60.929688 C 62.253906 65.507812 53.097656 59.226562 44.863281 61.691406 C 44.902344 60.878906 44.980469 60.054688 45.09375 59.222656 C 48.742188 58.292969 51.824219 58.042969 55.480469 56.917969 C 57.707031 58.394531 61.632812 59.835938 64.09375 59.816406 C 62.011719 59.484375 56.902344 57.78125 55.375 53.632812 C 57.101562 53.460938 60.117188 53.5625 62.289062 53.304688 C 62.949219 54.914062 64.753906 57.164062 66.300781 57.636719 C 64.945312 52.015625 68.097656 39.363281 81.296875 32.972656 "/>
<path fill-rule="evenodd" fill="white" fill-opacity="1" d="M 40.40625 60.773438 C 40.378906 61.378906 40.363281 61.980469 40.363281 62.582031 C 40.363281 63.351562 40.386719 64.109375 40.425781 64.855469 L 40.421875 64.859375 C 39.707031 66.085938 39.511719 67.339844 39.261719 68.183594 C 37.917969 68.304688 32.753906 68.996094 30.957031 69.136719 C 31.605469 67.3125 35.496094 62.953125 40.40625 60.773438 "/>
<path fill-rule="evenodd" fill="white" fill-opacity="1" d="M 219.851562 50.914062 C 221.460938 54.183594 222.980469 57.632812 224.429688 61.148438 C 221.6875 63.777344 218.792969 67 215.746094 71.214844 C 211.261719 77.40625 207.765625 83.269531 204.847656 88.585938 C 203.421875 88.917969 201.96875 89.097656 200.5 89.097656 C 199.769531 89.097656 199.039062 89.058594 198.300781 88.980469 C 201.851562 80.890625 206.34375 71.226562 212.882812 60.902344 C 215.078125 57.429688 217.402344 54.085938 219.851562 50.914062 Z M 219.851562 50.914062 "/>
<path fill-rule="evenodd" fill="white" fill-opacity="1" d="M 193.863281 99.121094 C 195.554688 99.382812 197.28125 99.539062 199.050781 99.589844 L 199.042969 99.605469 C 193.921875 109.414062 190.179688 115.582031 183.167969 115.582031 C 178.292969 115.582031 175.75 112.574219 174.820312 110.171875 C 173.53125 111.148438 172.609375 113.878906 172.542969 115.621094 C 170.414062 116.121094 167.617188 117.253906 165.933594 117.6875 C 165.945312 113.261719 170.15625 109.910156 172.003906 108.882812 C 169.683594 109.707031 166.492188 112.414062 164.90625 114.5625 C 159.890625 114.824219 156.328125 116.160156 150.570312 116.160156 C 144.816406 116.160156 139.003906 113.105469 137.679688 111.507812 C 139.414062 111.023438 144.503906 109.902344 145.804688 109.550781 C 146.808594 110.902344 148.140625 113.75 152.542969 113.75 C 161.503906 113.75 168.050781 104.125 177.480469 105.691406 C 177.480469 109.226562 179.695312 112.042969 182.871094 112.042969 C 187.28125 112.042969 190.234375 107.140625 193.863281 99.121094 "/>
<path fill-rule="evenodd" fill="white" fill-opacity="1" d="M 400.796875 51.46875 C 396.953125 47.222656 394.210938 42.355469 392.105469 38.460938 C 390.652344 35.773438 389.679688 33.015625 388.300781 33.335938 C 386.539062 33.746094 385.640625 36.589844 387.390625 39.917969 C 389.421875 43.785156 396.742188 49.230469 400.796875 51.46875 "/>
<path fill-rule="evenodd" fill="white" fill-opacity="1" d="M 173.917969 51.46875 C 177.757812 47.222656 180.503906 42.355469 182.609375 38.460938 C 184.0625 35.773438 185.03125 33.015625 186.410156 33.335938 C 188.175781 33.746094 189.070312 36.589844 187.324219 39.917969 C 185.289062 43.785156 177.96875 49.230469 173.917969 51.46875 "/>
<path fill="none" stroke-width="0.85" stroke-linecap="round" stroke-linejoin="round" stroke="black" stroke-opacity="1" stroke-miterlimit="10" d="M -0.00113833 0.00124515 C -3.847185 -4.251708 -6.597715 -9.126759 -8.706586 -13.031494 C -10.158146 -15.723336 -11.132373 -18.485604 -12.513507 -18.164774 C -14.278072 -17.750042 -15.177961 -14.901698 -13.429046 -11.572109 C -11.390602 -7.698674 -4.058464 -2.240652 -0.00113833 0.00124515 Z M 32.167935 32.796328 C 36.013982 37.049281 38.764512 41.924332 40.873382 45.825155 C 42.328855 48.516996 43.29917 51.279264 44.680304 50.958434 C 46.448781 50.547615 47.344757 47.699271 45.595843 44.36577 C 43.557399 40.492335 36.22526 35.038225 32.167935 32.796328 Z M 259.413366 32.796328 C 255.563406 37.049281 252.816789 41.924332 250.707919 45.825155 C 249.252446 48.516996 248.278218 51.279264 246.897085 50.958434 C 245.13252 50.547615 244.232631 47.699271 245.985458 44.36577 C 248.019989 40.492335 255.352128 35.038225 259.413366 32.796328 Z M 128.471701 52.347393 C 127.090567 54.006319 127.172731 57.535449 131.050078 58.235797 C 133.730182 58.724867 136.105107 56.569046 136.058156 54.096308 C 135.983817 50.285474 132.810731 48.622636 127.41531 47.28454 C 122.164653 45.98557 117.798236 45.703865 113.474856 45.03873 M 164.901553 48.09444 C 173.771327 37.906132 177.781702 24.736453 177.781702 15.581061 C 177.781702 5.842698 174.706429 -3.363557 169.326659 -10.85611 M 85.805228 42.209949 C 98.133706 54.964896 113.138376 63.294738 131.077466 63.294738 C 139.782914 63.294738 147.146353 61.150654 153.273422 57.676301 M 56.590138 -4.775991 C 60.146655 3.326922 64.6461 13.006597 71.195727 23.347494 C 73.394586 26.825761 75.722559 30.174912 78.175735 33.351912 M 57.333524 -15.418156 C 52.204158 -25.242596 48.455924 -31.420529 41.432878 -31.420529 C 36.550003 -31.420529 34.002926 -28.407857 33.071736 -26.001632 C 31.780591 -26.979773 30.857227 -29.714652 30.790713 -31.459654 C 28.658368 -31.960462 25.856975 -33.095105 24.170661 -33.529399 C 24.182399 -29.096468 28.400139 -25.739491 30.25078 -24.710487 C 27.926719 -25.536038 24.730157 -28.247442 23.141658 -30.399351 C 18.11793 -30.661492 14.549674 -31.999588 8.78256 -31.999588 C 3.019358 -31.999588 -2.802532 -28.939965 -4.12889 -27.339728 C -2.391713 -26.854571 2.706354 -25.731666 4.009236 -25.379535 C 5.014764 -26.733281 6.348947 -29.585538 10.758403 -29.585538 C 19.733817 -29.585538 26.291269 -19.944989 35.73619 -21.513925 C 35.73619 -25.054793 37.954612 -27.875749 41.135524 -27.875749 C 45.552805 -27.875749 48.5107 -22.965485 52.145469 -14.932999 M 82.765168 23.104915 C 80.014638 20.471762 77.115431 17.239987 74.063633 13.018334 C 69.572014 6.816926 66.070272 0.944172 63.147589 -4.380823 M 78.261811 4.547641 C 83.234675 9.160549 87.198099 14.403381 89.565199 17.682106 C 94.557626 24.595601 108.400265 42.436877 113.474856 45.03873 C 108.89716 44.514447 98.161094 42.675543 99.812195 36.830178 C 97.233817 34.412215 94.483287 32.471585 91.541042 30.311852 M 46.476169 -1.76332 C 50.55697 -3.664824 54.755147 -4.893368 58.79291 -4.893368 C 61.523877 -4.893368 64.192243 -4.271271 66.751058 -3.218792 M -48.458201 54.773181 C -46.349331 55.035322 -44.095696 55.180087 -41.689471 55.180087 C -17.310306 55.180087 2.338573 35.754224 18.892617 27.459595 C 18.192268 24.290421 18.020116 20.882581 23.165133 15.674963 C 26.166067 12.638816 31.248483 7.861579 37.222963 3.67514 M -96.864401 25.029895 C -93.210069 25.961085 -90.123059 26.211488 -86.460902 27.338306 C -84.230743 25.859358 -80.298619 24.415623 -77.833706 24.435186 C -79.919101 24.767754 -85.03673 26.47363 -86.566541 30.628769 C -84.837189 30.800922 -81.816693 30.699195 -79.641309 30.957424 C -78.980086 29.34545 -77.172483 27.091815 -75.623109 26.618395 C -76.980768 32.248569 -73.823331 44.921353 -60.602789 51.322302 M -101.543823 19.38407 C -102.259822 18.155526 -102.45545 16.899594 -102.705854 16.054481 C -104.051774 15.933192 -109.22418 15.240669 -111.023957 15.099816 C -110.374472 16.926982 -106.477562 21.2934 -101.559473 23.476609 M -52.562477 47.937937 C -66.201663 44.905703 -74.108948 35.089088 -71.581434 23.320106 C -79.676522 18.734585 -88.847564 25.025983 -97.095242 22.557157 M 30.086453 -4.795554 C 23.998508 -0.15917 17.769712 5.944425 10.824917 13.433066 C -8.166652 33.907495 -21.844964 46.713306 -38.778526 48.650023 M 75.092637 -11.204328 C 69.560276 -14.025285 63.969227 -15.418156 58.609019 -15.418156 C 51.844202 -15.418156 45.767995 -13.907908 39.848291 -10.969575 M 131.218318 41.360923 C 118.443808 35.644672 106.177931 22.009398 97.312068 9.281839 C 93.270393 3.471686 88.903976 -1.293812 84.384968 -5.030308 M 156.262619 -9.870145 C 163.050911 -3.563098 166.693505 5.416229 166.693505 14.008212 C 166.693505 30.730496 157.115557 35.065613 152.373534 36.489785 C 152.674801 39.604183 151.078476 42.13561 147.858439 43.352416 M 99.127497 11.828916 C 110.458272 -12.12378 124.144409 -18.313451 133.945373 -18.313451 C 137.904884 -18.313451 141.543566 -17.710917 144.837942 -16.619312 M 34.030314 50.461539 C 37.113411 55.207475 39.453123 60.645934 40.599503 64.394167 C 43.83519 65.282318 48.408974 66.32306 53.483565 66.32306 C 70.432777 66.32306 81.94353 55.336589 94.170282 23.828739 M 29.260902 40.374958 C 24.882747 36.712801 19.338649 34.185287 13.371994 36.536736 C 14.956581 37.741805 17.370631 39.498544 19.002168 40.695788 C 21.55707 39.991527 24.057197 40.656662 26.408646 42.178648 M 27.883681 31.794712 C 29.918212 34.396565 32.183585 37.033631 33.509943 39.173802 C 36.080495 43.317203 38.189366 46.638967 39.973493 51.63922 C 40.474301 53.036004 39.308358 53.255107 38.709736 52.034388 C 38.498458 51.604007 37.778547 50.336337 36.643904 48.681324 M 27.308535 25.385938 C 26.173892 23.441396 25.813936 20.863018 27.02683 19.38407 C 27.4846 20.16267 27.742829 20.874756 27.860206 22.212852 C 28.122347 25.19031 24.397589 31.176528 25.195752 35.171252 C 25.868712 38.539967 28.224074 39.635484 29.937775 38.778633 C 31.189795 38.156536 31.401073 36.489785 30.579435 35.550771 C 29.753885 34.611756 28.361013 34.600018 27.645015 35.609459 C 26.416471 31.462145 31.056768 27.952578 30.700725 21.680743 C 30.505097 18.22204 28.443177 15.882329 27.558938 14.825937 C 24.409327 16.926982 22.33567 20.698691 23.822443 25.272474 C 24.213699 26.481455 25.015774 27.846939 26.009564 29.278936 M 86.525139 13.640431 C 86.247347 14.325129 85.981293 14.99809 85.723064 15.663225 C 77.948806 35.797262 68.507797 56.522095 53.3075 56.522095 C 50.380904 56.522095 49.074109 55.665245 48.620252 54.74188 C 48.170308 53.810691 48.96847 51.666608 49.281475 49.925518 C 49.989648 51.005385 49.559267 53.360746 50.72521 54.655804 C 51.636836 55.665245 54.80601 55.53613 56.339734 54.898383 C 53.608767 52.836463 52.669752 50.586741 51.812901 48.861302 C 50.987351 47.198463 49.966173 43.806273 45.861897 39.302916 C 41.139436 34.114861 33.451255 30.800922 29.550432 27.792163 M 158.73927 -21.283084 C 151.727961 -26.142485 143.120328 -29.029954 133.507166 -29.029954 C 113.690047 -29.029954 100.1878 -13.207559 91.854046 2.274443 M 58.100386 12.43145 C 60.158393 12.235822 61.739068 14.125589 61.22261 16.426174 C 60.831354 18.171176 58.781172 19.935741 55.885877 18.867612 C 52.677577 17.682106 51.652486 13.331339 54.187826 8.816244 M 73.257646 11.891517 C 75.554319 8.679305 77.776653 5.314502 79.81901 2.168804 C 87.640219 -9.897533 97.163391 -27.914875 112.023296 -27.914875 C 114.953804 -27.914875 117.387417 -27.269302 119.230233 -26.072059 M 45.72887 39.158151 C 46.773523 37.640078 47.661675 36.133742 48.416799 34.701745 C 50.932575 29.912771 51.746388 26.344516 54.211301 24.857743 C 56.347559 23.566598 58.777259 24.403886 60.467485 25.871096 C 62.936311 24.286509 65.573377 21.641618 68.222181 18.468531 M -12.728698 46.834595 C -5.61175 52.382606 2.647665 56.271691 12.346903 56.271691 C 23.822443 56.271691 32.210973 52.43347 38.232404 47.433217 M -43.418823 11.875867 C -42.264618 13.221787 -41.149538 14.536408 -40.085321 15.79234 C -34.502098 22.377179 -27.772493 32.596787 -19.176598 41.118344 M -74.40239 36.80279 C -78.189749 38.661256 -82.485741 39.662872 -87.396004 39.662872 C -104.462593 39.662872 -113.539734 24.521262 -113.539734 10.784262 C -113.539734 -5.84412 -102.588477 -16.595837 -85.956182 -16.595837 C -72.90388 -16.595837 -61.142723 -7.205691 -51.459135 2.91219 M -1.507474 -17.124033 C -4.766637 -21.99517 -7.243288 -27.703596 -8.432706 -31.600507 C -11.668394 -32.488658 -16.242177 -33.529399 -21.316768 -33.529399 C -34.232131 -33.529399 -43.477512 -22.053859 -50.970065 1.394117 C -55.735564 16.300973 -61.61223 28.218632 -70.669808 34.588281 M 3.042834 -7.467833 C 7.397514 -3.868277 12.890749 -1.415102 18.794803 -3.739163 C 17.210216 -4.948144 14.796166 -6.704884 13.164628 -7.902127 C 10.918818 -7.283943 8.716047 -7.718237 6.618914 -8.86853 M 4.283116 1.002861 C 2.248584 -1.602905 -0.0167886 -4.236058 -1.343147 -6.380141 C -3.913699 -10.523543 -6.022569 -13.845307 -7.806697 -18.845559 C -8.307504 -20.242343 -7.141561 -20.461447 -6.54294 -19.240728 C -6.316011 -18.779046 -5.513936 -17.366611 -4.242354 -15.551183 M 4.858262 7.411635 C 5.992904 9.356178 6.35286 11.930642 5.143879 13.40959 C 4.682197 12.630991 4.423968 11.922817 4.306591 10.580809 C 4.044449 7.607263 7.765294 1.617133 6.971045 -2.377592 C 6.298084 -5.746306 3.942723 -6.841823 2.229021 -5.984973 C 0.977002 -5.358963 0.765724 -3.696125 1.587361 -2.75711 C 2.412912 -1.818096 3.805783 -1.806358 4.521782 -2.815798 C 5.750326 1.331516 1.110029 4.841083 1.466072 11.11683 C 1.6617 14.571621 3.723619 16.911332 4.607858 17.971636 C 7.757469 15.870591 9.831126 12.09497 8.344353 7.521187 C 7.953097 6.312205 7.151022 4.946722 6.157232 3.518637 M -64.030192 42.890734 C -54.655697 35.871601 -47.652214 24.321722 -42.601098 9.547893 C -34.00129 -15.609872 -29.255354 -23.728435 -21.140703 -23.728435 C -18.214108 -23.728435 -16.907313 -22.871584 -16.457368 -21.944307 C -16.003511 -21.01703 -16.801673 -18.869035 -17.114678 -17.131858 C -17.822852 -18.207812 -17.39247 -20.567086 -18.558413 -21.862143 C -19.466127 -22.871584 -22.639214 -22.74247 -24.172938 -22.104722 C -21.445883 -20.042803 -20.502956 -17.789168 -19.646105 -16.063729 C -18.820555 -14.404803 -17.799376 -11.012613 -13.6951 -6.509256 C -8.97264 -1.3212 -1.284458 1.992738 2.616365 5.001498 M -47.217919 -8.978081 C -57.515779 -18.528642 -70.908474 -27.101062 -86.034433 -27.101062 C -107.471352 -27.101062 -124.033221 -10.930449 -124.033221 10.901639 C -124.033221 32.73764 -109.435458 50.512402 -87.45078 50.512402 C -80.34557 50.512402 -74.05026 48.865214 -68.490511 45.782117 M -10.580702 34.643057 C -19.63828 26.051074 -27.076058 14.430769 -32.737533 7.075155 C -34.525573 4.755006 -36.622705 2.160979 -39.005455 -0.534776 M 32.49659 37.675291 C 27.206808 42.828133 19.92162 45.793854 12.362553 45.793854 C 6.99452 45.793854 1.959055 43.908 -2.72428 40.903153 M -0.713224 -5.425476 C 3.727532 -8.219045 8.974276 -10.108811 14.174069 -10.108811 C 29.644333 -10.108811 40.709055 2.42312 40.709055 17.893385 C 40.709055 23.363144 39.241844 28.24602 36.753456 32.338558 M -19.634367 24.642552 C -16.457368 19.693163 -13.354708 15.017653 -11.316264 13.296126 C -13.162992 10.49082 -13.02214 8.100246 -10.060332 3.495162 C -9.129142 2.043602 -7.943636 0.599867 -6.566415 -0.781267 M -89.246645 50.477189 C -83.72211 55.371803 -76.31172 58.544889 -66.941137 58.544889 C -43.477512 58.544889 -33.547433 43.321116 -28.977562 38.28565 C -28.04246 37.256647 -26.931293 35.750311 -25.714486 33.981834 M -73.827244 -13.986159 C -74.453254 -13.293636 -75.110564 -12.601112 -75.846125 -11.900764 C -75.646585 -9.232398 -76.303895 -5.092909 -77.528526 -2.952738 C -76.796877 -4.936406 -75.787437 -10.234013 -78.663169 -13.598815 C -79.660872 -12.174643 -81.049831 -9.490627 -82.337063 -7.718237 C -81.249371 -6.352753 -80.169505 -3.676562 -80.51381 -2.091975 C -91.265526 -5.715006 -101.602512 4.70023 -101.602512 21.665093 C -101.602512 26.770985 -100.589158 32.14293 -98.531151 37.158833 M -63.365057 -20.856615 C -61.134897 -21.600002 -59.268606 -20.829227 -58.063537 -20.555348 C -57.300588 -21.67434 -54.166627 -25.849043 -53.165012 -27.347553 C -55.215193 -27.699684 -61.623967 -26.224648 -65.99821 -22.46859 C -66.060811 -22.413814 -66.123412 -22.355126 -66.186013 -22.304263 M -91.289002 39.38508 C -95.166349 33.73143 -97.130455 27.044864 -97.130455 21.219061 C -97.130455 6.261342 -87.845949 -4.275184 -79.610008 3.04913 C -74.030697 -0.335235 -72.860841 -6.79096 -70.525043 -12.41331 M -33.703935 23.903078 C -41.513406 38.684732 -50.250154 52.089164 -67.367606 52.089164 C -71.757499 52.089164 -75.673973 51.208838 -79.109201 49.690765 M -14.18417 -7.060927 C -19.14921 -1.645943 -23.738643 5.220601 -28.152012 13.292213 M 59.888426 2.485721 C 57.822595 4.402876 55.842839 6.507833 54.187826 8.816244 C 51.468596 9.414866 50.61957 7.728552 49.394939 4.602416 C 43.416546 -10.660482 32.993485 -20.942692 14.162331 -20.942692 C 6.685428 -20.942692 0.0692878 -18.653844 -5.956056 -14.408715 M 123.491011 -27.605782 C 120.822645 -30.829732 116.698806 -32.958165 111.608565 -32.958165 C 102.629238 -32.958165 95.911372 -29.080818 85.699589 -22.175148 C 82.600841 -20.078016 79.912912 -18.411265 75.190451 -15.441631 C 75.996438 -12.710664 75.233489 -10.386603 73.062018 -8.301208 C 71.160514 -6.477955 68.042203 -4.271271 64.696963 -1.61073 M 123.111493 -15.8368 C 122.176391 -10.895236 117.92735 -7.964728 113.107076 -8.015591 C 111.534226 1.42933 121.178688 7.990694 121.178688 16.966108 C 121.178688 21.375564 118.326431 22.705834 116.968773 23.711362 C 117.320903 25.018158 118.447721 30.116224 118.932878 31.853401 C 120.529203 30.527043 123.588825 24.705153 123.588825 18.938038 C 123.588825 13.174837 122.254642 9.602669 121.992501 4.582854 C 119.840592 2.994354 117.129188 -0.202208 116.303638 -2.526269 C 117.332641 -0.67954 120.689618 3.542112 125.118637 3.549938 C 124.688255 1.867537 123.553612 -0.937769 123.048892 -3.066202 C 121.307803 -3.132716 118.572923 -4.05608 117.594783 -5.351138 C 122.994116 -6.787047 126.378481 -12.511124 126.801038 -17.237497 M 149.439113 17.189124 C 151.019788 17.099135 152.62785 19.055415 152.142692 21.14081 C 151.724048 22.936675 149.564315 24.634727 146.895949 23.734838 C 144.22367 22.838861 142.494318 20.103981 143.347256 16.457475 M 264.272766 25.385938 C 265.403496 23.441396 265.763452 20.863018 264.554471 19.38407 C 264.092788 20.16267 263.838472 20.874756 263.717183 22.212852 C 263.458954 25.19031 267.179799 31.176528 266.381636 35.171252 C 265.708676 38.539967 263.357227 39.635484 261.643525 38.778633 C 260.391506 38.156536 260.176315 36.489785 261.001866 35.550771 C 261.827416 34.611756 263.216375 34.600018 263.932373 35.609459 C 265.160917 31.462145 260.520621 27.952578 260.876664 21.680743 C 261.072292 18.22204 263.134211 15.882329 264.022362 14.825937 C 267.171974 16.926982 269.245631 20.698691 267.758858 25.272474 C 267.363689 26.481455 266.565527 27.846939 265.567824 29.278936 M 199.817243 1.996651 C 202.571686 6.711287 205.189189 12.235822 207.638452 18.656334 C 220.815956 53.227719 230.820373 56.522095 238.273801 56.522095 C 241.200396 56.522095 242.503279 55.665245 242.957136 54.74188 C 243.410993 53.810691 242.608918 51.666608 242.295913 49.925518 C 241.591652 51.005385 242.018122 53.360746 240.856091 54.655804 C 239.944464 55.665245 236.77529 55.53613 235.241567 54.898383 C 237.968621 52.836463 238.911548 50.586741 239.768399 48.861302 C 240.590037 47.198463 241.611215 43.806273 245.715491 39.302916 C 250.164073 34.420041 257.23407 31.196091 261.303133 28.324271 C 261.557449 28.148206 261.800028 27.968228 262.026956 27.792163 M 203.338548 35.233853 C 192.520318 47.523206 180.442243 59.178724 163.727784 59.178724 C 145.072695 59.178724 124.633479 44.498797 124.633479 17.858172 C 124.633479 -5.867596 143.492021 -21.803455 165.629289 -21.803455 C 175.938886 -21.803455 186.236745 -17.096645 195.372574 -4.772079 M 257.699664 -11.306055 C 239.447569 -6.567944 223.331732 12.404062 212.521327 24.634727 C 211.957919 25.276387 211.390597 25.921959 210.823276 26.575357 M 256.447645 41.803042 C 259.749846 43.160701 263.791521 44.029289 268.486594 44.029289 C 285.091501 44.029289 293.679571 28.668577 293.679571 16.214896 C 293.679571 0.17731 283.682979 -12.405484 266.041244 -12.405484 C 264.883126 -12.405484 263.732833 -12.342883 262.590365 -12.213769 M 231.865027 4.262024 C 237.37 15.905804 241.067369 22.940588 247.155314 28.003441 C 245.547251 30.221863 246.184999 33.484939 248.747726 36.485873 M 221.367627 -0.765617 C 217.075548 -15.277304 212.810857 -27.63317 206.21428 -27.63317 C 203.03728 -27.63317 200.818859 -25.054793 200.818859 -21.513925 C 191.373937 -19.944989 184.812573 -29.585538 175.837159 -29.585538 C 171.427704 -29.585538 170.097433 -26.733281 169.091905 -25.379535 C 167.789022 -25.731666 162.690956 -26.854571 160.953779 -27.339728 C 162.276224 -28.939965 168.102027 -31.999588 173.865229 -31.999588 C 179.632343 -31.999588 183.200598 -30.661492 188.224326 -30.399351 C 189.812826 -28.247442 193.009388 -25.536038 195.329536 -24.710487 C 193.482808 -25.739491 189.261155 -29.096468 189.25333 -33.529399 C 190.939643 -33.095105 193.741037 -31.960462 195.86947 -31.459654 C 195.939896 -29.714652 196.859347 -26.979773 198.154405 -26.001632 C 199.085594 -28.407857 201.632671 -31.420529 206.515547 -31.420529 C 214.720186 -31.420529 221.469353 -18.125648 227.126916 -5.938022 M 242.158974 44.017552 C 235.284605 37.393587 230.452592 28.394697 227.334282 19.012377 C 226.473518 16.426174 225.647968 13.761721 224.845893 11.077704 M 251.592157 -20.594474 C 256.310705 -22.143848 261.068379 -22.934185 265.951255 -22.934185 C 290.604299 -22.934185 304.223922 -4.067818 304.223922 16.050569 C 304.223922 34.690007 291.148145 54.781006 268.819162 54.781006 C 262.418212 54.781006 256.788038 53.376397 251.866037 50.927134 M 206.24558 15.154592 C 206.312094 15.080254 206.374695 15.005915 206.437296 14.931576 C 219.113992 0.443364 230.589532 -10.147937 241.990734 -16.384559 M 165.527562 23.09709 C 159.290941 26.411029 152.886079 29.243723 146.880298 30.785272 C 146.242551 28.300796 144.5758 26.054986 142.020898 26.054986 C 140.295459 26.054986 138.691309 27.13094 138.691309 29.72888 C 138.691309 35.863775 147.537609 48.121828 163.880374 48.121828 C 176.909201 48.121828 189.906727 34.627406 198.706076 24.235645 M 219.012265 -8.418585 C 209.989901 -4.009129 201.041875 1.210226 195.767743 4.414613 C 191.37785 7.079067 185.008201 11.472873 177.777789 15.97623 M 221.179824 -17.808731 C 227.572948 -20.16018 234.599907 -22.167323 242.679344 -22.167323 C 255.070424 -22.167323 262.508201 -13.849219 264.17104 -9.259786 C 265.83779 -4.670352 263.873685 -1.250774 261.929142 0.447277 C 263.290713 1.327603 266.174271 1.26109 267.837109 0.732894 C 269.034352 2.563972 271.057146 4.809782 272.035286 6.245692 C 267.868409 7.748115 263.275063 4.927159 261.678738 3.5382 C 263.243763 5.443617 266.882444 7.525099 269.449084 8.280223 C 271.405364 12.916608 273.878102 15.815815 275.84612 21.234711 C 277.810226 26.653608 276.918162 33.171934 275.869596 34.963887 C 274.817117 33.496676 272.023549 29.083308 271.248862 27.976053 C 272.180051 26.571444 274.406298 24.34911 272.903875 20.201795 C 269.844252 11.766315 258.544777 8.88667 256.803688 -0.530863 C 260.129364 -1.735932 261.800028 -4.701653 260.716249 -7.690849 C 259.933736 -9.850582 253.806667 -16.396296 242.616743 -16.396296 C 238.219025 -16.396296 231.661574 -14.166137 224.685478 -11.071301 M 176.040612 3.060868 C 176.169727 3.013917 176.302754 2.966966 176.431869 2.920015 C 187.551366 -1.059059 199.840718 -4.255621 198.553486 -10.507893 C 204.218874 -10.985225 209.982076 -13.411013 216.312599 -15.930702 M 185.649861 -0.296109 C 179.366289 -8.289471 172.871438 -11.17694 165.069793 -11.17694 C 153.922908 -11.17694 139.239068 -4.51385 135.733413 12.067582 C 135.173917 14.716386 136.648953 16.625715 138.307878 16.989583 C 139.966804 17.353451 141.531828 17.013059 143.347256 16.457475 C 144.372347 12.979209 147.259817 11.179431 152.158343 10.107389 C 156.301744 9.203588 161.090718 7.885055 165.770141 6.449145 M 256.162028 52.722999 C 253.763628 56.862488 251.944288 61.228906 250.981798 64.394167 C 247.742198 65.282318 243.168414 66.32306 238.097736 66.32306 C 223.026553 66.32306 213.080824 59.323489 198.338295 23.355319 C 195.779481 17.10696 193.298917 11.883692 190.834004 7.548575 M 259.636382 42.886822 C 264.304067 38.043072 270.943682 33.672742 278.205394 36.536736 C 276.62472 37.741805 274.21067 39.498544 272.579132 40.695788 C 269.308232 39.795899 266.12732 41.133995 263.23985 43.645858 M 263.693707 31.794712 C 261.659176 34.400478 259.397716 37.033631 258.067445 39.173802 C 255.500805 43.317203 253.391935 46.638967 251.603895 51.63922 C 251.107 53.036004 252.26903 53.255107 252.867652 52.034388 C 252.92634 51.920924 253.016329 51.752684 253.137619 51.529668 " transform="matrix(0.998387, 0, 0, -0.998387, 141.801918, 84.212181)"/>
</mask>
</defs>
<rect x="0" y="0" width="464.25" height="135.841" fill="currentColor" mask="url(#ornament-mask)"/>
</svg>
